<svg id="svg" xmlns="http://www.w3.org/2000/svg" xmlns:xlink="http://www.w3.org/1999/xlink" width="400" height="164.57142857142858" viewBox="0, 0, 400,164.57142857142858"><g id="svgg"><path id="path0" d="M385.143 19.203 C 381.214 20.274,373.197 22.434,367.326 24.005 C 352.235 28.042,352.318 28.010,352.112 29.785 C 351.948 31.200,351.460 31.421,343.370 33.731 C 337.586 35.383,334.628 36.503,334.267 37.179 C 333.972 37.729,331.606 38.989,329.008 39.979 C 321.533 42.828,320.468 43.909,323.863 45.199 C 325.700 45.898,325.130 46.442,321.239 47.705 C 318.455 48.609,316.022 48.659,292.953 48.280 C 279.072 48.052,267.888 48.047,268.099 48.270 C 268.311 48.493,272.554 48.646,277.528 48.610 C 304.338 48.420,330.704 50.472,348.000 54.096 C 354.820 55.525,355.005 55.337,342.030 60.126 C 338.557 61.408,334.882 62.648,333.865 62.881 C 330.887 63.563,312.288 62.441,305.143 61.148 C 301.529 60.494,297.286 59.731,295.714 59.453 C 294.143 59.176,292.407 58.772,291.857 58.556 C 291.307 58.340,290.857 58.413,290.857 58.717 C 290.857 59.022,293.598 59.741,296.949 60.315 C 305.328 61.751,304.180 62.003,281.429 63.718 C 270.743 64.524,260.971 65.296,259.714 65.433 C 258.457 65.571,253.957 65.953,249.714 66.283 C 245.471 66.612,239.300 67.130,236.000 67.432 C 232.700 67.735,224.214 68.499,217.143 69.131 C 210.071 69.763,202.229 70.531,199.714 70.839 C 195.587 71.343,190.794 71.830,179.278 72.914 C 177.152 73.114,175.266 73.515,175.087 73.805 C 174.906 74.097,175.355 74.200,176.095 74.037 C 176.828 73.875,180.771 73.475,184.857 73.149 C 192.421 72.544,203.015 71.619,207.143 71.203 C 208.400 71.076,211.486 70.806,214.000 70.603 C 216.514 70.401,220.757 69.996,223.429 69.705 C 226.100 69.413,234.457 68.647,242.000 68.001 C 249.543 67.355,261.243 66.330,268.000 65.722 C 296.334 63.174,301.728 63.103,300.999 65.288 C 300.820 65.826,284.330 70.145,260.286 75.951 C 255.063 77.213,241.595 80.674,230.286 83.662 C 226.043 84.783,219.229 86.582,215.143 87.660 C 203.226 90.806,199.189 91.063,168.286 90.651 C 143.220 90.316,134.614 89.962,123.957 88.825 L 120.199 88.425 119.454 90.224 C 117.852 94.091,112.147 96.397,109.757 94.143 C 109.146 93.566,109.050 93.594,109.259 94.286 C 109.973 96.642,115.511 97.137,117.817 95.049 C 118.971 94.006,118.973 94.014,118.565 97.430 C 118.046 101.772,118.433 101.522,111.692 101.869 L 105.956 102.165 105.272 99.225 C 104.238 94.783,100.810 88.466,97.664 85.201 C 94.774 82.203,94.643 81.339,97.408 83.514 C 98.567 84.426,99.081 84.562,99.402 84.042 C 100.363 82.487,104.377 82.601,105.434 84.213 C 105.971 85.033,106.615 85.578,106.865 85.424 C 107.115 85.269,107.196 86.107,107.045 87.286 C 106.859 88.735,107.067 89.798,107.686 90.571 C 108.342 91.390,108.579 91.471,108.519 90.857 C 108.338 88.991,108.597 87.429,109.088 87.429 C 109.373 87.429,109.464 88.483,109.291 89.772 C 108.924 92.512,109.535 93.121,112.668 93.134 C 115.689 93.147,116.486 92.694,117.728 90.260 L 118.835 88.089 114.989 87.688 C 111.111 87.284,109.845 86.863,108.098 85.395 C 107.573 84.954,106.629 84.223,106.001 83.772 C 104.882 82.967,104.888 82.944,106.286 82.652 C 108.376 82.215,120.463 80.708,127.705 79.981 C 131.157 79.635,134.093 79.240,134.229 79.104 C 134.620 78.714,132.111 78.816,126.857 79.405 C 121.540 80.001,104.971 81.549,100.042 81.910 C 97.428 82.102,96.514 81.885,94.219 80.532 C 92.722 79.650,89.761 78.333,87.638 77.606 L 83.780 76.286 87.461 75.925 C 89.486 75.727,93.586 75.404,96.571 75.207 C 104.697 74.672,111.431 73.902,111.875 73.458 C 112.276 73.057,111.297 73.123,97.714 74.411 C 89.201 75.219,82.708 75.317,75.597 74.747 C 70.442 74.334,61.612 75.778,59.272 77.416 C 58.590 77.895,56.915 78.286,55.550 78.286 C 54.185 78.286,52.562 78.556,51.944 78.887 C 50.921 79.435,50.854 79.345,51.198 77.887 C 51.507 76.580,51.438 76.415,50.826 76.990 C 50.354 77.434,50.124 78.810,50.204 80.705 C 50.323 83.507,50.156 83.926,47.782 86.799 C 46.379 88.496,44.784 90.715,44.237 91.731 C 43.362 93.355,42.878 93.622,40.241 93.932 C 38.590 94.126,36.796 94.455,36.253 94.663 C 35.395 94.992,35.316 94.779,35.647 93.016 C 36.212 90.004,35.775 89.964,24.000 91.936 C 17.168 93.080,9.910 95.005,9.000 95.914 C 8.672 96.242,17.594 107.953,24.737 116.571 C 25.128 117.043,26.215 118.457,27.153 119.713 C 35.512 130.916,35.386 130.840,45.337 130.852 C 49.120 130.857,49.342 130.938,52.195 133.355 C 59.985 139.956,72.689 142.723,82.857 140.034 C 86.017 139.199,93.224 136.781,95.553 135.775 C 99.098 134.244,109.507 134.474,110.834 136.114 C 111.832 137.345,121.729 137.187,133.143 135.757 C 151.221 133.492,207.397 131.985,216.857 133.511 C 220.754 134.139,230.098 134.409,255.429 134.625 L 288.857 134.910 292.647 136.611 C 297.295 138.699,301.331 139.747,306.571 140.228 C 308.771 140.430,313.754 141.124,317.644 141.770 C 352.902 147.628,377.156 110.087,357.065 80.754 C 355.047 77.808,355.046 77.714,357.054 77.714 C 360.859 77.714,362.706 68.771,358.956 68.503 C 353.269 68.098,351.103 67.973,347.429 67.838 C 343.262 67.685,338.857 66.531,338.857 65.592 C 338.857 65.094,342.681 63.277,350.000 60.297 C 357.607 57.200,379.291 47.645,381.571 46.384 C 382.279 45.994,382.857 45.263,382.857 44.760 C 382.857 41.057,384.138 39.372,388.696 37.080 C 394.106 34.360,394.086 34.403,394.359 24.857 C 394.613 15.966,395.355 16.421,385.143 19.203 M392.224 24.015 C 392.122 31.113,390.245 33.240,379.143 38.840 C 373.102 41.887,367.150 43.429,361.425 43.429 C 355.960 43.429,354.832 42.039,355.146 35.696 C 355.445 29.658,355.804 29.443,376.000 23.228 C 385.823 20.205,388.681 19.496,390.571 19.610 L 392.286 19.714 392.224 24.015 M351.960 40.914 C 351.917 49.433,351.267 48.451,357.491 49.266 C 360.285 49.631,362.744 50.185,362.954 50.496 C 363.181 50.831,364.163 50.433,365.356 49.522 C 366.467 48.675,367.580 48.017,367.831 48.059 C 369.007 48.257,369.746 47.943,369.405 47.390 C 369.198 47.055,369.375 46.838,369.800 46.907 C 370.958 47.097,376.694 44.313,376.188 43.807 C 375.947 43.566,376.233 43.554,376.825 43.781 C 377.637 44.093,377.785 44.006,377.429 43.429 C 377.087 42.876,377.209 42.760,377.864 43.012 C 378.364 43.204,379.081 42.990,379.457 42.537 C 379.833 42.085,380.494 41.714,380.927 41.714 C 381.360 41.714,381.714 41.457,381.714 41.143 C 381.714 40.829,381.958 40.571,382.257 40.571 C 383.605 40.571,380.188 45.352,378.286 46.127 C 375.939 47.083,367.076 51.113,359.543 54.649 C 353.543 57.465,353.144 57.577,354.520 56.057 C 355.753 54.694,355.702 54.667,349.143 53.251 C 341.022 51.497,333.007 50.329,323.143 49.463 C 321.571 49.325,320.157 49.185,320.000 49.153 C 319.455 49.041,326.016 46.477,329.429 45.467 C 331.314 44.909,333.572 44.233,334.445 43.965 C 335.318 43.696,336.377 43.609,336.800 43.771 C 337.222 43.933,337.715 43.678,337.897 43.205 C 338.094 42.691,337.951 42.428,337.542 42.553 C 333.197 43.882,328.178 44.642,325.955 44.309 C 322.361 43.770,323.353 42.791,329.177 41.133 C 331.906 40.356,334.081 39.384,334.532 38.740 C 335.095 37.937,337.327 37.231,343.114 36.026 C 347.415 35.131,351.089 34.244,351.277 34.056 C 351.465 33.868,351.704 33.714,351.807 33.714 C 351.911 33.714,351.979 36.954,351.960 40.914 M344.286 41.342 C 339.221 42.656,339.089 42.709,339.588 43.207 C 339.781 43.400,341.174 43.283,342.683 42.948 C 344.193 42.612,346.779 42.174,348.429 41.973 C 350.452 41.726,351.429 41.345,351.429 40.804 C 351.429 39.761,349.950 39.872,344.286 41.342 M346.571 44.596 C 345.000 45.206,342.943 46.340,342.000 47.118 L 340.286 48.530 345.857 48.551 C 350.935 48.570,353.599 47.763,349.911 47.324 L 348.394 47.143 349.962 45.286 C 351.866 43.031,351.040 42.863,346.571 44.596 M238.571 49.191 C 234.800 49.442,227.471 49.934,222.286 50.283 C 204.402 51.487,191.123 53.777,173.714 58.659 C 166.571 60.662,162.682 61.840,151.429 65.411 C 148.129 66.459,143.886 67.767,142.000 68.319 C 137.778 69.554,136.471 70.575,139.740 70.085 C 143.127 69.577,156.690 70.672,163.406 71.996 C 166.607 72.627,170.172 73.141,171.328 73.139 C 173.703 73.135,173.769 73.104,183.143 67.426 C 200.845 56.704,216.365 50.857,227.123 50.857 C 234.135 50.857,272.670 55.520,281.779 57.470 C 287.355 58.664,291.809 59.028,288.674 58.033 C 286.358 57.297,270.739 54.779,259.279 53.293 C 244.426 51.367,243.963 50.252,257.583 49.204 L 263.714 48.733 254.571 48.733 C 249.543 48.733,242.343 48.939,238.571 49.191 M196.887 58.237 C 196.181 59.380,170.108 66.857,166.832 66.857 C 166.253 66.857,165.396 66.310,164.927 65.641 C 164.310 64.760,163.666 64.502,162.595 64.707 C 159.547 65.289,160.818 64.217,164.907 62.757 C 168.812 61.362,169.143 61.324,169.143 62.275 C 169.143 64.662,175.908 63.641,193.429 58.612 C 196.911 57.612,197.300 57.570,196.887 58.237 M350.238 59.031 C 347.757 60.844,336.974 65.039,335.888 64.613 C 334.616 64.115,334.639 64.071,336.571 63.336 C 345.550 59.918,351.656 57.995,350.238 59.031 M333.937 65.698 C 348.862 69.515,359.719 82.121,361.705 97.940 C 362.582 104.929,361.675 106.315,360.552 99.700 C 356.002 72.891,330.256 59.878,308.205 73.243 C 300.640 77.827,293.144 88.224,291.694 96.143 C 291.230 98.674,290.286 99.002,290.286 96.632 C 290.286 78.197,314.823 60.810,333.937 65.698 M313.714 66.007 C 313.714 66.168,312.307 66.922,310.588 67.683 C 291.957 75.922,282.943 97.423,289.462 118.072 C 289.783 119.086,289.765 119.088,289.142 118.115 C 283.178 108.806,286.239 89.112,295.377 78.000 C 299.951 72.439,313.714 63.437,313.714 66.007 M298.238 68.225 C 298.107 68.348,295.814 70.170,293.143 72.272 C 290.471 74.375,287.766 76.524,287.130 77.047 C 286.494 77.571,284.051 79.539,281.701 81.420 C 275.640 86.272,275.297 86.565,268.902 92.380 C 265.735 95.260,262.426 98.179,261.549 98.867 C 257.235 102.253,234.863 108.003,206.000 113.145 C 202.229 113.817,197.986 114.598,196.571 114.880 C 195.157 115.162,192.737 115.565,191.193 115.776 L 188.386 116.158 189.812 113.650 C 190.596 112.271,191.823 110.114,192.539 108.857 C 195.221 104.146,206.219 92.222,208.939 91.077 C 209.928 90.661,213.785 89.512,217.511 88.523 C 232.792 84.466,242.042 82.051,253.429 79.146 C 260.029 77.462,271.086 74.620,278.000 72.831 C 284.914 71.042,291.857 69.252,293.429 68.852 C 296.314 68.119,298.676 67.811,298.238 68.225 M350.839 69.000 C 350.814 69.598,349.380 71.429,348.937 71.429 C 348.453 71.429,348.466 69.439,348.952 68.952 C 349.471 68.434,350.861 68.469,350.839 69.000 M356.686 69.829 C 355.052 71.462,355.852 73.222,358.042 72.812 C 360.077 72.430,360.083 72.434,359.899 74.347 C 359.654 76.894,357.246 77.931,355.418 76.277 C 354.765 75.685,353.817 75.141,353.312 75.067 C 352.806 74.993,351.861 74.401,351.212 73.752 L 350.032 72.571 352.016 72.568 C 353.620 72.565,354.186 72.237,354.973 70.854 C 355.509 69.913,356.267 69.143,356.659 69.143 C 357.213 69.143,357.219 69.295,356.686 69.829 M127.616 71.106 C 125.676 71.441,123.877 71.928,123.617 72.189 C 123.358 72.451,123.788 72.517,124.573 72.338 C 125.358 72.158,128.162 71.754,130.805 71.439 C 133.448 71.124,135.719 70.757,135.852 70.624 C 136.289 70.187,131.223 70.484,127.616 71.106 M334.535 72.112 C 350.928 76.637,361.206 93.539,357.395 109.706 C 351.076 136.517,317.253 143.836,300.707 121.973 C 282.433 97.826,305.346 64.053,334.535 72.112 M115.286 72.420 C 113.793 72.538,112.571 72.905,112.571 73.235 C 112.571 73.566,112.978 73.680,113.475 73.490 C 113.972 73.299,116.094 73.139,118.190 73.134 C 120.861 73.128,121.744 72.960,121.143 72.571 C 120.671 72.267,119.771 72.060,119.143 72.112 C 118.514 72.164,116.779 72.302,115.286 72.420 M318.947 75.163 C 315.353 75.943,309.480 78.783,309.692 79.638 C 309.752 79.883,308.483 81.478,306.870 83.182 C 301.400 88.967,299.618 96.293,301.367 105.813 C 301.887 108.643,301.395 113.714,300.600 113.714 C 300.340 113.714,299.678 112.055,299.129 110.026 C 296.566 100.559,299.290 89.931,306.018 83.150 C 307.737 81.417,308.913 80.000,308.633 80.000 C 305.749 80.000,298.734 91.635,297.646 98.222 C 293.189 125.214,325.996 143.439,345.000 124.528 C 348.899 120.648,349.769 121.706,335.000 112.375 C 332.207 110.611,332.257 110.777,333.571 107.580 C 334.932 104.270,340.504 104.252,340.615 107.557 C 340.699 110.085,342.196 105.001,342.251 102.000 C 342.326 97.893,343.392 99.882,343.477 104.286 C 343.550 108.096,344.367 106.807,344.564 102.571 C 344.670 100.286,344.670 100.286,345.188 102.000 C 345.506 103.053,345.488 104.909,345.140 106.811 C 344.507 110.279,344.800 111.304,345.707 108.794 C 347.057 105.057,347.466 104.756,347.170 107.714 C 346.908 110.325,346.956 110.476,347.727 109.462 C 348.192 108.852,348.571 107.774,348.571 107.067 C 348.571 106.360,348.829 105.623,349.143 105.429 C 349.485 105.217,349.718 105.948,349.723 107.252 C 349.730 108.868,349.875 109.208,350.286 108.571 C 350.727 107.889,350.849 108.006,350.885 109.143 L 350.930 110.571 351.489 109.170 C 352.781 105.935,351.892 100.946,349.924 100.384 C 348.245 99.905,348.110 99.664,347.754 96.518 C 347.545 94.673,346.872 91.704,346.259 89.921 C 344.629 85.186,345.308 84.700,347.744 88.857 C 349.580 91.989,350.038 92.169,348.835 89.286 C 347.677 86.510,344.187 82.371,341.526 80.619 C 340.373 79.859,339.552 79.114,339.703 78.964 C 340.627 78.040,347.291 84.062,349.519 87.834 C 353.594 94.736,355.180 108.739,352.221 111.697 C 351.678 112.241,351.617 112.621,352.034 112.878 C 354.646 114.493,355.654 99.971,353.383 93.429 C 348.557 79.520,334.130 71.868,318.947 75.163 M80.518 76.308 C 93.995 79.485,104.571 93.425,104.571 108.010 C 104.571 111.439,103.640 110.296,103.290 106.436 C 100.296 73.417,51.823 67.571,45.195 99.429 C 44.365 103.419,43.450 105.028,43.437 102.520 C 43.352 85.363,62.253 72.003,80.518 76.308 M53.000 76.975 C 53.707 77.111,54.864 77.111,55.571 76.975 C 56.279 76.839,55.700 76.727,54.286 76.727 C 52.871 76.727,52.293 76.839,53.000 76.975 M290.577 78.714 C 286.816 88.060,284.738 97.250,283.889 108.286 C 283.527 113.000,283.170 116.940,283.097 117.042 C 282.628 117.692,278.421 114.591,274.188 110.475 L 269.233 105.658 264.902 106.051 C 259.690 106.523,259.726 106.758,264.133 100.966 C 270.309 92.849,275.762 87.581,282.676 83.055 C 286.191 80.754,289.227 78.611,289.424 78.293 C 290.039 77.297,291.005 77.650,290.577 78.714 M338.662 78.543 C 338.461 79.065,339.034 79.798,340.209 80.524 C 343.006 82.253,344.130 83.746,344.386 86.077 C 344.580 87.830,344.485 88.068,343.816 87.513 C 343.152 86.962,343.062 87.120,343.293 88.424 C 343.522 89.716,343.435 89.871,342.814 89.286 C 341.563 88.105,341.152 88.468,341.518 90.429 C 341.805 91.960,341.732 92.160,341.104 91.571 C 340.061 90.593,339.236 90.673,339.635 91.714 C 339.877 92.346,339.555 92.574,338.411 92.581 C 337.360 92.588,336.121 93.338,334.582 94.899 C 332.073 97.444,331.468 97.058,332.598 93.633 C 333.281 91.563,333.235 91.263,331.975 89.559 L 330.615 87.719 333.593 89.859 C 336.733 92.114,337.354 91.848,335.390 89.088 C 333.996 87.131,334.520 86.912,336.392 88.671 C 338.577 90.724,338.118 88.185,335.888 85.884 C 333.426 83.344,334.708 83.470,337.341 86.028 C 339.813 88.428,339.950 88.132,337.948 84.717 L 336.468 82.192 337.962 83.170 C 338.783 83.708,339.698 84.565,339.996 85.074 C 340.486 85.913,340.538 85.908,340.554 85.020 C 340.564 84.481,339.736 83.080,338.714 81.908 C 337.693 80.735,337.243 79.977,337.714 80.223 C 338.186 80.469,337.929 80.144,337.143 79.501 L 335.714 78.331 337.089 78.684 C 338.050 78.931,338.341 78.838,338.056 78.376 C 337.831 78.012,337.947 77.714,338.313 77.714 C 338.680 77.714,338.836 78.087,338.662 78.543 M56.257 79.317 C 54.103 81.143,51.296 82.915,51.010 82.629 C 50.590 82.209,50.553 82.240,53.714 80.380 C 56.288 78.867,57.276 78.453,56.257 79.317 M81.252 81.609 C 100.637 88.004,106.249 111.301,91.912 125.862 C 71.876 146.209,38.943 126.165,47.408 98.774 C 51.647 85.060,67.437 77.051,81.252 81.609 M316.819 81.084 C 317.590 81.386,317.717 81.645,317.238 81.941 C 316.145 82.617,317.028 83.374,318.581 83.092 C 320.351 82.771,320.464 83.735,318.714 84.231 L 317.429 84.596 318.720 85.321 C 319.769 85.910,319.876 86.189,319.291 86.809 C 318.717 87.418,318.716 87.624,319.286 87.833 C 319.679 87.977,320.000 88.432,320.000 88.844 C 320.000 89.255,320.415 89.751,320.921 89.946 C 321.558 90.190,321.672 90.518,321.290 91.007 C 320.361 92.196,319.439 95.429,320.030 95.429 C 320.328 95.429,320.571 95.055,320.571 94.597 C 320.571 93.437,323.908 92.920,326.641 93.656 C 328.948 94.277,331.690 95.949,330.456 95.982 C 330.078 95.992,330.383 96.663,331.135 97.474 C 334.512 101.118,333.865 108.376,329.971 110.527 C 329.359 110.866,328.696 111.363,328.500 111.633 C 328.303 111.902,327.574 111.942,326.879 111.721 C 325.742 111.360,325.679 111.439,326.251 112.506 C 326.769 113.475,326.624 114.107,325.453 115.961 C 324.665 117.210,324.251 118.373,324.533 118.548 C 325.644 119.234,332.000 119.592,332.000 118.968 C 332.000 118.621,330.671 118.263,329.000 118.160 C 325.881 117.967,325.933 117.906,330.478 116.431 C 334.791 115.032,340.709 118.205,337.571 120.234 C 335.899 121.316,332.847 122.085,333.330 121.302 C 333.542 120.959,332.613 120.576,331.050 120.362 C 327.349 119.854,326.163 119.910,326.571 120.571 C 326.766 120.886,327.537 121.143,328.286 121.143 C 329.034 121.143,329.806 121.400,330.000 121.714 C 330.200 122.038,329.720 122.286,328.891 122.286 C 328.087 122.286,327.429 122.514,327.429 122.792 C 327.429 123.814,334.117 124.531,334.814 123.583 C 334.995 123.338,336.641 122.022,338.472 120.660 C 341.986 118.045,343.634 117.815,340.807 120.333 L 339.143 121.815 341.000 120.893 C 342.021 120.386,342.857 119.720,342.857 119.414 C 342.857 118.549,343.975 118.755,345.411 119.884 L 346.716 120.910 345.197 122.598 C 340.842 127.436,336.798 129.112,334.959 126.842 C 334.144 125.834,333.725 125.721,332.557 126.193 C 331.779 126.507,330.629 126.949,330.000 127.174 C 329.077 127.505,329.352 127.712,331.429 128.248 C 336.715 129.613,332.699 131.118,324.838 130.720 C 321.998 130.576,319.105 130.153,318.409 129.780 C 316.902 128.974,316.668 127.675,318.143 128.304 C 318.693 128.538,320.686 128.821,322.571 128.933 C 324.457 129.044,325.614 128.992,325.143 128.816 C 324.671 128.641,323.191 128.106,321.853 127.629 C 319.359 126.738,319.090 125.750,321.319 125.669 C 322.526 125.626,322.429 125.559,320.016 124.781 C 319.300 124.550,319.294 124.436,319.979 124.013 C 320.635 123.608,320.649 123.354,320.057 122.640 C 319.135 121.529,319.703 120.582,321.319 120.535 L 322.571 120.499 321.286 119.982 C 319.983 119.459,319.378 116.571,320.571 116.571 C 320.886 116.571,321.134 115.993,321.123 115.286 C 321.082 112.709,319.537 116.637,319.155 120.286 C 318.659 125.031,318.270 126.857,317.754 126.857 C 317.512 126.857,317.636 124.993,318.029 122.714 C 318.832 118.063,318.684 116.971,317.730 120.514 C 317.383 121.803,317.001 122.857,316.882 122.857 C 316.764 122.857,315.423 122.339,313.905 121.705 C 311.166 120.562,311.155 120.562,312.571 121.692 C 313.357 122.319,314.282 122.837,314.626 122.844 C 315.996 122.872,316.988 124.854,316.715 127.018 C 316.411 129.427,316.040 129.454,311.896 127.363 C 309.492 126.151,308.638 125.143,310.014 125.143 C 310.530 125.143,310.853 124.950,310.732 124.714 C 310.610 124.479,310.071 123.321,309.534 122.143 C 308.996 120.964,308.251 120.000,307.878 120.000 C 307.358 120.000,307.357 119.843,307.872 119.328 C 308.388 118.812,308.814 118.900,309.701 119.702 C 311.873 121.668,310.870 119.443,308.483 117.001 C 306.118 114.582,306.110 114.579,306.557 116.286 C 306.804 117.229,307.059 118.705,307.125 119.568 C 307.191 120.430,307.632 121.587,308.107 122.139 C 309.761 124.065,309.971 124.749,308.699 124.068 C 305.094 122.139,301.831 116.720,302.544 113.847 C 302.757 112.988,302.979 110.829,303.037 109.048 C 303.148 105.663,303.729 104.352,304.539 105.661 C 304.801 106.085,305.283 106.266,305.611 106.064 C 305.939 105.861,306.367 105.954,306.562 106.271 C 306.774 106.614,307.411 106.385,308.141 105.705 C 308.866 105.030,309.786 104.699,310.397 104.892 C 310.982 105.078,311.429 104.936,311.429 104.565 C 311.429 104.134,312.016 104.038,313.143 104.286 C 314.960 104.685,315.630 103.714,313.857 103.251 C 313.126 103.060,313.213 102.972,314.181 102.923 C 315.223 102.871,315.430 102.619,315.152 101.743 C 314.712 100.357,316.209 97.245,318.071 95.675 C 321.113 93.110,317.984 91.541,314.301 93.785 C 312.800 94.701,312.512 94.761,313.117 94.031 C 313.557 93.501,314.643 92.692,315.530 92.233 C 317.703 91.109,317.571 90.242,315.286 90.628 L 313.429 90.941 314.857 89.686 L 316.286 88.431 313.821 88.663 C 311.707 88.861,311.499 88.790,312.359 88.161 C 312.910 87.758,313.569 87.429,313.824 87.429 C 314.078 87.429,314.286 87.171,314.286 86.857 C 314.286 86.543,313.900 86.286,313.429 86.286 C 312.957 86.286,312.571 86.029,312.571 85.714 C 312.571 84.732,311.102 85.085,308.863 86.604 C 307.140 87.774,306.786 87.866,307.094 87.065 C 307.510 85.979,305.736 87.240,304.170 89.143 C 303.775 89.623,303.457 89.720,303.447 89.363 C 303.425 88.588,305.597 85.702,306.956 84.702 C 307.499 84.302,308.360 83.558,308.869 83.049 C 310.690 81.228,314.673 80.244,316.819 81.084 M67.714 83.278 C 66.771 83.415,65.794 83.891,65.543 84.335 C 65.292 84.779,64.777 85.139,64.400 85.134 C 63.981 85.129,64.047 84.910,64.571 84.571 C 65.616 83.896,64.714 83.896,63.143 84.571 C 62.438 84.874,62.316 85.078,62.825 85.103 C 63.280 85.125,62.782 85.784,61.714 86.571 C 59.683 88.070,58.520 88.437,59.178 87.372 C 60.095 85.888,57.218 88.087,54.651 90.831 C 44.228 101.974,47.898 122.431,61.472 128.853 C 70.932 133.328,82.646 131.770,88.862 125.211 C 91.613 122.308,91.676 121.695,89.347 120.531 C 87.335 119.526,83.645 116.571,84.400 116.571 C 84.669 116.571,85.396 116.917,86.016 117.340 C 86.636 117.762,88.350 118.807,89.824 119.661 L 92.506 121.213 93.396 119.492 C 94.580 117.203,94.521 116.726,93.249 118.296 C 92.237 119.547,89.276 119.020,89.173 117.571 C 89.157 117.336,89.139 116.950,89.134 116.714 C 89.129 116.479,88.936 116.575,88.706 116.928 C 88.086 117.875,85.716 116.818,85.706 115.590 C 85.698 114.721,85.614 114.697,85.130 115.429 C 84.650 116.155,84.391 116.068,83.437 114.857 C 82.214 113.306,81.915 113.669,82.900 115.509 C 83.591 116.801,81.912 116.201,79.882 114.432 C 79.017 113.678,78.803 113.686,77.984 114.506 C 77.477 115.013,76.501 115.420,75.816 115.410 C 74.599 115.393,74.596 115.374,75.681 114.553 C 76.291 114.092,77.101 113.714,77.481 113.714 C 77.861 113.714,78.648 112.544,79.229 111.113 C 80.349 108.356,83.201 107.811,84.914 110.027 C 85.752 111.111,86.277 110.482,86.326 108.333 C 86.405 104.863,87.345 104.069,87.397 107.429 C 87.465 111.759,88.551 109.997,88.563 105.538 C 88.568 103.472,88.787 102.352,89.143 102.571 C 89.909 103.045,89.874 109.492,89.097 110.944 C 88.757 111.578,88.607 112.226,88.765 112.384 C 89.229 112.848,90.475 110.179,90.945 107.714 C 91.268 106.023,91.313 106.383,91.118 109.097 C 90.823 113.205,91.086 113.336,92.241 109.654 C 92.724 108.117,93.052 107.623,93.086 108.382 C 93.169 110.192,93.759 111.468,94.346 111.106 C 95.017 110.691,95.009 105.875,94.335 105.459 C 94.048 105.282,93.630 104.051,93.406 102.724 C 93.182 101.397,92.531 98.891,91.959 97.155 C 90.929 94.031,90.930 94.014,92.018 95.429 C 92.623 96.214,93.114 96.600,93.110 96.286 C 93.098 95.348,91.831 93.371,89.857 91.208 C 87.587 88.720,87.494 88.132,89.571 89.397 L 91.143 90.354 89.714 89.146 C 85.884 85.909,83.865 84.819,79.670 83.727 C 76.520 82.906,71.549 82.720,67.714 83.278 M85.274 88.297 C 88.012 90.306,89.345 92.883,88.058 93.678 C 87.683 93.910,87.562 94.539,87.782 95.112 C 88.126 96.009,88.021 96.052,86.925 95.465 C 85.751 94.836,85.701 94.891,86.076 96.399 C 86.436 97.844,86.382 97.924,85.523 97.216 C 84.704 96.541,84.571 96.561,84.571 97.359 C 84.571 97.932,84.093 98.286,83.317 98.286 C 82.627 98.286,81.352 98.966,80.484 99.798 L 78.906 101.310 80.024 102.732 C 81.376 104.450,81.575 108.137,80.303 107.882 C 79.795 107.781,78.949 108.730,78.160 110.286 C 77.294 111.995,76.229 113.134,74.981 113.683 C 73.786 114.208,73.217 114.797,73.412 115.305 C 73.580 115.743,73.202 116.756,72.573 117.556 C 70.789 119.824,71.095 120.561,73.857 120.649 C 75.193 120.692,75.707 120.839,75.000 120.975 C 73.426 121.278,73.290 122.286,74.823 122.286 C 76.597 122.286,76.747 123.328,75.010 123.581 C 73.455 123.807,73.462 123.820,75.429 124.310 L 77.429 124.809 75.714 125.172 C 73.951 125.545,73.943 125.536,77.000 126.650 C 77.837 126.955,77.768 127.077,76.571 127.397 C 75.311 127.734,75.480 127.867,78.000 128.525 C 80.353 129.139,80.655 129.354,79.714 129.738 C 77.960 130.455,68.238 130.370,66.598 129.623 C 64.981 128.886,64.561 127.645,66.143 128.278 C 66.693 128.497,68.686 128.777,70.571 128.898 L 74.000 129.118 71.714 128.317 C 70.457 127.877,68.947 127.497,68.359 127.472 C 67.504 127.437,67.423 127.267,67.958 126.622 C 68.473 126.002,68.457 125.711,67.891 125.361 C 67.368 125.038,67.568 124.791,68.577 124.510 C 69.932 124.133,69.939 124.111,68.714 124.057 C 67.132 123.987,66.857 121.719,68.429 121.706 C 69.283 121.698,69.304 121.616,68.571 121.143 C 67.172 120.239,66.858 120.472,66.840 122.429 C 66.827 123.780,66.685 124.051,66.317 123.423 C 65.375 121.816,67.432 115.429,68.891 115.429 C 69.344 115.429,69.714 115.171,69.714 114.857 C 69.714 114.543,68.974 114.286,68.070 114.286 C 67.166 114.286,66.101 113.894,65.703 113.415 C 65.091 112.678,65.146 112.602,66.062 112.921 C 67.065 113.270,67.062 113.233,66.008 112.415 C 65.152 111.749,64.591 111.679,63.722 112.129 C 62.098 112.972,62.121 112.908,62.894 114.380 C 63.576 115.678,63.564 115.687,62.467 114.714 C 60.889 113.315,60.489 113.464,60.931 115.286 L 61.312 116.857 60.104 115.429 C 58.665 113.728,58.451 114.573,59.811 116.587 L 60.765 118.000 59.240 116.615 C 57.534 115.066,57.087 116.011,58.363 118.466 C 58.965 119.624,58.898 119.611,57.435 118.286 C 56.024 117.008,55.893 116.977,56.188 118.000 C 56.369 118.629,56.692 119.914,56.907 120.857 C 57.121 121.800,57.687 123.021,58.165 123.571 C 59.367 124.954,58.194 124.827,56.347 123.375 C 53.943 121.484,52.428 118.043,53.029 115.838 C 53.305 114.827,53.419 113.066,53.282 111.925 C 52.992 109.503,53.619 108.917,55.666 109.696 C 56.520 110.020,57.143 110.038,57.143 109.739 C 57.143 108.814,59.536 108.393,60.063 109.225 C 60.424 109.795,60.556 109.670,60.563 108.753 C 60.571 107.497,62.328 106.474,63.935 106.788 C 64.455 106.890,64.604 106.624,64.369 106.011 C 63.816 104.569,65.493 101.199,67.060 100.603 C 67.830 100.310,68.629 99.797,68.835 99.464 C 69.311 98.694,75.813 98.663,76.286 99.429 C 76.947 100.499,78.263 100.004,78.628 98.548 C 78.876 97.561,78.669 96.739,77.979 95.977 C 76.554 94.403,77.534 94.584,79.803 96.315 C 81.974 97.971,82.293 97.461,80.506 95.190 C 78.882 93.125,79.452 92.751,81.342 94.641 C 83.496 96.795,83.224 95.315,81.000 92.781 C 79.661 91.255,79.475 90.842,80.333 91.301 C 80.987 91.651,81.854 92.337,82.260 92.826 C 83.061 93.791,84.000 94.007,84.000 93.226 C 84.000 92.958,83.357 92.045,82.571 91.197 C 80.228 88.668,81.103 88.563,83.857 91.042 C 85.792 92.783,85.403 91.320,83.429 89.429 C 80.039 86.181,81.320 85.396,85.274 88.297 M58.337 89.047 C 58.029 89.623,57.337 90.459,56.799 90.904 C 53.899 93.306,51.901 99.461,52.269 104.859 C 52.488 108.065,52.362 111.188,51.935 113.145 L 51.251 116.286 50.370 114.286 C 47.537 107.856,49.867 96.933,55.397 90.714 C 57.850 87.957,59.387 87.085,58.337 89.047 M65.831 88.571 C 66.191 88.571,66.145 88.910,65.714 89.429 C 65.132 90.131,65.171 90.286,65.930 90.286 C 67.007 90.286,67.208 91.406,66.143 91.475 C 65.750 91.501,66.200 91.875,67.143 92.306 C 68.227 92.803,68.490 93.101,67.857 93.117 C 66.787 93.145,66.428 94.286,67.490 94.286 C 67.838 94.286,67.974 94.671,67.793 95.143 C 67.596 95.656,67.789 96.000,68.274 96.000 C 68.925 96.000,68.967 96.335,68.486 97.714 C 67.804 99.670,67.802 99.671,66.290 98.727 C 65.363 98.148,64.839 98.215,63.297 99.108 L 61.429 100.191 62.504 98.967 C 63.095 98.294,64.063 97.590,64.655 97.402 C 66.502 96.816,65.227 96.056,63.316 96.604 C 60.859 97.308,60.714 96.936,62.984 95.754 L 64.857 94.779 62.286 95.105 L 59.714 95.432 61.286 94.441 C 62.150 93.896,62.857 93.288,62.857 93.090 C 62.857 92.892,62.150 92.826,61.286 92.944 C 59.939 93.128,59.878 93.081,60.857 92.620 C 61.486 92.323,61.666 92.062,61.257 92.040 C 60.849 92.018,59.692 92.436,58.686 92.969 C 54.835 95.009,54.444 94.336,57.658 91.198 C 59.777 89.129,62.823 87.854,64.475 88.345 C 64.894 88.470,65.504 88.571,65.831 88.571 M128.751 91.095 C 134.239 92.062,134.047 91.817,131.526 94.637 C 128.399 98.136,120.954 107.013,115.143 114.172 C 110.154 120.318,107.552 122.488,109.354 119.000 C 110.198 117.366,110.960 111.791,111.088 106.319 L 111.162 103.143 115.867 102.977 L 120.571 102.811 120.571 96.548 L 120.571 90.286 122.429 90.297 C 123.450 90.303,126.295 90.662,128.751 91.095 M34.774 93.484 C 33.081 97.443,31.889 97.678,18.143 96.768 C 12.587 96.400,11.164 95.795,14.143 95.066 C 15.007 94.854,15.843 94.488,16.000 94.253 C 16.157 94.017,19.629 93.291,23.714 92.638 C 35.831 90.703,35.960 90.713,34.774 93.484 M203.427 91.857 C 203.423 93.508,179.500 119.305,176.571 120.817 C 175.786 121.223,173.214 121.709,170.857 121.898 C 168.500 122.086,161.300 122.641,154.857 123.131 C 142.466 124.073,114.787 126.265,112.857 126.458 C 110.844 126.658,111.280 125.562,115.829 118.980 C 126.811 103.091,130.795 97.893,134.234 94.970 L 137.798 91.940 159.899 92.274 C 172.054 92.458,185.986 92.383,190.857 92.106 C 203.567 91.385,203.429 91.387,203.427 91.857 M313.302 91.778 C 313.653 92.129,310.743 94.857,310.017 94.857 C 309.560 94.857,312.127 91.507,312.619 91.460 C 312.802 91.443,313.110 91.586,313.302 91.778 M328.857 92.593 C 330.182 93.251,330.543 93.583,329.714 93.383 C 328.929 93.193,326.781 92.900,324.941 92.732 C 322.771 92.533,321.868 92.254,322.370 91.936 C 323.665 91.115,326.448 91.397,328.857 92.593 M318.286 93.974 C 318.286 94.117,317.663 94.857,316.901 95.618 C 316.139 96.380,315.199 98.063,314.811 99.359 C 314.018 102.004,313.143 102.471,313.143 100.248 C 313.143 98.540,313.955 96.806,315.600 95.000 C 316.625 93.874,318.286 93.240,318.286 93.974 M41.642 96.333 C 42.438 97.040,41.003 98.314,39.860 97.915 C 39.151 97.668,37.754 97.454,36.754 97.439 C 34.696 97.410,33.988 96.944,34.569 96.004 C 34.920 95.436,40.947 95.716,41.642 96.333 M322.164 97.228 C 320.418 97.867,318.286 100.930,318.286 102.800 C 318.286 109.246,326.394 111.943,329.699 106.596 C 333.041 101.189,328.108 95.055,322.164 97.228 M335.373 98.942 C 335.718 99.932,335.965 101.539,335.922 102.514 C 335.853 104.079,335.813 104.119,335.579 102.857 C 335.433 102.071,335.123 101.300,334.889 101.143 C 334.246 100.709,333.671 97.143,334.244 97.143 C 334.520 97.143,335.028 97.953,335.373 98.942 M95.739 98.857 C 96.827 104.189,96.569 111.051,95.154 114.429 C 94.919 114.989,94.983 115.429,95.300 115.429 C 97.020 115.429,97.719 103.890,96.252 99.714 C 95.810 98.457,95.579 98.071,95.739 98.857 M328.834 99.505 C 331.399 102.553,330.753 103.143,324.849 103.143 C 319.969 103.143,319.705 103.079,319.533 101.866 C 318.980 97.977,326.040 96.185,328.834 99.505 M340.717 102.714 C 340.566 103.736,340.182 104.571,339.864 104.571 C 339.521 104.571,339.431 103.844,339.643 102.786 C 339.839 101.804,340.016 100.454,340.036 99.786 C 340.071 98.604,340.085 98.602,340.533 99.714 C 340.786 100.343,340.869 101.693,340.717 102.714 M24.000 100.849 C 31.913 102.200,32.000 102.276,32.000 107.786 C 32.000 111.592,24.955 110.085,18.880 104.979 C 12.480 99.599,13.213 99.008,24.000 100.849 M38.000 102.944 C 40.151 104.609,40.191 104.690,38.666 104.333 C 37.607 104.085,37.174 104.160,37.414 104.549 C 37.881 105.304,37.370 105.305,35.962 104.551 C 35.296 104.195,34.857 104.176,34.857 104.504 C 34.857 104.803,35.127 105.138,35.457 105.248 C 35.854 105.380,35.793 106.075,35.276 107.305 C 34.233 109.786,33.714 109.069,33.714 105.143 C 33.714 100.464,34.365 100.130,38.000 102.944 M78.063 103.782 C 79.930 107.469,80.279 107.664,79.040 104.326 C 78.468 102.785,77.707 101.426,77.350 101.307 C 76.993 101.188,77.314 102.302,78.063 103.782 M68.632 103.372 C 66.536 105.330,66.333 107.419,67.975 110.112 C 71.171 115.354,79.481 110.788,77.120 105.086 C 75.586 101.385,71.617 100.583,68.632 103.372 M74.341 103.266 C 76.006 104.250,76.913 105.842,76.338 106.772 C 75.575 108.007,68.000 107.385,68.009 106.088 C 68.031 102.900,71.275 101.455,74.341 103.266 M294.362 110.857 C 301.169 137.180,334.565 144.763,351.618 123.858 C 353.804 121.178,357.143 114.939,357.143 113.534 C 357.143 113.042,357.410 112.474,357.737 112.272 C 359.618 111.109,354.981 122.212,351.854 126.360 C 333.455 150.764,292.242 136.191,292.659 105.429 L 292.705 102.000 293.201 105.143 C 293.474 106.871,293.996 109.443,294.362 110.857 M308.857 104.000 C 308.229 104.270,307.071 104.491,306.286 104.491 C 304.984 104.491,304.958 104.448,306.000 104.000 C 306.629 103.730,307.786 103.509,308.571 103.509 C 309.874 103.509,309.899 103.552,308.857 104.000 M21.700 109.749 C 22.380 110.478,33.659 119.367,36.540 121.445 C 38.862 123.120,39.543 123.409,39.227 122.585 C 38.373 120.358,38.164 116.724,38.820 115.498 C 39.735 113.788,40.210 114.259,41.949 118.602 C 42.776 120.667,44.608 124.077,46.020 126.178 L 48.588 130.000 45.865 130.187 C 36.082 130.859,37.242 131.695,23.714 114.218 C 22.771 113.000,20.735 110.395,19.190 108.430 L 16.379 104.857 18.890 107.143 C 20.271 108.400,21.536 109.573,21.700 109.749 M270.687 108.143 C 273.952 111.572,284.513 129.396,283.735 130.165 C 283.509 130.389,270.239 130.491,254.245 130.392 L 225.167 130.212 221.298 128.091 C 211.846 122.909,205.002 119.949,199.858 118.818 C 196.950 118.179,193.929 117.500,193.143 117.309 C 191.324 116.867,194.430 116.373,222.857 112.584 C 227.414 111.976,235.000 110.944,239.714 110.290 C 244.429 109.636,251.371 108.698,255.143 108.207 C 262.546 107.242,268.096 106.480,268.602 106.361 C 268.776 106.319,269.715 107.121,270.687 108.143 M37.429 108.237 C 36.486 108.993,35.609 109.508,35.480 109.381 C 35.038 108.946,37.319 106.857,38.231 106.860 C 38.845 106.862,38.582 107.312,37.429 108.237 M57.714 108.000 C 55.662 108.657,54.737 108.657,55.143 108.000 C 55.337 107.686,56.317 107.454,57.319 107.486 C 59.061 107.540,59.079 107.563,57.714 108.000 M326.114 108.209 C 326.313 108.408,325.518 108.571,324.347 108.571 C 323.176 108.571,322.363 108.337,322.540 108.051 C 322.885 107.492,325.514 107.609,326.114 108.209 M47.959 119.807 C 57.980 141.220,92.056 138.695,99.574 115.983 C 99.727 115.521,99.757 115.914,99.640 116.857 C 99.264 119.894,95.577 126.465,92.484 129.612 C 75.524 146.863,44.244 134.790,44.632 111.143 L 44.679 108.286 45.458 112.206 C 45.886 114.362,47.012 117.782,47.959 119.807 M314.418 109.458 C 313.155 110.342,313.154 110.346,314.284 111.559 C 315.870 113.260,315.160 113.626,313.429 112.000 C 311.700 110.376,311.184 110.710,312.021 112.912 L 312.645 114.554 311.180 113.178 C 309.429 111.533,309.294 112.161,310.851 114.714 C 311.474 115.736,311.819 116.571,311.617 116.571 C 311.416 116.571,311.717 117.086,312.286 117.714 C 312.855 118.343,313.577 118.857,313.891 118.857 C 314.206 118.857,314.037 118.387,313.517 117.812 C 312.251 116.413,312.324 115.845,313.714 116.286 C 314.984 116.689,315.222 116.022,314.181 114.981 C 312.780 113.580,314.290 113.660,316.159 115.085 C 318.591 116.940,318.618 116.938,319.343 114.857 C 319.745 113.703,320.324 113.143,321.113 113.143 C 321.758 113.143,322.286 112.916,322.286 112.638 C 322.286 111.911,320.091 111.441,319.865 112.120 C 319.570 113.003,315.429 111.051,315.429 110.029 C 315.429 108.962,316.611 108.873,317.715 109.857 C 318.397 110.465,318.403 110.422,317.760 109.571 C 316.827 108.339,316.052 108.313,314.418 109.458 M73.714 111.429 C 73.714 111.743,73.071 112.000,72.286 112.000 C 71.500 112.000,70.857 111.743,70.857 111.429 C 70.857 111.114,71.500 110.857,72.286 110.857 C 73.071 110.857,73.714 111.114,73.714 111.429 M330.682 112.304 C 329.301 113.519,327.429 114.199,327.429 113.485 C 327.429 113.103,331.100 110.876,331.714 110.885 C 332.029 110.889,331.564 111.528,330.682 112.304 M337.727 112.807 C 339.030 114.076,348.587 119.642,348.866 119.295 C 350.213 117.619,350.246 116.560,348.940 116.887 C 346.874 117.406,345.006 116.232,345.428 114.679 C 345.725 113.589,345.689 113.556,345.142 114.429 C 344.348 115.694,343.186 115.743,343.666 114.491 C 343.963 113.717,343.878 113.676,343.181 114.254 C 342.170 115.093,341.146 114.592,341.134 113.252 C 341.128 112.534,341.006 112.474,340.660 113.019 C 340.087 113.922,338.286 113.319,338.286 112.225 C 338.286 111.787,337.842 111.429,337.299 111.429 C 336.482 111.429,336.556 111.667,337.727 112.807 M308.020 113.848 C 308.041 115.177,309.658 118.538,309.694 117.328 C 309.705 116.958,310.083 116.572,310.534 116.470 C 311.132 116.335,310.902 115.783,309.676 114.420 C 308.108 112.674,308.001 112.637,308.020 113.848 M193.814 118.980 C 198.710 120.097,214.857 128.952,214.857 130.520 C 214.857 130.629,212.350 130.738,209.286 130.763 C 206.221 130.788,196.900 131.071,188.571 131.391 C 180.243 131.712,169.186 132.116,164.000 132.289 C 158.814 132.461,153.029 132.742,151.143 132.912 C 143.093 133.638,151.591 131.170,169.143 127.685 C 175.794 126.364,180.041 124.847,181.143 123.399 C 182.047 122.211,188.482 118.287,189.528 118.286 C 190.211 118.286,192.140 118.598,193.814 118.980 M89.691 121.496 C 91.912 123.583,82.884 129.236,80.613 127.180 C 80.069 126.688,79.323 126.286,78.955 126.286 C 77.550 126.286,78.368 125.152,80.143 124.639 C 81.164 124.344,81.633 124.080,81.185 124.052 C 80.737 124.023,81.625 123.108,83.158 122.018 C 86.068 119.949,87.888 119.803,89.691 121.496 M63.568 123.910 C 64.610 124.540,65.134 125.336,65.130 126.286 C 65.121 128.830,64.496 129.182,61.987 128.057 C 59.689 127.027,57.061 124.709,59.062 125.477 C 60.236 125.927,60.289 124.951,59.143 124.000 C 58.671 123.609,58.286 122.681,58.286 121.938 L 58.286 120.588 60.143 121.775 C 61.164 122.428,62.706 123.389,63.568 123.910 M84.344 122.325 C 83.118 123.246,82.407 124.000,82.763 124.000 C 83.119 124.000,84.250 123.236,85.277 122.302 C 87.643 120.150,87.222 120.160,84.344 122.325 M168.571 125.116 C 168.571 126.725,131.383 134.080,120.250 134.673 L 113.928 135.010 111.821 133.160 C 109.985 131.548,109.042 129.714,110.050 129.714 C 110.234 129.714,113.513 129.344,117.335 128.892 C 128.484 127.574,128.770 127.546,143.429 126.325 C 151.129 125.684,158.457 125.070,159.714 124.962 C 164.688 124.531,168.571 124.598,168.571 125.116 M328.286 125.143 C 328.480 125.457,329.588 125.696,330.748 125.674 C 332.448 125.642,332.635 125.539,331.714 125.143 C 330.110 124.453,327.860 124.453,328.286 125.143 " stroke="none" fill="#000000" fill-rule="evenodd"></path></g></svg>