<svg id="svg" xmlns="http://www.w3.org/2000/svg" xmlns:xlink="http://www.w3.org/1999/xlink" width="400" height="434.1614906832298" viewBox="0, 0, 400,434.1614906832298"><g id="svgg"><path id="path0" d="M159.317 0.724 C 107.839 13.055,88.398 25.902,74.409 56.832 C 71.853 62.483,68.010 68.584,63.043 74.874 L 61.180 77.234 60.891 90.325 C 60.487 108.680,60.674 163.044,61.155 166.690 C 61.542 169.632,61.513 169.706,60.095 169.349 C 39.664 164.222,21.501 186.540,27.569 209.317 C 30.359 219.790,44.229 243.528,53.155 253.106 C 55.766 255.907,64.672 267.175,65.046 268.152 C 65.226 268.621,67.085 269.859,69.178 270.903 C 71.270 271.946,74.257 273.861,75.815 275.159 C 79.582 278.294,81.962 278.903,92.081 279.323 L 100.621 279.677 100.621 283.232 C 100.621 285.187,100.887 288.191,101.213 289.906 C 101.538 291.622,101.981 296.202,102.196 300.084 L 102.589 307.143 97.295 311.030 C 91.672 315.159,84.826 319.027,79.963 320.821 C 78.125 321.500,75.893 323.072,74.063 324.979 C 70.470 328.720,68.121 329.977,62.235 331.305 C 55.900 332.734,52.514 334.119,46.509 337.741 C 43.646 339.467,35.435 343.825,28.261 347.425 C 7.625 357.780,0.009 363.957,0.002 370.342 C -0.001 373.267,0.625 373.292,2.167 370.429 C 6.590 362.215,45.658 338.284,61.180 334.279 C 63.913 333.573,67.335 332.689,68.785 332.314 C 70.614 331.840,72.419 330.632,74.685 328.365 C 76.938 326.110,80.549 323.687,86.335 320.546 C 90.947 318.043,96.486 314.744,98.645 313.215 C 100.803 311.687,102.674 310.542,102.803 310.670 C 103.583 311.451,101.468 316.394,98.402 320.955 C 95.518 325.245,94.965 326.459,95.503 327.321 C 96.303 328.603,94.083 332.941,91.366 335.404 C 90.423 336.258,87.187 339.190,84.174 341.920 C 81.161 344.650,75.622 349.381,71.866 352.433 C 59.314 362.633,53.909 368.786,56.677 369.725 C 57.104 369.870,61.675 366.025,66.835 361.180 C 71.996 356.336,78.843 350.273,82.053 347.707 C 89.696 341.596,94.501 336.904,96.755 333.350 C 98.673 330.325,99.385 330.194,99.370 332.867 C 99.360 334.512,99.131 335.004,96.028 340.043 C 94.267 342.903,94.251 343.006,95.252 345.105 C 96.713 348.168,96.556 348.798,93.944 350.360 C 88.876 353.392,87.326 355.904,90.528 355.897 C 93.159 355.891,106.075 352.336,109.593 350.649 C 116.171 347.496,120.795 341.237,123.209 332.218 C 124.157 328.675,125.193 325.291,125.510 324.698 C 125.827 324.105,126.105 322.148,126.127 320.350 L 126.166 317.081 127.050 318.944 C 127.537 319.969,130.179 325.699,132.922 331.677 C 138.723 344.321,140.318 346.300,144.273 345.770 C 148.245 345.237,149.327 346.085,155.849 354.839 C 159.247 359.400,162.465 363.495,163.001 363.940 C 165.193 365.759,163.744 369.237,160.543 369.838 C 154.784 370.918,159.960 376.168,173.709 383.191 L 178.571 385.675 175.466 385.684 C 164.473 385.715,154.610 380.879,143.168 369.848 C 137.213 364.108,133.835 361.610,133.066 362.379 C 132.494 362.951,151.957 381.808,154.896 383.530 C 158.038 385.372,163.277 387.246,167.080 387.888 C 168.922 388.199,171.066 389.315,173.694 391.329 C 175.832 392.968,178.573 394.667,179.785 395.105 C 183.698 396.520,181.014 400.178,173.912 403.106 C 163.843 407.258,164.720 408.915,176.677 408.334 C 182.610 408.046,186.190 408.132,187.623 408.599 C 190.058 409.393,198.388 410.312,208.510 410.905 C 215.044 411.287,215.677 411.443,218.927 413.476 L 222.386 415.640 219.112 419.385 C 211.384 428.224,208.077 432.421,208.411 432.962 C 209.844 435.280,214.220 431.635,223.000 420.807 C 226.324 416.708,232.165 409.860,235.979 405.590 C 239.794 401.320,244.737 395.412,246.965 392.461 C 250.119 388.282,251.440 387.010,252.936 386.711 C 255.793 386.140,255.774 386.192,250.035 394.652 C 245.012 402.056,243.727 404.974,245.497 404.965 C 246.240 404.961,247.570 403.243,256.993 390.108 C 261.013 384.505,261.377 384.178,265.480 382.497 C 270.647 380.379,270.575 380.332,268.683 384.611 C 264.075 395.030,260.548 408.075,262.338 408.075 C 263.507 408.075,266.045 402.197,270.240 389.780 C 273.631 379.741,274.305 378.515,276.553 378.305 C 277.266 378.238,277.115 399.137,276.325 409.745 C 275.590 419.624,275.810 422.360,277.341 422.360 C 278.042 422.360,278.270 421.512,278.298 418.789 C 278.319 416.825,278.442 413.960,278.571 412.422 C 278.700 410.885,278.994 402.162,279.224 393.038 L 279.642 376.449 281.126 375.477 C 283.276 374.068,283.008 373.068,280.590 373.482 C 278.921 373.767,279.092 373.602,281.575 372.528 C 284.061 371.453,284.534 370.995,284.319 369.869 C 284.055 368.488,291.243 365.343,292.661 366.219 C 294.292 367.228,292.801 402.579,290.483 417.827 C 287.855 435.122,287.938 434.161,289.063 434.161 C 292.026 434.161,297.093 371.935,294.649 365.565 C 294.425 364.981,294.611 364.597,295.120 364.597 C 295.673 364.598,296.017 365.507,296.120 367.237 C 296.448 372.761,300.831 384.630,307.233 397.327 C 311.566 405.920,313.116 402.172,309.112 392.788 C 304.915 382.953,302.371 376.581,299.665 369.127 L 297.589 363.410 299.848 362.014 C 301.091 361.246,303.002 359.832,304.096 358.871 L 306.086 357.124 313.280 366.096 C 320.871 375.564,321.435 376.150,322.022 375.200 C 322.571 374.312,319.029 368.766,313.713 362.190 C 311.124 358.987,308.754 356.023,308.446 355.604 C 308.070 355.092,309.251 352.574,312.035 347.954 C 317.898 338.222,319.011 335.490,320.820 326.380 C 321.700 321.948,323.353 315.528,324.494 312.112 C 326.266 306.808,326.607 304.812,326.833 298.447 C 327.123 290.251,330.403 278.686,336.256 265.217 L 338.820 259.317 338.820 241.427 L 338.820 223.536 341.925 220.798 C 343.634 219.292,345.464 218.049,345.994 218.036 C 347.311 218.004,348.447 216.762,348.447 215.355 C 348.447 214.714,349.405 212.184,350.576 209.734 C 351.747 207.284,353.040 203.463,353.450 201.242 C 354.499 195.557,354.451 195.652,356.205 195.652 C 357.283 195.652,358.012 195.167,358.480 194.139 C 359.466 191.975,358.755 190.683,356.579 190.683 C 354.848 190.683,354.710 190.501,354.337 187.733 C 352.986 177.706,345.618 164.708,340.333 163.031 C 339.243 162.685,339.130 162.029,339.128 156.014 C 339.126 150.479,338.920 149.042,337.886 147.345 C 337.204 146.227,336.646 144.265,336.646 142.985 C 336.646 137.498,331.177 121.839,322.827 103.416 C 304.214 62.352,303.505 61.134,291.120 48.914 C 266.235 24.361,233.452 5.288,208.628 0.919 C 202.582 -0.145,163.588 -0.300,159.317 0.724 M211.801 5.814 C 231.068 10.070,241.177 14.797,257.678 27.266 C 261.654 30.271,267.003 34.163,269.565 35.915 C 283.940 45.746,297.265 58.997,303.405 69.565 C 306.053 74.124,321.354 104.835,322.236 107.362 L 322.809 109.006 317.303 108.789 C 304.398 108.280,290.991 114.104,295.556 118.236 C 296.848 119.405,297.551 119.018,302.936 114.167 L 305.562 111.801 311.632 111.828 C 314.970 111.843,318.890 112.085,320.342 112.366 C 322.072 112.701,322.981 112.656,322.981 112.235 C 322.981 110.312,324.041 113.266,325.560 119.425 C 327.681 128.023,327.679 127.950,325.752 127.950 C 323.988 127.950,319.255 130.167,319.255 130.992 C 319.255 132.286,321.201 133.166,322.402 132.416 C 325.460 130.506,328.348 131.445,329.200 134.627 C 329.635 136.250,330.544 138.905,331.221 140.527 L 332.450 143.476 328.230 147.980 C 322.875 153.695,322.756 153.760,319.800 152.599 C 315.525 150.920,311.180 152.588,311.180 155.908 C 311.180 157.214,304.046 162.733,302.359 162.733 C 300.913 162.733,299.259 160.011,297.825 155.274 C 296.565 151.115,295.652 150.455,295.652 153.705 C 295.652 156.939,293.385 167.989,292.215 170.453 C 290.446 174.181,288.599 175.483,282.967 176.970 C 278.104 178.255,275.678 179.612,276.600 180.533 C 276.808 180.742,277.768 180.586,278.732 180.186 C 281.730 178.945,287.191 179.093,289.119 180.469 C 290.050 181.133,292.109 182.376,293.693 183.230 C 296.808 184.909,297.765 186.407,298.387 190.574 C 298.742 192.957,298.663 193.222,297.686 192.914 C 289.424 190.312,270.186 191.851,270.186 195.114 C 270.186 195.848,270.303 195.824,273.602 194.410 C 278.021 192.516,286.825 192.877,284.346 194.851 C 283.903 195.203,280.885 196.403,277.640 197.516 C 274.394 198.630,271.289 199.773,270.738 200.057 C 269.888 200.495,269.678 200.004,269.342 196.791 C 268.914 192.701,267.803 188.244,266.976 187.298 C 266.196 186.407,266.357 183.230,267.182 183.230 C 271.639 183.230,281.510 170.151,282.985 162.292 C 283.196 161.168,283.616 160.248,283.920 160.248 C 284.680 160.248,284.618 154.849,283.841 153.398 C 282.728 151.319,281.369 152.631,281.341 155.812 C 281.308 159.556,279.161 163.882,276.440 165.692 L 274.309 167.108 273.572 165.356 C 272.699 163.279,269.402 160.360,267.499 159.977 C 263.997 159.272,258.769 159.153,257.087 159.740 C 255.170 160.408,252.809 159.185,252.786 157.512 C 252.757 155.495,251.706 155.030,249.109 155.887 C 246.732 156.672,246.475 156.636,245.095 155.340 C 243.449 153.793,238.506 153.228,234.938 154.179 C 232.967 154.704,232.918 154.800,232.877 158.259 C 232.843 161.157,232.718 161.560,232.193 160.475 C 230.582 157.148,227.281 157.561,226.066 161.242 C 225.276 163.638,224.574 163.742,218.264 162.406 C 216.553 162.044,216.094 162.289,214.082 164.640 C 212.582 166.393,211.243 167.333,210.103 167.436 C 198.097 168.516,197.740 168.628,195.253 172.090 C 192.289 176.216,187.975 178.882,184.262 178.882 C 182.670 178.882,181.366 179.161,181.366 179.503 C 181.366 181.718,189.941 180.099,194.717 176.982 L 199.530 173.839 211.206 174.031 C 224.951 174.258,224.384 173.968,221.001 179.037 L 218.323 183.050 211.180 183.319 C 202.881 183.631,199.830 184.700,195.082 188.962 C 190.341 193.218,187.360 194.410,181.454 194.410 C 175.778 194.410,175.402 194.733,178.733 196.746 L 181.056 198.150 177.950 197.754 C 173.931 197.240,173.152 196.805,168.323 192.373 C 164.395 188.768,158.573 184.472,157.617 184.472 C 155.710 184.472,159.636 190.626,163.875 194.283 L 165.528 195.708 163.665 195.402 C 162.640 195.234,159.705 194.909,157.143 194.681 C 154.581 194.452,152.065 194.202,151.553 194.123 C 151.040 194.045,149.950 194.153,149.130 194.364 C 148.216 194.599,151.573 195.303,157.810 196.184 C 163.404 196.974,168.458 197.877,169.042 198.189 C 169.627 198.502,171.525 198.758,173.262 198.758 C 177.583 198.758,187.357 200.937,194.099 203.404 C 197.174 204.529,200.458 205.626,201.398 205.842 C 202.696 206.141,203.106 206.604,203.106 207.776 C 203.106 209.651,203.453 209.651,197.295 207.780 C 183.567 203.610,151.496 197.121,144.876 197.174 C 140.994 197.205,139.315 195.975,142.207 195.219 C 143.861 194.786,141.566 192.865,134.642 188.888 C 127.395 184.725,126.135 184.366,117.175 183.914 C 110.641 183.584,109.053 183.317,108.411 182.439 C 107.869 181.698,106.762 181.366,104.831 181.366 L 102.035 181.366 100.502 177.174 C 99.072 173.265,98.825 172.960,96.845 172.671 C 95.232 172.435,94.673 172.024,94.522 170.963 C 94.278 169.243,92.753 169.151,88.678 170.612 C 85.892 171.610,85.558 171.606,82.157 170.527 C 78.174 169.263,66.690 168.737,65.358 169.757 C 64.922 170.091,64.438 170.235,64.281 170.078 C 63.915 169.712,63.800 112.949,64.126 93.789 C 64.410 77.149,63.654 79.670,71.624 68.782 C 75.146 63.971,77.648 59.586,80.743 52.801 C 91.587 29.027,106.292 19.409,151.009 6.840 C 157.286 5.075,162.629 3.583,162.881 3.524 C 167.082 2.538,205.010 4.314,211.801 5.814 M220.670 113.119 C 218.884 114.905,220.544 115.528,227.085 115.528 C 233.005 115.528,233.540 115.430,233.540 114.352 C 233.540 112.403,222.448 111.341,220.670 113.119 M278.267 121.421 C 277.181 122.730,277.954 124.224,279.718 124.224 C 281.492 124.224,282.894 122.759,282.387 121.436 C 281.924 120.230,279.264 120.220,278.267 121.421 M206.511 129.831 C 205.136 132.056,207.189 132.322,224.463 132.153 C 240.835 131.992,241.304 131.953,241.304 130.745 C 241.304 129.305,207.387 128.413,206.511 129.831 M190.683 143.478 C 189.829 143.765,185.009 145.288,179.971 146.862 C 167.471 150.768,164.692 153.323,165.362 160.292 C 165.719 164.006,166.566 165.175,168.024 163.966 C 168.832 163.295,168.942 162.414,168.608 159.296 C 168.036 153.953,168.709 153.536,186.025 148.502 C 191.103 147.026,193.168 145.743,193.168 144.064 C 193.168 142.746,192.985 142.703,190.683 143.478 M335.093 161.550 L 337.578 162.727 335.404 162.376 C 313.838 158.890,300.530 171.336,301.348 194.226 C 301.471 197.656,301.327 199.717,300.988 199.376 C 300.203 198.587,300.423 186.688,301.292 182.919 C 305.150 166.204,322.185 155.434,335.093 161.550 M332.919 163.360 C 336.726 164.445,336.805 164.596,337.131 171.370 L 337.433 177.647 335.127 179.822 L 332.821 181.997 333.239 185.901 C 333.486 188.207,333.376 190.849,332.970 192.357 C 332.040 195.814,332.883 197.776,335.979 199.356 C 339.587 201.196,339.998 202.676,339.989 213.796 C 339.982 223.938,321.790 225.820,312.986 216.589 C 309.408 212.837,309.216 212.140,311.957 212.839 C 316.455 213.987,326.911 213.465,328.772 211.999 C 331.392 209.937,333.853 209.602,335.450 211.090 C 337.344 212.854,338.357 212.150,338.616 208.888 C 339.193 201.633,330.971 197.965,324.285 202.496 C 319.376 205.822,315.292 204.899,318.053 201.087 C 319.056 199.704,319.876 198.201,319.876 197.749 C 319.876 196.645,322.526 195.400,326.864 194.468 C 332.057 193.351,332.298 192.953,332.298 185.484 C 332.298 181.989,332.544 178.865,332.844 178.540 C 333.857 177.446,334.937 173.198,334.351 172.612 C 333.609 171.870,327.186 171.670,323.447 172.272 C 320.033 172.822,320.133 173.019,321.748 168.922 C 323.985 163.247,322.615 163.206,316.714 168.773 C 309.330 175.739,303.746 184.697,303.733 189.596 C 303.724 192.829,304.537 192.507,305.384 188.942 C 305.773 187.301,306.522 184.930,307.048 183.672 L 308.004 181.384 311.455 185.003 C 315.869 189.630,315.860 193.789,311.437 193.789 C 310.546 193.789,308.935 194.938,307.082 196.894 C 302.804 201.413,302.484 201.185,302.484 193.609 C 302.484 172.888,316.719 158.740,332.919 163.360 M341.733 168.813 C 345.471 172.950,347.745 176.751,349.359 181.559 C 351.429 187.726,351.382 187.925,348.292 186.024 C 346.840 185.130,343.835 183.510,341.615 182.423 C 339.394 181.336,337.480 180.393,337.360 180.327 C 337.241 180.261,337.485 179.173,337.902 177.910 C 338.319 176.646,338.620 173.553,338.571 171.036 C 338.470 165.798,338.800 165.566,341.733 168.813 M251.019 169.693 C 255.545 171.766,258.976 174.921,262.126 179.909 C 265.496 185.245,264.999 186.299,261.482 181.274 C 250.496 165.581,235.131 165.248,222.744 180.435 C 221.908 181.460,221.055 182.130,220.850 181.925 C 220.319 181.396,224.994 175.176,225.932 175.165 C 226.359 175.160,226.638 174.921,226.553 174.634 C 226.371 174.025,229.435 171.357,231.677 170.170 C 237.232 167.230,245.208 167.033,251.019 169.693 M62.422 171.184 C 70.338 172.609,74.993 174.202,79.897 177.161 C 98.471 188.369,128.450 198.664,142.682 198.723 C 154.566 198.771,179.810 203.687,198.880 209.666 C 202.671 210.854,206.221 211.693,206.769 211.529 C 207.316 211.366,209.337 211.090,211.259 210.917 L 214.755 210.602 215.157 213.115 C 215.378 214.497,216.237 217.297,217.065 219.336 C 218.841 223.707,218.259 224.869,213.697 226.054 C 212.313 226.414,210.091 226.991,208.760 227.336 C 206.274 227.981,205.358 229.107,205.987 230.745 C 206.721 232.660,216.720 232.017,219.266 229.892 L 221.405 228.106 224.921 231.756 C 241.566 249.033,267.433 234.947,269.389 207.544 C 269.800 201.772,270.300 201.132,275.646 199.526 C 289.830 195.266,299.988 196.320,300.004 202.053 C 300.006 202.803,300.425 204.217,300.936 205.195 C 301.446 206.174,301.863 207.911,301.863 209.055 C 301.863 210.487,302.243 211.340,303.082 211.789 C 304.723 212.667,308.041 217.552,309.839 221.739 C 310.646 223.618,311.970 226.693,312.781 228.571 C 313.593 230.450,314.264 232.966,314.274 234.161 C 314.304 237.712,315.481 241.066,318.145 245.197 C 321.197 249.927,321.129 252.204,317.839 255.494 C 316.673 256.661,314.704 259.396,313.464 261.572 C 309.329 268.828,309.671 268.604,302.346 268.841 C 296.260 269.038,295.517 268.918,288.179 266.550 C 283.920 265.175,278.758 263.750,276.708 263.384 C 274.658 263.018,271.444 262.306,269.565 261.802 C 267.686 261.297,264.865 260.881,263.296 260.877 C 257.044 260.861,252.174 256.379,252.174 250.640 C 252.174 244.236,256.136 237.627,258.699 239.754 C 261.212 241.840,273.913 239.707,273.913 237.200 C 273.913 236.270,269.262 235.411,264.206 235.407 C 258.932 235.404,257.333 235.849,250.537 239.218 C 247.040 240.952,246.324 241.085,241.842 240.833 C 238.781 240.662,235.913 240.870,234.161 241.391 C 229.461 242.789,224.471 240.733,221.111 236.015 C 219.437 233.664,218.357 233.592,218.925 235.870 C 219.388 237.725,221.464 240.764,224.441 243.944 C 226.925 246.598,231.799 246.788,237.189 244.442 C 241.615 242.516,251.211 241.003,249.638 242.479 C 249.495 242.612,243.090 246.922,235.404 252.055 C 219.282 262.822,218.651 263.358,216.066 268.510 C 212.807 275.005,206.417 283.596,199.393 290.924 C 195.709 294.768,192.222 298.826,191.645 299.941 C 190.071 302.986,189.222 316.121,190.657 315.234 C 190.935 315.062,191.353 316.441,191.585 318.298 C 191.817 320.155,192.496 322.318,193.094 323.105 C 195.357 326.080,196.948 329.814,195.953 329.814 C 194.740 329.814,194.736 333.601,195.945 336.957 C 199.495 346.812,189.580 349.162,184.721 339.617 C 182.853 335.947,182.779 336.325,185.737 334.458 C 189.074 332.351,188.413 331.677,183.013 331.677 C 168.455 331.677,154.235 321.711,158.107 314.222 C 160.781 309.051,157.975 304.501,151.428 303.395 C 149.654 303.095,148.787 302.487,147.755 300.816 C 146.001 297.978,143.126 296.201,141.374 296.871 C 137.376 298.400,128.988 302.737,127.332 304.130 C 126.277 305.018,125.355 305.640,125.284 305.512 C 125.213 305.384,124.866 304.753,124.512 304.109 C 124.158 303.465,123.643 303.046,123.368 303.177 C 121.673 303.988,111.446 272.891,112.726 270.819 C 113.739 269.180,111.762 270.494,109.008 273.290 C 104.480 277.887,102.315 278.511,92.382 278.078 C 82.998 277.670,80.007 276.969,77.224 274.525 C 76.142 273.575,73.519 271.871,71.395 270.740 C 67.640 268.738,62.238 263.251,59.480 258.637 C 58.887 257.644,56.975 255.155,55.232 253.106 C 34.995 229.312,24.871 205.735,28.942 191.883 C 33.971 174.771,44.881 168.027,62.422 171.184 M44.720 177.790 C 41.973 178.698,36.695 184.026,35.151 187.450 C 34.503 188.887,33.596 190.062,33.135 190.062 C 32.482 190.062,32.298 191.612,32.298 197.111 C 32.298 200.988,32.117 206.299,31.896 208.912 C 31.632 212.045,31.715 213.665,32.141 213.665 C 33.103 213.665,33.531 212.109,33.916 207.210 C 34.431 200.662,35.116 199.016,38.207 196.889 C 39.694 195.865,41.482 194.227,42.179 193.248 C 45.095 189.153,55.592 188.766,59.677 192.604 C 60.845 193.702,63.688 195.813,65.994 197.296 C 70.744 200.351,70.620 200.038,68.909 204.609 C 67.515 208.335,64.721 211.180,62.456 211.180 C 61.264 211.180,60.979 211.586,60.698 213.680 C 60.513 215.055,59.599 217.640,58.665 219.425 C 55.173 226.103,55.444 229.269,60.126 236.483 C 63.722 242.023,63.934 242.037,63.784 236.731 C 63.666 232.527,63.700 232.430,66.261 229.649 C 67.689 228.098,69.185 225.738,69.585 224.404 C 71.271 218.775,74.911 217.004,74.744 221.894 C 74.635 225.091,75.767 225.941,77.019 223.602 C 78.135 221.517,79.711 222.115,80.933 225.086 C 81.993 227.665,85.935 232.298,87.069 232.298 C 88.283 232.298,90.058 236.444,90.060 239.286 C 90.062 242.306,90.861 243.052,92.422 241.491 C 94.626 239.287,92.732 233.840,88.234 229.441 L 84.996 226.274 85.747 222.609 C 86.161 220.593,86.672 216.458,86.883 213.418 C 87.350 206.699,88.320 205.526,91.160 208.247 C 94.477 211.425,94.610 210.263,91.677 203.754 C 90.515 201.177,89.112 197.786,88.559 196.219 C 87.232 192.464,85.433 190.068,86.034 192.857 C 87.513 199.723,87.174 200.766,83.427 200.868 C 81.492 200.920,80.925 201.241,80.238 202.674 C 79.182 204.875,75.028 204.964,74.623 202.795 C 74.495 202.112,74.176 201.413,73.913 201.242 C 73.651 201.071,72.813 198.696,72.050 195.963 C 68.086 181.753,56.349 173.948,44.720 177.790 M162.733 181.478 C 162.733 187.793,185.415 195.845,189.463 190.967 C 190.812 189.342,189.445 188.958,181.366 188.693 C 173.307 188.430,171.173 187.844,170.496 185.710 C 169.523 182.647,162.733 178.945,162.733 181.478 M343.444 186.703 L 350.932 190.797 350.932 194.337 C 350.932 199.764,347.392 211.557,346.715 208.385 C 346.267 206.285,345.289 205.590,342.781 205.590 C 340.434 205.590,340.373 205.533,340.373 203.375 C 340.373 200.350,339.508 198.976,336.706 197.546 L 334.323 196.330 334.504 189.625 C 334.604 185.937,334.707 182.849,334.734 182.764 C 334.906 182.215,336.811 183.076,343.444 186.703 M218.695 188.252 C 218.026 189.760,217.459 190.539,217.435 189.983 C 217.375 188.597,219.374 183.997,219.672 184.836 C 219.804 185.207,219.364 186.744,218.695 188.252 M228.040 193.115 C 230.211 193.769,233.175 194.492,234.627 194.722 C 237.029 195.103,237.267 195.302,237.267 196.939 L 237.267 198.739 233.696 198.407 C 227.983 197.876,225.403 200.126,223.026 207.710 C 220.897 214.506,219.797 216.669,219.234 215.165 C 218.171 212.324,217.277 203.824,217.653 200.137 C 218.405 192.759,218.462 192.640,221.344 192.377 C 222.757 192.248,223.953 192.094,224.003 192.034 C 224.052 191.974,225.869 192.461,228.040 193.115 M357.764 192.857 C 357.764 193.370,357.345 193.789,356.832 193.789 C 356.320 193.789,355.901 193.370,355.901 192.857 C 355.901 192.345,356.320 191.925,356.832 191.925 C 357.345 191.925,357.764 192.345,357.764 192.857 M214.419 200.776 C 214.081 210.538,214.838 209.260,209.276 209.461 C 204.683 209.626,204.657 209.618,204.466 207.964 L 204.274 206.301 209.066 206.664 C 212.610 206.932,213.742 206.839,213.414 206.308 C 213.170 205.913,212.025 205.590,210.870 205.590 C 209.714 205.590,208.607 205.328,208.410 205.009 C 208.212 204.689,206.309 204.460,204.180 204.500 C 200.803 204.563,192.265 201.927,190.062 200.140 C 187.736 198.255,203.300 192.709,211.234 192.596 L 214.704 192.547 214.419 200.776 M217.144 194.067 C 210.070 222.254,235.995 247.300,255.663 231.280 C 259.858 227.863,260.213 229.301,256.056 232.875 C 241.653 245.258,222.241 235.632,216.506 213.264 C 215.030 207.507,215.330 192.547,216.922 192.547 C 217.254 192.547,217.354 193.231,217.144 194.067 M266.214 204.998 C 264.913 222.221,255.760 234.239,243.171 235.249 C 237.935 235.670,238.051 235.216,244.381 230.528 C 251.452 225.291,253.416 223.369,253.416 221.684 L 253.416 220.264 251.708 221.869 C 250.769 222.752,247.752 224.595,245.005 225.965 C 242.258 227.335,238.543 229.615,236.749 231.033 L 233.489 233.610 231.416 232.329 C 230.276 231.624,228.176 229.781,226.749 228.234 L 224.156 225.420 225.587 222.827 C 227.835 218.756,229.790 217.722,242.383 213.947 C 246.711 212.649,249.778 210.108,252.394 205.651 C 254.862 201.447,256.598 200.146,261.575 198.771 C 266.567 197.393,266.768 197.661,266.214 204.998 M344.634 209.922 C 344.551 212.268,344.175 213.340,343.070 214.378 L 341.615 215.744 341.615 214.176 C 341.615 213.314,341.312 211.740,340.943 210.680 C 340.147 208.397,341.087 206.894,343.334 206.856 C 344.628 206.834,344.734 207.086,344.634 209.922 M41.751 213.043 C 42.008 217.121,42.552 218.825,46.109 226.708 C 48.345 231.661,50.385 236.413,50.643 237.267 C 50.902 238.121,51.718 239.798,52.458 240.994 C 53.198 242.189,54.156 244.043,54.586 245.113 C 57.042 251.211,69.830 257.573,78.494 257.007 C 86.225 256.502,101.165 246.921,98.452 244.207 C 98.233 243.989,97.062 245.004,95.850 246.463 C 91.353 251.877,83.209 253.617,77.199 250.447 C 74.485 249.016,70.544 248.608,69.876 249.689 C 68.754 251.504,61.036 249.911,58.177 247.276 C 54.418 243.811,42.100 216.430,42.327 212.046 C 42.404 210.558,42.240 209.126,41.963 208.863 C 41.685 208.600,41.590 210.481,41.751 213.043 M169.955 209.188 C 169.609 209.749,176.918 214.600,193.922 225.094 C 198.746 228.071,200.000 228.268,200.000 226.050 C 200.000 220.927,172.307 205.384,169.955 209.188 M325.235 225.993 C 328.530 226.134,331.449 225.883,333.489 225.285 L 336.646 224.360 336.646 228.972 C 336.646 233.339,336.582 233.550,335.445 232.941 C 334.784 232.587,332.686 232.298,330.783 232.298 C 327.865 232.298,326.361 231.812,321.178 229.193 C 317.798 227.484,314.757 226.087,314.421 226.087 C 314.085 226.087,313.669 225.598,313.497 225.000 C 313.325 224.402,312.999 223.464,312.772 222.916 C 312.466 222.178,313.366 222.419,316.248 223.848 C 319.439 225.430,321.053 225.815,325.235 225.993 M102.482 233.696 C 102.479 236.354,100.436 239.618,98.466 240.113 C 96.778 240.537,96.303 241.615,97.804 241.615 C 99.426 241.615,103.055 237.861,103.708 235.508 C 104.567 232.416,104.511 231.677,103.416 231.677 C 102.780 231.677,102.484 232.316,102.482 233.696 M105.868 239.297 C 105.166 240.059,103.699 241.159,102.607 241.741 C 100.516 242.855,99.968 244.099,101.567 244.099 C 102.589 244.099,108.075 239.321,108.075 238.430 C 108.075 237.506,107.199 237.850,105.868 239.297 M249.598 255.841 C 250.424 258.599,258.431 266.248,261.986 267.675 C 263.112 268.128,264.430 269.264,264.914 270.199 C 265.398 271.135,267.620 273.337,269.853 275.091 C 272.086 276.846,273.913 278.394,273.913 278.531 C 273.913 280.076,272.882 280.745,270.506 280.745 C 269.047 280.745,266.850 281.165,265.624 281.677 C 262.548 282.962,259.866 282.847,258.385 281.366 C 256.665 279.647,255.498 279.808,253.453 282.048 C 251.963 283.679,251.502 283.868,250.423 283.290 C 247.881 281.929,246.050 282.440,245.071 284.783 C 244.572 285.978,244.032 286.957,243.871 286.957 C 242.639 286.957,241.569 285.903,240.976 284.107 C 239.604 279.952,236.109 281.309,234.512 286.617 C 232.622 292.897,227.950 294.171,227.950 288.407 C 227.950 286.126,226.644 286.880,224.878 290.181 C 222.830 294.008,221.507 294.799,219.879 293.171 C 218.172 291.464,216.013 291.610,214.060 293.563 C 212.797 294.826,212.422 294.968,212.422 294.184 C 212.422 293.625,212.691 293.168,213.018 293.168 C 214.330 293.168,216.823 289.575,217.756 286.343 C 219.438 280.513,221.812 277.188,227.114 273.241 C 228.874 271.930,232.068 268.712,234.210 266.089 C 237.502 262.061,247.241 253.416,248.488 253.416 C 248.699 253.416,249.199 254.507,249.598 255.841 M111.637 257.348 C 111.086 258.722,111.795 268.944,112.442 268.944 C 113.354 268.944,113.459 266.642,112.783 261.479 C 112.336 258.064,111.933 256.611,111.637 257.348 M319.226 281.485 C 319.255 284.408,318.324 286.006,317.637 284.215 C 317.435 283.689,315.899 282.275,314.225 281.071 C 310.597 278.465,310.297 276.756,312.993 274.059 C 313.990 273.062,315.151 271.014,315.572 269.508 L 316.337 266.770 317.768 272.671 C 318.554 275.916,319.211 279.883,319.226 281.485 M245.895 299.654 C 246.849 300.148,250.829 300.971,254.741 301.484 C 262.629 302.518,264.058 302.942,267.624 305.302 C 269.614 306.619,271.289 307.047,276.498 307.572 L 282.919 308.218 288.964 305.951 C 297.011 302.932,300.564 305.063,304.075 315.014 C 306.848 322.872,301.694 328.865,295.070 325.486 C 291.644 323.738,288.543 323.921,284.472 326.111 C 280.469 328.266,278.636 328.396,276.087 326.708 C 273.596 325.059,270.184 325.111,267.996 326.832 C 264.370 329.684,256.666 329.261,250.028 325.844 C 246.292 323.921,243.693 322.981,242.109 322.981 C 238.971 322.981,239.033 324.288,242.238 325.702 C 243.763 326.376,245.444 327.847,246.590 329.512 C 250.406 335.058,261.204 338.491,268.186 336.377 C 271.097 335.496,272.876 335.349,276.474 335.696 C 294.708 337.451,301.915 336.005,306.593 329.651 C 308.091 327.616,309.344 326.191,309.377 326.484 C 309.410 326.778,309.389 328.059,309.331 329.331 C 309.272 330.603,309.559 332.570,309.969 333.702 C 310.644 335.570,310.533 336.096,308.773 339.396 C 307.311 342.135,306.832 343.833,306.832 346.277 C 306.832 351.461,305.400 352.792,299.800 352.809 C 294.662 352.824,291.358 354.074,288.548 357.065 C 286.829 358.895,286.465 359.006,282.197 359.006 L 277.671 359.006 278.043 357.143 L 278.416 355.280 275.078 355.282 C 270.941 355.285,268.522 356.659,265.871 360.512 L 263.915 363.354 259.287 363.354 C 255.631 363.354,254.658 363.162,254.658 362.442 C 254.658 361.935,254.289 361.671,253.826 361.849 C 253.369 362.025,252.636 361.736,252.197 361.208 C 251.322 360.154,247.205 359.875,247.205 360.870 C 247.205 361.211,247.887 361.491,248.721 361.491 C 250.801 361.491,251.327 362.610,249.467 363.077 C 248.124 363.414,242.167 362.087,239.807 360.925 C 239.325 360.688,238.559 359.217,238.103 357.656 C 237.088 354.173,236.693 353.837,230.631 351.302 C 227.015 349.790,225.459 348.766,224.534 347.287 C 223.851 346.195,222.731 344.402,222.045 343.303 C 219.098 338.581,213.457 337.466,208.780 340.683 C 204.919 343.339,205.319 343.382,204.394 340.217 C 203.970 338.766,202.808 336.114,201.811 334.326 C 200.005 331.083,199.531 329.193,200.524 329.193 C 203.088 329.193,207.752 321.435,212.101 309.938 C 215.145 301.891,214.877 302.132,221.271 301.684 C 224.258 301.474,227.612 300.895,228.724 300.397 C 232.032 298.913,232.369 298.858,238.385 298.807 C 242.289 298.774,244.723 299.048,245.895 299.654 M320.517 342.845 C 320.002 343.163,320.948 344.154,323.384 345.850 C 325.383 347.242,328.416 349.476,330.124 350.815 C 334.490 354.235,335.135 354.507,344.421 356.846 C 356.322 359.844,358.588 361.630,361.058 369.963 C 363.276 377.445,371.227 384.727,380.565 387.828 C 384.388 389.098,387.746 391.950,393.767 399.043 C 399.791 406.138,402.226 404.969,397.126 397.430 C 392.326 390.334,389.961 388.607,378.467 383.807 C 369.108 379.899,364.039 374.402,360.868 364.720 C 358.892 358.689,353.795 355.853,340.373 353.316 C 336.937 352.667,335.870 352.123,333.211 349.662 C 327.907 344.755,322.299 341.743,320.517 342.845 M80.452 366.615 C 65.331 381.856,57.837 391.304,60.868 391.304 C 62.279 391.304,66.901 386.258,70.821 380.438 C 73.982 375.745,77.078 372.272,83.466 366.254 C 91.223 358.946,93.148 356.522,91.195 356.522 C 90.794 356.522,85.959 361.064,80.452 366.615 M253.416 368.985 C 257.003 369.380,264.130 369.892,269.255 370.123 C 278.537 370.540,278.561 370.545,275.776 371.451 C 271.472 372.851,256.086 372.701,251.207 371.211 C 247.653 370.126,242.607 367.158,245.652 367.945 C 246.335 368.121,249.829 368.589,253.416 368.985 M349.068 380.818 C 332.682 383.165,326.089 385.153,326.085 387.747 C 326.081 390.158,323.810 392.978,320.397 394.810 C 316.132 397.100,315.470 399.096,319.139 398.604 C 324.172 397.929,328.571 393.511,328.571 389.134 C 328.571 385.258,333.283 383.783,346.881 383.404 C 362.494 382.968,369.374 384.920,382.235 393.436 C 386.581 396.314,387.578 396.735,387.578 395.694 C 387.578 394.904,385.175 393.255,376.580 388.148 C 366.086 381.912,357.465 379.616,349.068 380.818 M193.386 387.912 C 197.131 391.989,195.942 395.473,191.064 394.714 C 185.526 393.852,178.679 391.689,177.109 390.307 L 175.466 388.859 178.571 388.836 C 180.280 388.823,182.478 388.395,183.456 387.884 C 184.435 387.374,186.181 386.957,187.338 386.957 C 188.735 386.957,189.441 386.662,189.441 386.080 C 189.441 384.599,191.016 385.331,193.386 387.912 " stroke="none" fill="#000000" fill-rule="evenodd"></path></g></svg>