<svg id="svg" xmlns="http://www.w3.org/2000/svg" xmlns:xlink="http://www.w3.org/1999/xlink" width="400" height="400" viewBox="0, 0, 400,400"><g id="svgg"><path id="path0" d="M101.719 48.869 C 97.520 50.316,95.886 51.378,94.931 53.281 C 94.105 54.930,93.220 55.869,91.819 56.588 C 90.566 57.230,88.351 60.512,85.961 65.265 C 84.785 67.605,84.630 67.782,84.072 67.433 C 83.557 67.112,83.338 67.171,82.641 67.824 C 81.416 68.970,81.193 69.552,80.922 72.321 C 80.608 75.523,80.202 77.349,79.657 78.005 C 79.218 78.534,79.192 78.630,79.110 80.025 C 79.084 80.468,78.640 81.469,78.123 82.249 C 76.695 84.405,76.439 86.291,76.859 91.579 C 77.208 95.974,77.724 101.665,77.783 101.771 C 77.799 101.800,78.445 102.565,79.219 103.471 C 79.992 104.378,80.625 105.418,80.625 105.784 C 80.625 107.119,79.678 109.648,79.111 109.828 C 78.457 110.036,78.530 111.802,79.215 112.352 C 79.435 112.528,79.671 112.950,79.740 113.289 C 79.837 113.762,80.101 113.896,80.871 113.860 C 82.177 113.800,82.195 114.464,80.936 116.203 L 79.996 117.500 80.734 117.500 C 81.140 117.500,82.117 117.008,82.905 116.406 C 84.730 115.013,84.650 114.973,84.630 117.266 C 84.611 119.414,84.942 121.563,85.292 121.563 C 85.615 121.563,86.729 120.287,87.198 119.382 C 87.530 118.740,87.630 118.696,87.783 119.122 C 87.885 119.405,88.345 119.931,88.804 120.291 C 89.292 120.673,89.863 121.627,90.175 122.582 C 90.902 124.808,91.246 125.434,93.129 127.969 C 94.901 130.355,96.116 132.808,96.422 134.621 C 97.117 138.737,99.145 143.624,101.275 146.319 C 103.407 149.016,103.332 149.121,96.412 153.150 C 73.928 166.242,70.161 171.748,75.691 183.438 C 76.382 184.898,77.506 187.711,78.188 189.688 C 78.872 191.668,80.010 194.183,80.725 195.291 L 82.022 197.301 82.218 201.541 C 82.424 205.976,82.818 207.829,85.213 215.625 C 86.405 219.504,87.612 222.375,89.008 224.654 C 90.692 227.402,90.755 227.979,89.525 229.341 C 87.991 231.039,85.117 232.500,83.310 232.500 C 81.994 232.500,81.737 232.633,80.447 233.979 C 79.289 235.188,78.861 235.441,78.107 235.362 C 76.582 235.202,75.211 235.858,73.579 237.528 C 71.401 239.757,67.279 241.546,64.294 241.558 C 63.559 241.561,62.951 241.767,62.670 242.109 C 62.423 242.410,61.967 242.974,61.657 243.363 C 61.158 243.988,60.717 244.091,57.804 244.265 L 54.514 244.461 53.683 246.215 C 52.794 248.091,51.120 254.145,50.778 256.719 C 50.470 259.030,46.974 271.401,45.964 273.750 C 45.483 274.867,44.936 276.344,44.748 277.031 C 42.844 283.984,42.987 283.749,40.665 283.754 C 36.927 283.762,34.784 285.458,32.768 290.000 C 31.362 293.167,31.213 294.289,32.001 295.781 C 32.768 297.234,32.663 298.275,31.491 300.822 C 31.120 301.629,31.355 302.472,32.206 303.386 C 33.186 304.438,33.318 306.666,32.532 308.895 C 31.518 311.773,31.841 313.405,33.792 315.246 C 35.114 316.494,35.052 319.553,33.576 325.958 C 32.964 328.611,32.345 331.414,32.199 332.188 C 32.054 332.961,31.705 334.578,31.425 335.781 C 30.540 339.582,30.517 339.922,31.061 341.069 C 32.036 343.123,35.142 344.477,37.268 343.775 C 39.163 343.150,39.598 342.215,41.714 334.219 C 42.169 332.500,43.219 328.633,44.047 325.625 C 44.875 322.617,45.843 318.609,46.198 316.718 C 47.180 311.480,48.416 309.265,48.433 312.713 C 48.441 314.529,52.328 314.568,59.325 312.823 C 61.525 312.274,63.032 311.341,64.010 309.924 C 65.299 308.054,65.667 307.773,69.531 305.704 C 74.722 302.924,80.307 299.630,82.208 298.226 C 85.352 295.903,90.412 292.500,90.720 292.500 C 91.868 292.500,90.234 302.678,88.401 306.948 C 87.604 308.805,87.091 310.546,86.971 311.803 C 86.791 313.683,86.735 313.789,85.564 314.447 C 83.996 315.328,83.125 316.746,83.125 318.417 C 83.125 319.922,82.713 320.836,81.663 321.662 C 80.583 322.511,80.000 323.840,80.000 325.451 C 80.000 326.531,79.851 326.963,79.375 327.260 C 78.902 327.555,78.748 327.994,78.743 329.060 C 78.736 330.529,78.047 332.217,76.708 334.044 C 76.274 334.635,75.831 335.479,75.724 335.919 C 75.616 336.359,75.208 337.020,74.817 337.387 C 74.425 337.755,73.942 338.663,73.742 339.406 C 73.542 340.149,72.723 341.633,71.923 342.704 C 70.429 344.704,67.709 350.324,68.076 350.653 C 68.189 350.754,72.500 350.730,77.656 350.600 C 82.813 350.471,93.359 350.215,101.094 350.032 C 108.828 349.849,117.547 349.629,120.469 349.542 C 123.391 349.456,130.070 349.309,135.313 349.216 C 140.555 349.123,146.109 348.984,147.656 348.906 C 149.203 348.829,156.234 348.681,163.281 348.578 C 170.328 348.475,176.253 348.342,176.448 348.282 C 176.643 348.221,184.237 348.075,193.323 347.956 C 202.410 347.837,209.966 347.627,210.115 347.489 C 211.604 346.114,209.255 340.012,205.824 336.339 C 202.273 332.538,200.247 329.204,199.840 326.489 C 199.550 324.559,199.280 324.244,196.712 322.846 L 194.531 321.659 194.623 319.579 L 194.715 317.499 192.347 316.015 C 190.386 314.786,190.012 314.424,190.172 313.906 C 190.872 311.638,190.707 310.112,189.443 307.152 C 186.453 300.152,186.018 297.736,187.623 297.065 C 188.243 296.806,188.750 296.463,188.750 296.302 C 188.750 296.142,189.381 295.089,190.152 293.963 C 191.503 291.990,192.171 290.272,193.274 285.938 C 193.558 284.820,193.922 283.474,194.083 282.947 C 194.883 280.318,193.299 277.114,188.954 272.578 L 187.682 271.250 188.222 268.828 C 191.425 254.466,192.435 246.881,192.486 236.788 C 192.521 229.775,194.069 221.029,196.261 215.460 C 199.080 208.300,203.213 201.081,205.032 200.139 C 209.365 197.899,212.281 197.923,215.469 200.226 C 223.821 206.260,226.922 207.553,234.441 208.136 C 241.032 208.647,246.965 209.779,253.004 211.678 C 254.914 212.278,258.359 213.053,260.660 213.399 C 269.290 214.696,270.949 214.614,275.963 212.647 C 277.582 212.012,280.383 211.107,282.188 210.636 C 287.352 209.289,298.304 203.758,304.917 199.156 C 309.178 196.191,310.694 195.667,316.030 195.317 C 324.585 194.757,328.406 192.776,335.824 185.054 L 339.618 181.106 343.324 180.896 C 347.464 180.661,353.182 180.100,354.375 179.812 C 354.805 179.708,356.563 179.509,358.281 179.371 C 364.869 178.839,368.750 177.277,368.750 175.157 C 368.750 171.670,365.675 170.103,361.378 171.401 C 357.496 172.573,341.454 173.316,340.752 172.356 C 339.464 170.595,341.453 168.771,348.281 165.446 C 350.859 164.191,353.953 162.579,355.156 161.864 C 356.359 161.149,358.188 160.063,359.219 159.450 C 364.259 156.458,366.145 155.023,366.724 153.738 C 368.139 150.601,364.757 148.447,360.558 149.809 C 359.821 150.048,358.843 150.330,358.383 150.434 C 357.924 150.539,356.909 151.113,356.127 151.709 C 354.257 153.137,351.505 154.509,349.202 155.160 C 346.997 155.785,342.275 158.227,339.219 160.324 C 336.737 162.027,335.861 162.309,335.687 161.461 C 335.510 160.595,336.877 159.309,341.369 156.116 C 342.956 154.989,351.524 148.644,354.633 146.295 C 359.729 142.443,358.525 137.758,352.436 137.744 C 349.888 137.738,341.498 142.915,336.556 147.544 C 336.123 147.949,334.714 149.214,333.425 150.354 C 332.136 151.495,330.178 153.358,329.074 154.495 C 326.989 156.642,326.087 156.999,324.667 156.239 C 323.024 155.360,325.313 150.409,330.802 142.969 C 331.182 142.453,331.929 141.159,332.462 140.094 C 332.995 139.028,333.995 137.635,334.684 136.997 L 335.938 135.837 335.938 133.082 C 335.938 129.807,335.534 129.342,332.504 129.123 C 327.754 128.780,326.184 130.132,322.326 137.886 C 319.857 142.848,316.112 148.911,313.566 152.066 C 312.996 152.772,311.816 154.664,310.943 156.270 C 305.076 167.068,294.589 172.830,286.973 169.440 C 282.759 167.563,273.112 166.344,271.708 167.509 C 270.629 168.404,269.940 170.349,269.926 172.538 C 269.910 175.092,269.593 175.482,267.166 175.939 C 265.044 176.338,262.444 177.166,262.031 177.574 C 261.825 177.778,261.984 177.801,262.500 177.643 C 268.734 175.729,270.267 175.596,273.341 176.705 C 277.648 178.258,281.795 179.057,286.661 179.271 L 291.290 179.474 292.065 181.005 C 292.492 181.847,293.257 182.970,293.764 183.502 C 294.872 184.661,294.904 185.002,293.984 185.858 C 293.320 186.477,287.328 189.992,286.913 190.007 C 286.806 190.011,286.367 190.289,285.938 190.625 L 285.156 191.236 286.517 191.243 C 287.265 191.247,289.909 191.093,292.393 190.902 C 297.503 190.509,297.504 190.509,296.584 191.996 C 294.712 195.025,290.091 198.039,287.883 197.671 C 286.762 197.484,286.669 197.541,285.372 199.207 C 284.632 200.159,284.119 200.938,284.234 200.938 C 284.348 200.938,286.972 200.436,290.064 199.822 C 295.592 198.726,296.709 198.634,295.261 199.396 C 294.860 199.607,293.351 200.687,291.908 201.796 C 284.255 207.678,270.878 212.522,265.601 211.322 C 262.151 210.537,255.838 208.563,253.219 207.451 C 251.219 206.601,249.699 206.176,248.219 206.054 C 246.368 205.901,245.988 205.759,245.275 204.953 L 244.457 204.028 242.463 204.703 C 235.791 206.960,224.735 203.889,222.163 199.064 C 220.911 196.715,218.413 193.982,214.736 190.938 C 211.906 188.594,211.906 188.594,211.718 186.875 C 211.373 183.722,211.896 184.363,205.078 178.743 C 202.696 176.780,202.698 176.829,204.966 175.846 C 206.142 175.336,207.117 174.641,207.666 173.921 C 208.712 172.550,208.632 172.438,206.915 172.874 C 205.295 173.285,202.186 172.815,199.025 171.680 C 197.576 171.160,196.285 170.938,194.718 170.938 C 190.871 170.937,186.959 169.190,183.232 165.809 C 181.536 164.269,181.152 164.063,179.990 164.063 L 178.673 164.063 178.809 165.708 C 178.990 167.886,180.062 169.948,182.260 172.347 C 183.251 173.429,184.063 174.439,184.063 174.591 C 184.063 175.544,178.434 177.888,175.234 178.269 C 173.164 178.515,173.177 178.474,174.214 181.406 C 175.758 185.775,175.008 188.082,169.783 195.034 C 165.016 201.377,165.250 200.724,163.616 212.220 L 162.222 222.031 161.189 222.813 C 159.280 224.256,156.944 226.909,155.968 228.741 C 155.420 229.769,154.174 231.322,153.102 232.315 L 151.205 234.071 152.818 233.435 C 157.469 231.602,164.023 226.622,170.236 220.199 C 172.171 218.199,173.807 216.562,173.871 216.563 C 174.728 216.563,177.022 224.347,177.491 228.843 C 178.147 235.142,179.915 238.867,181.695 237.700 C 182.622 237.093,182.623 236.507,181.703 232.344 C 180.283 225.915,179.176 210.938,180.121 210.938 C 180.570 210.937,182.813 213.078,182.813 213.507 C 182.813 214.404,183.406 213.486,183.581 212.318 C 183.699 211.530,183.986 210.346,184.219 209.687 C 184.573 208.683,184.574 208.219,184.222 206.823 C 183.134 202.498,182.849 193.480,183.725 191.093 C 183.931 190.532,184.636 189.796,185.479 189.263 C 186.254 188.773,187.037 188.093,187.219 187.753 C 187.801 186.666,187.851 187.356,187.361 189.705 C 187.099 190.961,186.922 192.026,186.968 192.072 C 187.014 192.118,188.475 190.827,190.216 189.203 C 193.751 185.906,193.648 185.948,195.509 187.039 C 197.013 187.920,198.129 189.397,199.794 192.710 L 200.920 194.950 199.824 195.913 C 199.008 196.629,198.423 196.875,197.531 196.875 C 195.315 196.875,191.291 202.645,192.597 203.951 C 192.684 204.038,193.182 203.887,193.705 203.617 C 194.356 203.280,195.512 203.125,197.367 203.125 L 200.078 203.125 199.882 204.105 C 199.584 205.597,197.305 210.617,195.837 213.017 C 193.906 216.173,193.743 216.655,193.103 221.094 C 192.780 223.328,192.232 226.984,191.885 229.219 C 191.538 231.453,191.111 235.953,190.937 239.219 C 190.146 254.018,189.158 260.479,186.396 268.906 C 184.414 274.953,184.814 274.708,175.938 275.297 C 171.472 275.594,165.339 276.522,159.219 277.828 C 157.500 278.194,155.900 278.517,155.664 278.544 C 155.373 278.578,155.043 277.795,154.644 276.123 C 154.319 274.764,153.570 272.582,152.979 271.273 C 149.800 264.233,151.779 260.704,159.230 260.121 C 161.431 259.949,161.945 259.782,163.672 258.677 C 165.591 257.448,166.303 256.600,164.922 257.188 C 162.457 258.236,156.563 259.324,156.563 258.729 C 156.563 256.538,160.235 253.124,163.281 252.483 C 164.313 252.267,165.859 251.769,166.719 251.376 C 167.578 250.984,170.461 250.068,173.125 249.340 C 178.782 247.795,178.903 247.724,177.685 246.669 C 176.937 246.022,176.550 245.910,175.497 246.041 C 174.794 246.127,172.958 246.352,171.417 246.539 C 169.877 246.726,166.735 247.453,164.435 248.154 L 160.254 249.429 159.502 248.722 C 158.149 247.451,158.649 243.390,160.265 242.526 C 160.579 242.358,162.300 241.922,164.090 241.558 C 167.828 240.797,169.528 240.116,170.601 238.949 C 171.509 237.962,171.256 237.915,169.529 238.751 C 166.604 240.167,158.075 241.572,156.360 240.920 C 155.934 240.758,154.732 240.625,153.690 240.625 C 152.181 240.625,151.469 240.442,150.194 239.725 C 149.314 239.230,148.084 238.734,147.460 238.624 C 146.837 238.514,145.485 237.858,144.456 237.167 C 142.355 235.756,138.133 234.693,134.579 234.681 C 133.303 234.676,132.183 234.455,131.250 234.024 C 130.477 233.666,128.648 233.129,127.188 232.829 C 124.804 232.340,124.459 232.179,123.828 231.252 C 122.608 229.461,123.309 228.338,124.750 229.778 C 125.450 230.478,128.587 231.517,128.939 231.166 C 129.024 231.080,128.735 230.482,128.297 229.837 C 127.182 228.194,127.264 226.884,128.638 224.401 C 129.865 222.184,129.862 222.206,129.692 216.250 C 129.540 210.903,131.851 205.623,136.258 201.250 C 141.928 195.624,147.440 194.270,156.003 196.400 C 160.191 197.442,161.653 197.248,164.346 195.298 C 168.103 192.576,171.144 182.023,168.859 179.638 C 167.530 178.251,169.796 176.689,173.707 176.296 C 178.753 175.789,178.590 168.185,173.428 163.316 C 167.614 157.831,163.143 158.693,162.439 165.434 C 162.294 166.828,162.094 168.631,161.994 169.440 C 161.712 171.744,162.546 172.696,165.004 172.873 C 167.287 173.038,168.104 173.644,167.583 174.786 C 167.211 175.602,167.537 175.536,159.531 176.423 C 154.076 177.027,153.978 177.055,152.271 178.466 C 148.879 181.271,144.153 183.068,134.375 185.270 C 126.329 187.082,122.040 188.843,120.879 190.810 C 120.060 192.198,119.836 192.103,118.180 189.663 C 116.953 187.857,116.625 187.585,114.898 186.947 C 113.843 186.556,112.204 185.616,111.255 184.856 C 110.307 184.096,108.585 182.811,107.427 181.999 C 98.561 175.777,89.314 187.498,91.688 201.950 C 92.685 208.021,92.261 210.904,90.062 213.011 L 88.663 214.352 88.822 216.336 C 89.013 218.713,89.854 220.740,91.333 222.382 C 92.258 223.409,92.458 223.904,92.643 225.625 C 92.764 226.742,93.001 228.198,93.170 228.860 C 93.775 231.222,93.155 230.257,90.047 224.000 C 85.298 214.440,84.091 210.389,83.782 202.969 C 83.563 197.716,83.407 197.108,81.701 194.844 C 81.099 194.045,78.125 186.842,78.125 186.184 C 78.125 185.698,81.960 189.892,82.160 190.597 C 82.706 192.522,89.938 179.995,91.532 174.362 C 92.684 170.293,93.178 168.955,94.258 166.980 C 95.521 164.674,95.540 164.465,94.525 164.003 C 93.586 163.575,91.875 164.927,91.875 166.098 C 91.875 167.041,90.426 168.364,89.933 167.871 C 89.355 167.293,89.178 167.403,88.311 168.883 C 87.096 170.957,83.438 172.628,83.438 171.109 C 83.438 170.452,82.477 170.253,81.753 170.760 C 79.356 172.437,79.111 173.275,80.911 173.635 C 81.723 173.798,81.792 173.892,81.472 174.404 C 81.160 174.904,81.298 175.181,82.438 176.343 C 84.108 178.044,83.015 179.375,79.947 179.375 L 78.998 179.375 79.968 178.270 C 81.207 176.858,81.216 176.907,79.400 174.944 L 77.862 173.281 76.993 175.156 C 76.016 177.267,75.924 178.644,76.640 180.469 C 77.204 181.906,77.693 184.321,77.357 184.008 C 77.232 183.892,76.503 182.275,75.736 180.414 C 72.790 173.272,74.172 170.240,83.547 163.281 C 85.399 161.906,87.782 160.094,88.843 159.255 C 93.772 155.353,101.325 150.938,103.069 150.938 C 103.973 150.938,105.512 152.892,107.538 156.616 C 109.996 161.135,110.021 161.250,108.521 161.250 C 107.022 161.250,106.563 161.686,106.561 163.109 C 106.559 164.997,105.558 166.250,104.052 166.250 C 100.807 166.250,99.343 168.516,100.371 171.946 C 101.148 174.539,103.118 175.662,104.723 174.426 C 107.074 172.618,108.974 172.073,113.723 171.847 C 121.262 171.488,127.675 169.444,131.494 166.182 C 132.402 165.407,133.583 164.647,134.119 164.493 C 134.654 164.339,135.381 163.828,135.732 163.357 L 136.372 162.500 135.733 161.641 C 134.945 160.581,133.579 160.405,131.122 161.047 C 130.161 161.298,129.309 161.395,129.227 161.264 C 129.013 160.916,129.392 160.625,130.059 160.625 C 131.122 160.625,131.407 159.305,131.015 156.202 C 130.609 152.981,130.607 152.987,132.829 148.692 C 136.661 141.286,136.599 137.897,132.727 143.070 C 128.412 148.834,123.734 153.127,120.413 154.369 C 114.849 156.451,108.485 153.820,105.540 148.221 C 104.924 147.051,103.728 145.232,102.882 144.178 C 101.989 143.066,101.196 141.689,100.993 140.897 C 100.800 140.146,100.225 139.048,99.715 138.457 C 99.195 137.855,98.355 136.139,97.803 134.551 C 96.944 132.082,94.140 126.050,93.435 125.156 C 91.681 122.934,88.750 114.282,88.750 111.329 C 88.750 107.959,91.231 101.159,92.758 100.341 C 93.546 99.920,96.550 99.900,97.188 100.313 C 97.559 100.553,97.495 100.617,96.875 100.623 C 92.790 100.664,88.749 107.196,92.211 108.163 C 93.193 108.438,98.252 108.487,99.766 108.237 C 101.933 107.879,100.963 107.522,97.578 107.432 C 94.457 107.350,94.219 107.299,94.219 106.719 C 94.219 105.997,95.766 105.756,101.645 105.563 L 105.009 105.453 105.302 106.514 C 105.526 107.325,105.489 107.681,105.141 108.028 C 104.892 108.278,104.688 108.705,104.688 108.978 C 104.688 109.251,104.128 110.216,103.444 111.122 C 99.871 115.854,99.817 119.156,103.261 122.483 C 104.721 123.895,104.692 124.050,102.545 126.357 C 100.016 129.076,99.799 130.489,101.409 133.750 C 101.791 134.523,102.336 136.211,102.620 137.500 C 103.549 141.708,106.938 146.719,109.790 148.099 C 112.438 149.381,119.068 149.690,119.504 148.551 C 120.029 147.184,117.503 146.099,114.327 146.326 C 111.202 146.550,108.417 144.541,105.800 140.175 C 104.215 137.530,104.212 135.849,105.796 137.924 C 107.169 139.723,108.750 140.031,108.750 138.500 C 108.750 137.071,109.015 137.008,113.812 137.287 C 118.944 137.586,118.412 137.404,118.655 138.946 C 119.028 141.307,121.200 141.430,122.083 139.141 C 124.815 132.057,118.977 126.563,108.720 126.563 C 105.978 126.563,105.649 126.333,106.166 124.783 C 106.377 124.149,106.780 123.823,107.680 123.555 C 109.624 122.977,111.691 122.005,112.149 121.453 C 112.626 120.878,112.414 120.000,111.798 120.000 C 110.918 120.000,106.941 117.839,106.284 117.004 C 105.415 115.898,105.569 115.164,107.201 112.646 C 109.186 109.582,110.472 103.626,109.671 101.199 C 108.481 97.593,102.739 94.388,97.438 94.371 C 94.697 94.362,94.710 94.379,94.896 91.141 C 95.117 87.287,95.484 86.771,98.156 86.563 C 99.930 86.424,100.167 86.328,100.255 85.710 C 100.489 84.064,104.570 82.087,106.515 82.677 C 108.375 83.241,108.162 83.276,109.531 82.188 C 110.957 81.055,112.098 80.991,114.553 81.910 C 115.898 82.413,116.483 82.494,117.016 82.251 C 117.607 81.982,118.022 82.147,119.694 83.310 C 121.513 84.575,121.830 84.688,123.601 84.688 C 125.131 84.688,125.645 84.816,126.094 85.313 C 126.765 86.055,127.586 86.118,128.125 85.469 C 129.684 83.591,133.262 87.653,136.419 94.885 C 137.796 98.039,137.794 98.597,136.406 99.416 C 135.245 100.102,134.987 100.625,135.811 100.625 C 139.078 100.625,139.745 106.863,136.561 107.630 C 135.386 107.913,135.141 108.102,135.062 108.783 C 134.953 109.717,136.342 110.524,137.451 110.172 C 138.367 109.881,139.374 113.304,139.422 116.871 C 139.428 117.330,139.932 118.190,140.653 118.973 C 142.313 120.773,142.223 122.036,140.247 124.709 C 139.274 126.026,139.134 128.829,140.023 129.219 C 140.879 129.595,141.804 132.100,142.092 134.826 C 142.453 138.228,146.249 140.531,148.636 138.796 L 149.531 138.145 155.313 141.037 C 161.210 143.988,165.888 146.087,172.054 148.549 C 176.776 150.434,178.073 151.119,179.531 152.494 C 180.668 153.567,180.980 153.690,182.969 153.852 C 185.962 154.096,188.075 154.792,189.780 156.093 C 192.032 157.813,193.854 158.097,196.087 157.075 C 197.077 156.621,198.187 156.239,198.553 156.225 C 198.977 156.210,199.059 156.137,198.778 156.026 C 198.536 155.931,197.198 156.030,195.805 156.246 L 193.272 156.640 191.818 155.659 C 189.900 154.365,188.222 153.800,185.337 153.477 C 183.054 153.221,180.765 152.340,178.750 150.939 C 174.944 148.295,164.170 143.039,158.125 140.878 C 155.042 139.775,151.744 138.169,150.625 137.223 C 149.791 136.518,149.840 136.409,151.407 135.466 C 151.856 135.196,151.875 135.030,151.541 134.295 C 151.127 133.388,151.398 132.068,152.904 127.656 C 153.545 125.780,153.776 120.857,153.497 115.000 C 153.130 107.278,155.102 90.772,156.622 88.852 C 156.804 88.621,156.670 86.466,156.261 83.070 C 155.118 73.571,154.887 72.720,152.910 70.744 C 152.070 69.903,151.875 69.464,151.875 68.407 C 151.875 67.150,150.287 65.000,149.359 65.000 C 148.803 65.000,148.702 63.500,149.193 62.549 C 149.872 61.237,149.836 61.117,148.633 60.682 C 147.985 60.447,147.113 59.681,146.368 58.692 C 144.754 56.549,142.125 55.158,139.688 55.157 L 137.969 55.156 137.097 53.438 C 136.244 51.757,136.197 51.721,135.017 51.821 C 133.945 51.911,133.619 51.750,132.109 50.383 L 130.408 48.843 127.470 48.652 C 121.152 48.243,117.738 48.371,116.719 49.054 C 115.553 49.837,112.970 49.899,111.318 49.185 C 109.706 48.488,103.423 48.281,101.719 48.869 M117.122 52.032 C 121.625 54.091,122.710 55.150,123.598 58.359 C 123.915 59.508,123.313 59.213,119.528 56.370 C 116.034 53.746,115.910 53.683,114.610 53.878 C 111.511 54.343,108.882 56.143,106.436 59.475 C 104.296 62.389,98.894 65.271,99.961 62.930 C 100.700 61.308,99.314 61.640,97.211 63.590 C 95.911 64.795,94.662 65.632,89.791 68.560 C 86.995 70.241,86.140 72.916,86.612 78.500 C 86.871 81.559,86.363 84.056,85.648 83.239 C 85.141 82.660,84.606 72.190,85.053 71.583 C 85.282 71.271,86.091 70.120,86.850 69.024 C 89.346 65.426,94.524 60.841,98.672 58.559 C 100.456 57.577,100.532 57.367,100.029 54.769 C 99.721 53.180,99.839 53.054,102.300 52.341 C 107.433 50.854,114.236 50.712,117.122 52.032 M135.153 54.344 C 136.112 55.531,137.356 56.719,137.918 56.986 C 138.480 57.253,139.874 57.890,141.015 58.402 C 143.189 59.377,143.831 60.095,145.376 63.275 C 146.336 65.251,145.995 65.302,142.730 63.674 C 140.346 62.485,135.893 60.625,135.432 60.625 C 135.366 60.625,135.313 62.102,135.313 63.906 C 135.313 67.535,135.223 67.666,133.805 66.107 C 133.215 65.459,132.320 64.896,131.567 64.701 C 130.877 64.522,129.756 64.231,129.077 64.054 C 126.021 63.261,126.427 61.467,129.548 61.973 C 130.904 62.194,130.933 61.828,129.609 61.184 C 126.913 59.872,124.559 56.741,124.178 53.959 L 123.983 52.540 125.351 52.418 C 126.103 52.351,128.224 52.272,130.065 52.242 L 133.411 52.188 135.153 54.344 M115.748 58.619 C 117.123 62.203,113.450 65.952,108.938 65.571 C 105.978 65.322,106.532 64.143,111.226 60.703 C 114.860 58.040,115.425 57.779,115.748 58.619 M127.188 94.938 C 127.188 95.124,127.328 95.363,127.500 95.469 C 127.918 95.727,127.898 96.785,127.470 97.050 C 127.282 97.166,126.703 96.947,126.183 96.562 C 125.097 95.759,116.909 95.762,114.688 96.565 C 110.956 97.916,110.969 99.075,114.761 102.791 C 117.828 105.797,120.302 106.152,128.853 104.812 L 130.049 104.624 129.322 103.830 C 128.394 102.819,125.365 101.428,123.047 100.951 C 119.865 100.295,121.761 99.393,127.656 98.757 C 132.165 98.271,132.188 98.264,132.188 97.216 C 132.188 95.662,131.329 94.976,129.135 94.777 C 127.840 94.660,127.188 94.714,127.188 94.938 M125.869 104.014 C 125.959 104.283,125.809 104.396,125.453 104.327 C 125.146 104.267,124.833 104.030,124.756 103.798 C 124.666 103.529,124.816 103.417,125.172 103.486 C 125.479 103.545,125.792 103.783,125.869 104.014 M97.377 104.244 C 97.273 104.516,97.188 104.868,97.188 105.026 C 97.188 105.183,96.836 105.313,96.406 105.313 C 95.498 105.313,95.387 104.781,96.172 104.185 C 96.938 103.604,97.610 103.637,97.377 104.244 M117.500 113.604 C 117.500 114.100,119.303 117.199,120.816 119.305 C 121.771 120.632,123.044 122.598,123.647 123.673 C 125.535 127.040,126.024 124.090,124.189 120.412 C 122.944 117.918,117.500 112.377,117.500 113.604 M114.892 117.759 C 114.273 118.443,114.220 119.063,114.781 119.063 C 115.361 119.063,115.938 118.408,115.938 117.750 C 115.938 117.031,115.548 117.034,114.892 117.759 M115.625 129.168 C 116.846 129.749,116.739 131.368,115.469 131.515 C 109.810 132.173,105.240 130.950,106.257 129.049 C 106.677 128.266,113.923 128.357,115.625 129.168 M332.946 131.429 C 334.034 132.517,332.832 135.504,329.365 140.326 C 325.465 145.751,321.243 157.078,322.538 158.640 C 323.441 159.729,324.887 160.063,326.428 159.540 C 327.201 159.277,328.372 159.063,329.028 159.063 C 330.137 159.063,330.319 158.925,331.582 157.123 C 333.977 153.709,340.217 147.880,344.063 145.465 C 344.836 144.979,346.605 143.493,347.994 142.163 C 351.591 138.719,354.744 138.028,355.893 140.432 C 356.936 142.612,355.545 144.466,350.058 148.213 C 341.734 153.898,338.747 156.145,336.595 158.340 L 334.284 160.696 334.564 162.133 C 335.145 165.117,339.068 164.540,345.004 160.597 C 348.632 158.188,362.560 151.563,363.998 151.563 C 367.627 151.563,365.295 155.661,361.033 156.774 C 358.737 157.374,356.284 158.625,353.764 160.482 C 347.351 165.207,346.224 165.844,341.094 167.639 C 336.964 169.083,337.031 169.026,337.031 171.099 C 337.031 175.845,344.787 176.787,361.193 174.033 C 368.043 172.883,367.500 172.842,367.500 174.519 C 367.500 176.682,367.031 176.993,361.563 178.462 C 359.642 178.978,353.331 179.464,349.512 179.390 C 339.045 179.187,335.400 180.414,330.095 185.922 L 327.221 188.906 324.156 189.011 C 318.415 189.208,316.331 184.782,319.265 178.629 C 319.798 177.511,319.796 177.490,319.008 176.640 C 318.570 176.168,317.806 175.012,317.309 174.072 C 316.778 173.066,315.265 171.239,313.631 169.628 C 311.022 167.056,310.868 166.833,311.057 165.885 C 311.334 164.502,315.148 157.958,316.633 156.317 C 318.156 154.636,320.052 150.748,321.266 146.818 C 321.822 145.019,322.665 143.119,323.345 142.131 C 323.975 141.217,325.489 138.500,326.709 136.094 C 329.230 131.125,331.183 129.665,332.946 131.429 M126.397 141.016 C 126.402 142.949,126.304 144.988,126.180 145.547 C 125.827 147.130,126.767 146.874,127.199 145.269 C 127.839 142.894,127.410 137.500,126.582 137.500 C 126.475 137.500,126.392 139.082,126.397 141.016 M147.031 144.916 C 146.152 145.136,145.948 145.572,145.942 147.238 C 145.940 148.039,145.662 149.580,145.325 150.662 C 144.588 153.030,144.458 152.875,146.813 152.438 C 149.455 151.946,149.880 153.175,147.545 154.554 C 147.032 154.857,146.285 155.750,145.884 156.537 C 145.136 158.009,143.167 159.333,141.683 159.362 C 140.888 159.378,139.375 160.506,139.375 161.083 C 139.375 162.181,149.379 162.978,153.327 162.195 C 158.936 161.080,169.360 156.756,172.028 154.436 C 174.519 152.270,167.556 149.506,164.985 151.641 C 163.558 152.825,163.542 152.893,164.409 154.110 C 165.165 155.171,165.207 155.089,163.668 155.538 C 162.097 155.997,161.793 155.414,161.916 152.173 C 162.042 148.858,160.626 147.387,156.653 146.705 C 156.002 146.593,154.625 146.180,153.594 145.788 C 151.735 145.081,148.233 144.615,147.031 144.916 M100.459 155.636 C 99.123 156.986,97.730 157.965,95.552 159.084 C 91.738 161.044,90.855 162.500,93.481 162.500 C 95.783 162.500,105.938 160.468,105.938 160.007 C 105.938 159.313,104.826 156.198,104.179 155.078 C 103.161 153.318,102.680 153.390,100.459 155.636 M203.594 156.739 C 204.281 157.019,205.617 157.536,206.563 157.888 C 207.508 158.240,209.838 159.348,211.741 160.349 C 213.644 161.351,216.190 162.505,217.398 162.913 C 220.991 164.129,227.105 169.257,229.493 173.058 C 230.836 175.195,231.613 175.504,236.177 175.715 C 243.111 176.035,252.966 178.738,250.550 179.657 C 250.109 179.824,249.656 180.111,249.543 180.293 C 249.217 180.821,247.843 180.677,245.222 179.840 C 238.210 177.600,238.041 180.123,244.666 188.125 C 248.447 192.691,249.597 193.371,251.834 192.362 C 252.952 191.858,253.225 191.851,255.297 192.278 C 258.142 192.863,258.175 192.790,256.726 189.039 C 256.108 187.438,255.435 185.155,255.232 183.967 C 254.826 181.601,254.771 181.723,256.892 180.251 C 257.655 179.721,257.653 179.720,256.025 179.704 C 254.967 179.693,253.757 179.401,252.587 178.874 C 247.481 176.576,243.117 175.493,236.832 174.966 C 233.268 174.667,231.979 174.445,231.681 174.080 C 231.463 173.813,230.636 172.719,229.842 171.650 C 227.542 168.552,223.733 165.496,218.907 162.875 C 215.509 161.030,205.138 156.660,203.594 156.423 L 202.344 156.231 203.594 156.739 M326.189 163.140 C 325.498 163.544,323.620 163.613,321.953 163.297 L 320.625 163.045 320.573 165.116 C 320.544 166.255,320.509 167.425,320.495 167.716 C 320.457 168.479,323.004 169.688,325.109 169.905 C 327.168 170.118,327.213 170.022,326.094 167.813 C 325.137 165.924,325.105 166.246,326.406 164.688 C 327.852 162.958,327.749 162.230,326.189 163.140 M279.775 168.904 C 284.441 169.374,288.543 170.257,292.789 171.708 C 295.886 172.765,296.617 172.716,299.649 171.250 C 302.567 169.839,303.202 169.773,305.625 170.625 C 307.733 171.367,308.348 171.386,309.850 170.759 C 312.211 169.772,313.668 171.144,312.565 173.315 C 311.486 175.439,310.533 179.394,310.493 181.913 C 310.470 183.418,310.299 184.484,310.029 184.809 C 309.607 185.318,309.684 187.583,310.181 189.297 C 310.487 190.351,309.239 190.224,308.101 189.087 C 307.277 188.262,307.188 187.973,307.188 186.118 C 307.188 184.987,307.082 184.059,306.953 184.054 C 301.623 183.861,300.537 183.489,299.194 181.389 C 296.832 177.696,294.120 176.511,288.594 176.754 C 284.233 176.946,276.359 175.719,273.753 174.441 C 271.512 173.343,270.311 169.282,272.109 168.885 C 272.582 168.781,273.109 168.648,273.281 168.591 C 273.905 168.383,275.241 168.447,279.775 168.904 M96.062 192.835 C 96.030 194.577,95.498 196.089,95.021 195.794 C 94.522 195.486,94.275 191.506,94.736 191.209 C 95.706 190.584,96.095 191.061,96.062 192.835 M102.500 192.789 C 102.500 192.935,102.978 193.145,103.562 193.255 C 104.994 193.523,105.413 194.070,105.007 195.139 C 104.118 197.477,105.282 199.257,107.642 199.165 C 110.591 199.051,114.325 196.425,114.834 194.107 C 116.032 188.652,117.685 204.447,116.560 210.604 C 116.105 213.095,116.202 218.293,116.746 220.625 C 117.007 221.742,117.345 223.219,117.497 223.906 C 117.650 224.594,117.997 225.779,118.268 226.540 C 118.717 227.799,118.717 228.077,118.271 229.611 C 117.788 231.275,117.792 231.316,118.582 232.664 C 119.567 234.345,119.991 234.635,120.214 233.781 C 120.456 232.856,120.878 232.966,120.995 233.984 C 121.111 234.997,124.394 236.872,126.064 236.880 C 126.596 236.882,127.660 237.103,128.428 237.371 C 129.373 237.700,130.688 237.829,132.491 237.772 C 136.172 237.654,139.897 239.136,140.472 240.947 C 140.582 241.296,141.332 242.333,142.136 243.253 C 144.730 246.217,145.276 249.591,144.187 255.930 L 143.686 258.846 145.328 260.355 L 146.970 261.865 146.795 267.275 C 146.634 272.252,146.667 272.747,147.209 273.452 C 149.043 275.838,147.151 276.364,139.566 275.578 C 135.334 275.139,132.503 275.604,128.925 277.325 C 124.784 279.317,123.327 277.515,125.882 273.561 C 129.167 268.479,133.218 266.380,137.603 267.489 C 140.118 268.125,145.095 268.386,144.516 267.851 C 141.902 265.440,126.326 264.507,122.055 266.505 C 120.886 267.052,119.910 267.500,119.887 267.500 C 119.863 267.500,119.870 266.019,119.902 264.209 C 119.970 260.343,119.924 260.429,124.649 255.438 L 127.580 252.344 130.763 252.239 C 133.482 252.149,134.277 252.245,136.205 252.891 C 138.977 253.821,139.348 253.530,136.943 252.312 L 135.156 251.406 129.063 251.406 C 124.047 251.406,122.808 251.495,122.061 251.909 L 121.154 252.412 120.372 250.971 C 119.943 250.179,119.375 249.110,119.110 248.596 C 118.791 247.977,118.582 246.461,118.493 244.123 L 118.357 240.587 119.847 239.200 C 121.346 237.804,121.393 237.274,119.915 238.438 C 118.820 239.299,118.750 239.253,118.750 237.675 C 118.750 233.570,116.586 237.879,116.332 242.489 C 116.185 245.161,116.259 245.866,116.888 247.786 C 117.602 249.962,117.605 250.030,117.072 251.719 L 116.531 253.438 114.906 253.444 C 113.968 253.448,112.705 253.713,111.919 254.069 C 110.041 254.921,109.731 254.860,109.142 253.516 C 107.660 250.138,108.777 245.174,111.951 241.027 C 113.583 238.895,113.669 238.595,112.947 237.564 C 112.407 236.793,112.294 237.035,114.497 234.250 C 115.702 232.725,115.578 232.669,110.996 232.662 C 106.230 232.655,105.358 232.274,102.123 228.780 C 98.138 224.476,95.549 216.489,97.018 213.030 C 97.835 211.104,97.981 207.342,97.361 204.151 C 96.731 200.908,97.010 198.441,98.195 196.777 C 98.608 196.197,98.969 195.130,99.061 194.219 C 99.258 192.271,102.500 190.923,102.500 192.789 M142.289 217.986 C 140.025 219.143,139.735 220.774,141.620 221.748 C 143.422 222.680,147.159 221.568,147.673 219.947 C 148.225 218.207,144.507 216.852,142.289 217.986 M92.950 232.422 C 95.788 236.319,96.420 243.667,94.229 247.304 C 93.638 248.286,92.784 250.305,92.331 251.791 C 91.877 253.277,90.992 255.259,90.363 256.195 C 88.336 259.213,87.832 260.126,87.317 261.719 C 86.618 263.879,85.678 265.825,84.852 266.818 C 84.469 267.279,83.988 267.974,83.783 268.363 C 82.068 271.624,70.973 282.804,64.987 287.304 C 62.248 289.363,60.454 289.417,56.657 287.558 L 54.219 286.365 54.303 284.823 C 54.350 283.975,54.738 282.016,55.166 280.469 C 55.595 278.922,56.292 276.169,56.715 274.352 C 57.994 268.855,62.734 250.563,63.255 249.112 C 64.409 245.899,72.179 240.005,75.271 239.998 C 76.485 239.995,77.740 239.233,79.130 237.653 C 80.226 236.409,80.514 236.250,81.680 236.250 C 82.823 236.250,83.173 236.068,84.355 234.864 C 85.383 233.817,86.105 233.387,87.311 233.103 C 89.161 232.669,90.347 232.118,90.920 231.427 C 91.533 230.689,91.774 230.807,92.950 232.422 M101.899 241.236 C 102.487 241.229,103.531 241.020,104.219 240.772 C 104.906 240.525,105.504 240.320,105.547 240.317 C 106.416 240.265,105.131 244.509,103.947 245.601 C 102.745 246.709,102.877 247.922,104.549 251.145 C 105.710 253.383,105.916 254.017,105.663 254.573 C 105.492 254.949,105.428 256.007,105.521 256.925 C 105.647 258.162,105.521 259.076,105.033 260.458 C 104.362 262.358,104.103 264.976,104.675 264.071 C 104.923 263.680,104.998 263.694,105.181 264.169 C 105.570 265.184,105.060 267.865,104.330 268.642 C 103.397 269.635,103.235 269.572,103.181 268.194 C 102.923 261.613,100.826 260.056,100.774 266.406 C 100.745 269.927,100.044 272.669,99.350 271.975 C 99.188 271.813,99.002 268.736,98.938 265.137 C 98.844 259.890,98.688 258.006,98.150 255.625 C 97.168 251.274,96.402 239.015,97.071 238.346 C 97.178 238.239,98.068 238.848,99.048 239.700 C 100.455 240.924,101.054 241.247,101.899 241.236 M100.691 248.703 C 100.384 248.897,100.353 249.378,100.561 250.704 C 100.712 251.663,100.727 252.642,100.595 252.878 C 100.131 253.706,102.117 257.050,102.716 256.451 C 102.827 256.340,102.767 255.759,102.582 255.159 C 102.270 254.139,102.302 254.042,103.073 253.672 C 104.126 253.167,104.252 252.461,103.595 250.741 C 102.972 249.109,101.585 248.136,100.691 248.703 M95.403 251.484 C 95.516 252.326,95.393 252.896,94.964 253.508 C 94.577 254.061,94.272 255.266,94.096 256.945 C 93.798 259.778,93.011 262.043,91.401 264.694 C 90.825 265.644,90.057 267.542,89.695 268.913 C 89.333 270.284,88.964 271.646,88.877 271.939 C 88.789 272.231,88.001 272.997,87.125 273.639 C 85.942 274.508,84.877 275.816,82.979 278.732 C 79.432 284.180,74.443 288.438,71.607 288.438 C 70.902 288.438,69.967 288.813,68.886 289.531 C 67.979 290.133,67.084 290.625,66.897 290.625 C 66.709 290.625,65.960 290.895,65.231 291.224 C 64.502 291.554,63.098 291.882,62.110 291.953 C 59.997 292.105,59.770 292.261,60.283 293.202 C 60.494 293.589,60.938 294.398,61.270 295.000 C 62.546 297.312,61.954 301.563,60.356 301.563 C 56.779 301.563,53.987 299.411,54.122 296.758 L 54.219 294.844 53.144 294.741 C 50.893 294.527,46.453 296.315,44.597 298.183 C 43.946 298.839,43.205 299.375,42.950 299.375 C 42.695 299.375,41.556 299.797,40.419 300.313 C 37.906 301.452,37.792 301.456,36.586 300.441 C 35.325 299.379,35.373 298.887,36.875 297.500 C 38.599 295.908,38.632 294.714,36.953 294.627 C 36.309 294.593,35.430 294.536,35.000 294.499 C 34.570 294.462,33.973 294.420,33.672 294.404 C 32.919 294.364,32.983 293.847,34.007 291.696 C 34.492 290.677,35.067 289.397,35.285 288.851 C 35.821 287.510,39.827 284.976,40.629 285.471 C 40.766 285.556,40.540 286.855,40.127 288.357 C 39.196 291.740,39.134 293.438,39.941 293.438 C 41.472 293.438,45.870 291.946,49.346 290.248 L 53.223 288.354 55.617 289.333 C 58.233 290.403,61.673 290.646,63.602 289.898 C 64.969 289.368,70.571 285.372,70.956 284.653 C 71.136 284.317,71.873 283.615,72.594 283.093 C 77.074 279.847,85.956 267.606,88.770 260.798 C 89.335 259.432,90.601 257.112,91.583 255.642 C 92.565 254.172,93.680 252.371,94.060 251.641 C 94.910 250.007,95.198 249.973,95.403 251.484 M115.114 261.961 C 115.863 262.509,116.789 267.500,116.142 267.500 C 116.082 267.500,115.580 267.274,115.025 266.997 C 114.032 266.502,112.270 266.609,108.703 267.381 C 106.807 267.792,107.233 265.072,109.194 264.246 C 109.723 264.023,110.767 263.328,111.514 262.702 C 112.944 261.502,114.147 261.254,115.114 261.961 M89.240 275.159 C 89.718 277.710,89.233 282.560,88.324 284.322 C 86.933 287.017,87.495 287.287,89.065 284.677 C 90.370 282.508,90.476 282.408,90.572 283.250 C 90.966 286.704,87.625 292.240,83.125 295.589 C 82.524 296.036,81.961 296.474,81.875 296.561 C 81.789 296.648,81.482 296.859,81.192 297.031 C 80.902 297.203,79.468 298.152,78.005 299.141 C 76.542 300.129,75.254 300.938,75.143 300.938 C 75.031 300.938,74.546 301.218,74.065 301.561 C 73.432 302.011,72.919 302.131,72.217 301.990 C 71.429 301.833,71.134 301.938,70.651 302.552 C 70.324 302.968,69.277 303.690,68.325 304.156 C 67.373 304.622,65.778 305.750,64.781 306.662 C 61.619 309.556,58.636 311.736,57.307 312.124 C 55.909 312.533,50.021 312.646,49.966 312.266 C 49.947 312.137,49.894 311.595,49.848 311.061 C 49.649 308.738,48.002 307.355,46.830 308.527 C 46.083 309.274,45.083 309.687,44.005 309.694 C 43.435 309.698,42.636 309.957,42.230 310.269 C 41.298 310.986,40.180 310.790,39.529 309.796 C 39.254 309.377,38.666 308.896,38.222 308.727 C 36.904 308.226,37.464 308.189,41.148 308.530 C 45.230 308.908,45.549 308.790,47.407 306.203 L 48.542 304.623 48.939 305.379 C 49.459 306.372,54.148 307.500,57.751 307.500 C 60.446 307.500,60.793 307.342,63.193 305.027 L 64.354 303.906 64.365 299.758 L 64.375 295.609 65.295 295.425 C 65.923 295.300,66.246 295.029,66.311 294.574 C 66.391 294.011,66.626 293.901,67.813 293.876 C 68.586 293.859,69.746 293.735,70.391 293.600 C 71.504 293.368,71.563 293.396,71.563 294.159 C 71.563 295.957,74.459 294.743,76.586 292.054 C 84.411 282.161,85.764 280.158,86.234 277.768 C 86.819 274.794,88.842 273.038,89.240 275.159 M40.196 295.613 C 39.237 296.586,39.026 297.000,39.178 297.605 C 39.384 298.427,40.380 299.016,40.575 298.432 C 40.640 298.237,41.170 297.601,41.753 297.018 C 42.400 296.371,42.813 295.650,42.813 295.167 C 42.813 293.951,41.636 294.152,40.196 295.613 M48.443 300.636 C 49.283 302.283,48.844 305.166,47.969 303.750 C 47.600 303.153,46.329 303.426,45.813 304.214 C 44.731 305.866,44.008 306.065,41.894 305.294 C 40.852 304.914,40.000 304.501,40.000 304.375 C 40.000 304.114,43.904 302.318,45.150 302.005 C 45.727 301.860,46.119 301.435,46.458 300.587 C 47.077 299.039,47.636 299.053,48.443 300.636 " stroke="none" fill="#000000" fill-rule="evenodd"></path></g></svg>