<svg id="svg" xmlns="http://www.w3.org/2000/svg" xmlns:xlink="http://www.w3.org/1999/xlink" width="400" height="565.0793650793651" viewBox="0, 0, 400,565.0793650793651"><g id="svgg"><path id="path0" d="M152.381 74.979 C 116.391 84.967,99.828 108.196,100.961 147.090 C 101.198 155.238,101.692 172.381,102.059 185.185 C 102.490 200.242,103.744 210.016,105.608 212.855 C 109.708 219.101,103.954 230.723,94.744 234.800 C 67.211 246.988,45.210 276.421,41.917 305.474 C 36.011 357.586,43.244 394.766,61.558 406.428 C 62.540 407.054,64.458 412.768,65.821 419.127 C 69.056 434.227,84.543 468.044,87.412 466.272 C 88.773 465.430,89.078 466.295,88.215 468.546 C 87.448 470.543,87.673 471.651,88.714 471.007 C 89.756 470.364,91.275 474.689,92.090 480.619 C 93.115 488.068,94.252 490.721,95.769 489.204 C 97.287 487.687,97.129 484.988,95.259 480.473 C 93.770 476.879,93.144 473.346,93.867 472.623 C 94.591 471.900,96.679 474.890,98.509 479.269 C 100.338 483.647,102.371 486.694,103.027 486.039 C 103.682 485.383,101.706 480.757,98.636 475.757 C 90.035 461.749,89.866 461.438,80.636 442.693 C 72.225 425.611,69.832 417.484,73.963 420.037 C 76.359 421.518,75.259 414.634,72.180 408.881 C 70.976 406.631,70.671 404.035,71.503 403.114 C 72.335 402.192,71.825 402.123,70.370 402.960 C 68.826 403.849,67.724 403.329,67.724 401.712 C 67.723 400.188,63.360 394.455,58.028 388.971 C 44.747 375.310,42.744 360.095,48.348 315.440 C 49.755 304.234,49.850 296.651,48.603 295.149 C 44.137 289.768,60.740 264.208,77.762 250.260 C 87.378 242.380,110.833 237.882,114.236 243.265 C 117.202 247.957,138.318 258.260,142.546 257.078 C 145.517 256.247,146.160 256.457,144.402 257.684 C 142.340 259.124,142.923 260.967,146.908 265.605 C 150.998 270.364,152.725 271.133,155.031 269.218 C 157.270 267.361,159.049 267.550,162.578 270.022 C 167.918 273.762,168.614 277.249,164.021 277.249 C 162.275 277.249,160.847 278.349,160.847 279.693 C 160.847 281.067,158.778 280.373,156.121 278.106 C 153.460 275.835,152.500 275.514,153.924 277.369 C 156.401 280.595,147.353 288.619,142.458 287.538 C 141.513 287.329,139.033 287.904,136.946 288.814 C 134.859 289.725,132.615 289.935,131.961 289.280 C 129.995 287.314,116.159 306.889,117.725 309.422 C 118.543 310.747,118.215 311.173,116.969 310.403 C 112.837 307.850,102.477 336.052,104.754 343.654 C 105.146 344.962,106.050 348.690,106.764 351.938 C 107.477 355.187,108.892 357.331,109.908 356.703 C 110.924 356.076,113.721 358.894,116.124 362.966 C 118.526 367.038,121.715 370.471,123.209 370.595 C 128.094 370.998,138.500 370.227,144.709 369.002 C 148.858 368.183,150.334 368.547,149.346 370.144 C 148.550 371.433,148.937 372.487,150.206 372.487 C 151.475 372.487,153.062 371.058,153.732 369.312 C 155.489 364.734,158.046 365.408,159.461 370.821 C 160.172 373.539,159.387 376.941,157.592 378.925 C 151.387 385.781,154.710 384.493,162.546 377.004 C 172.549 367.445,179.588 358.337,171.908 364.890 C 163.192 372.328,164.953 366.946,174.070 358.284 C 186.202 346.757,212.147 317.885,214.999 312.738 C 217.146 308.862,217.809 309.197,224.975 317.785 C 232.056 326.271,232.344 327.126,228.679 328.813 C 226.494 329.819,224.147 332.676,223.464 335.162 C 222.406 339.013,221.883 339.212,219.934 336.508 C 217.672 333.370,218.680 365.000,221.418 383.069 C 222.035 387.143,222.599 392.857,222.672 395.767 C 223.124 413.881,227.232 441.064,230.858 449.935 L 235.102 460.317 233.930 451.852 C 231.330 433.069,230.094 403.690,231.937 404.473 C 239.345 407.620,265.166 424.539,266.041 426.819 C 266.634 428.365,267.940 429.630,268.943 429.630 C 269.946 429.630,270.250 428.283,269.619 426.638 C 268.059 422.573,252.942 406.349,250.714 406.349 C 249.731 406.349,250.774 407.700,253.031 409.351 C 255.289 411.002,256.469 413.020,255.653 413.836 C 254.837 414.651,252.777 413.926,251.075 412.224 C 249.372 410.521,245.053 407.916,241.477 406.435 C 237.668 404.857,235.542 402.747,236.345 401.342 C 237.099 400.022,236.973 399.611,236.066 400.428 C 232.817 403.356,228.980 396.307,228.253 386.076 C 227.846 380.348,226.779 375.117,225.881 374.451 C 222.049 371.607,221.619 345.930,225.285 338.840 C 229.133 331.399,231.133 331.495,231.827 339.154 C 232.064 341.773,233.362 343.668,234.712 343.365 C 238.360 342.546,247.825 347.930,263.212 359.577 C 270.765 365.293,277.641 369.346,278.494 368.583 C 279.346 367.820,279.359 368.386,278.521 369.841 C 277.684 371.296,277.762 373.677,278.694 375.132 C 281.111 378.903,280.983 423.222,278.560 421.725 C 277.479 421.057,277.303 421.656,278.168 423.056 C 279.381 425.019,280.519 424.972,283.134 422.854 C 285.182 421.195,285.944 421.078,285.055 422.560 C 282.899 426.158,285.628 431.720,289.644 431.913 C 291.629 432.008,292.042 432.520,290.605 433.105 C 289.221 433.668,285.784 432.619,282.967 430.773 C 278.528 427.865,277.509 427.823,275.320 430.462 C 272.811 433.485,279.370 437.689,284.425 436.299 C 285.463 436.013,289.530 437.307,293.464 439.174 C 300.585 442.553,300.661 442.533,310.626 434.658 C 330.755 418.750,334.056 410.774,348.179 343.915 C 350.301 333.872,354.146 323.336,357.631 318.016 C 360.862 313.084,364.557 304.870,365.843 299.764 L 368.181 290.480 378.250 292.361 C 388.359 294.250,393.673 293.621,393.625 290.543 C 393.577 287.544,378.998 279.365,373.700 279.365 C 362.715 279.365,368.103 270.335,382.470 264.665 C 386.214 263.187,390.500 260.414,391.993 258.502 C 394.310 255.537,394.243 255.374,391.534 257.396 C 389.788 258.699,385.019 260.840,380.936 262.153 C 371.200 265.284,361.862 274.108,362.072 279.980 C 362.164 282.552,362.733 283.426,363.336 281.922 C 364.176 279.829,365.125 279.763,367.389 281.642 C 369.016 282.992,372.583 283.668,375.316 283.146 C 378.524 282.533,382.469 284.020,386.440 287.338 L 392.593 292.481 386.243 290.811 C 382.751 289.893,376.085 289.084,371.429 289.015 C 365.620 288.928,361.438 287.394,358.105 284.127 C 352.152 278.292,351.501 278.236,351.905 283.598 C 352.087 286.023,353.741 287.831,355.777 287.831 C 360.250 287.831,362.834 297.319,359.689 302.196 C 357.532 305.542,357.444 305.527,358.546 302.006 C 359.243 299.780,358.869 298.731,357.648 299.486 C 356.497 300.197,355.556 302.035,355.556 303.569 C 355.556 305.104,354.054 307.606,352.220 309.129 C 347.721 312.862,345.329 308.947,346.365 299.546 C 346.980 293.968,345.609 290.692,339.707 283.627 C 328.979 270.787,329.685 255.712,340.931 257.485 C 345.915 258.270,347.090 257.687,347.090 254.427 C 347.090 250.605,360.384 237.950,373.016 229.747 C 381.360 224.329,380.204 228.538,371.423 235.544 C 367.347 238.797,362.089 245.226,359.740 249.830 C 357.391 254.434,354.090 258.201,352.404 258.201 C 348.471 258.201,350.503 263.783,355.075 265.537 C 356.969 266.264,360.933 265.051,363.947 262.824 C 369.700 258.570,375.059 256.482,384.638 254.763 C 387.849 254.187,391.429 252.771,392.593 251.617 C 397.048 247.200,375.458 252.473,367.687 257.699 C 352.907 267.639,356.498 255.700,373.359 238.838 C 383.612 228.585,385.401 224.339,379.468 224.339 C 373.756 224.339,354.036 237.219,351.615 242.531 C 348.553 249.251,341.570 252.832,339.918 248.529 C 339.116 246.437,339.533 245.814,341.092 246.778 C 342.596 247.707,342.931 247.334,341.977 245.791 C 339.960 242.527,347.830 229.960,354.718 225.447 C 357.709 223.487,359.605 221.333,358.932 220.661 C 358.259 219.988,358.598 218.365,359.686 217.055 C 360.773 215.745,361.001 213.602,360.192 212.294 C 358.686 209.857,335.787 221.719,336.121 224.763 C 336.211 225.579,333.478 229.251,330.047 232.924 C 326.616 236.596,323.810 240.787,323.810 242.237 C 323.810 243.686,321.339 249.520,318.318 255.200 C 311.720 267.610,308.990 292.414,313.124 302.395 C 317.610 313.225,299.517 359.788,290.823 359.788 C 289.177 359.788,287.831 360.797,287.831 362.030 C 287.831 363.262,288.970 363.567,290.363 362.706 C 291.756 361.845,290.739 364.170,288.103 367.872 C 282.790 375.333,280.118 376.872,283.523 370.510 C 286.553 364.848,286.314 364.021,281.644 364.021 C 279.405 364.021,274.463 361.402,270.662 358.201 C 266.861 355.000,257.979 349.028,250.923 344.931 C 238.826 337.906,238.059 336.984,237.456 328.757 C 237.065 323.436,235.208 318.577,232.694 316.302 C 227.115 311.254,227.436 310.230,235.597 307.028 C 242.439 304.344,251.336 293.894,250.256 289.812 C 249.451 286.768,262.205 279.701,266.484 280.820 C 270.311 281.821,287.369 262.033,286.221 257.925 C 285.918 256.841,288.490 257.411,291.937 259.194 C 299.619 263.166,300.529 263.203,300.529 259.545 C 300.529 257.956,302.434 254.234,304.762 251.274 C 307.090 248.315,308.995 243.615,308.995 240.830 C 308.995 238.046,310.082 234.680,311.411 233.351 C 314.316 230.446,310.692 221.965,299.326 205.076 C 292.479 194.901,277.296 181.553,277.216 185.638 C 277.198 186.553,276.234 185.873,275.073 184.127 C 273.306 181.468,272.021 182.044,267.169 187.669 C 263.983 191.362,259.471 194.707,257.143 195.102 C 254.596 195.533,252.057 198.448,250.768 202.421 C 247.663 211.987,225.662 234.921,219.590 234.921 C 212.799 234.921,206.503 239.805,198.732 251.099 C 194.945 256.602,189.055 262.012,185.006 263.703 C 175.275 267.769,172.297 267.566,175.931 263.086 C 178.244 260.235,178.261 259.851,176.016 261.202 C 173.934 262.455,174.073 261.203,176.545 256.423 C 178.387 252.860,179.894 248.470,179.894 246.666 C 179.894 244.556,181.831 243.386,185.324 243.386 C 192.851 243.386,198.942 239.730,198.942 235.211 C 198.942 230.768,207.860 207.611,213.836 196.537 C 218.814 187.313,219.238 174.491,214.714 169.967 C 210.781 166.034,212.404 163.438,216.612 166.931 C 219.651 169.453,222.871 166.037,230.330 152.381 C 238.254 137.873,232.272 111.338,218.209 98.611 C 212.510 93.454,212.587 91.472,218.519 90.599 C 221.450 90.168,215.145 87.315,202.116 83.178 C 179.915 76.129,164.747 71.860,162.963 72.159 C 162.381 72.256,157.619 73.526,152.381 74.979 M169.390 131.267 C 176.491 135.824,183.396 138.152,193.373 139.353 C 212.177 141.617,226.339 155.073,214.642 159.562 C 209.116 161.682,206.884 161.030,208.173 157.672 C 208.843 155.926,208.877 154.497,208.248 154.497 C 206.337 154.497,201.058 160.411,201.058 162.553 C 201.058 163.657,199.693 165.694,198.025 167.078 C 195.426 169.235,195.577 170.181,199.083 173.687 C 201.334 175.937,203.175 179.206,203.175 180.952 C 203.175 182.698,204.191 184.127,205.434 184.127 C 206.730 184.127,207.120 182.322,206.349 179.894 C 205.244 176.412,205.969 175.661,210.439 175.661 C 216.864 175.661,218.258 186.514,212.766 193.775 C 209.761 197.748,209.648 197.709,209.342 192.593 C 209.168 189.683,208.246 191.956,207.293 197.644 C 205.314 209.446,203.256 212.351,198.237 210.425 C 194.204 208.877,193.330 202.362,197.336 203.697 C 202.932 205.563,208.181 194.629,203.175 191.534 C 202.011 190.815,200.915 187.664,200.740 184.531 C 200.552 181.158,199.905 182.704,199.153 188.325 C 198.004 196.915,197.310 197.856,191.819 198.270 C 184.833 198.795,181.372 201.058,187.554 201.058 C 190.291 201.058,191.686 202.504,191.686 205.343 C 191.686 207.700,190.619 209.219,189.315 208.719 C 188.011 208.218,183.215 209.547,178.657 211.672 L 170.370 215.535 181.430 215.050 C 187.513 214.783,193.142 213.913,193.939 213.116 C 197.965 209.089,200.762 219.512,197.849 227.689 C 196.224 232.248,194.853 234.788,194.802 233.333 C 194.657 229.208,188.072 230.220,182.793 235.179 C 176.603 240.995,171.750 239.673,155.556 227.759 C 138.200 214.992,135.055 211.874,136.758 209.120 C 137.647 207.681,137.262 207.345,135.777 208.264 C 134.433 209.094,133.285 209.479,133.226 209.120 C 133.167 208.760,132.588 204.299,131.940 199.206 C 131.042 192.153,129.051 188.445,123.582 183.643 C 117.189 178.030,112.503 162.827,117.989 165.500 C 128.568 170.654,131.306 172.608,132.288 175.703 C 132.923 177.701,135.483 181.128,137.979 183.319 C 141.306 186.239,142.216 186.454,141.390 184.127 C 137.341 172.718,137.194 170.185,140.837 174.603 C 144.200 178.681,144.275 178.585,142.895 171.958 C 141.519 165.351,144.123 162.395,147.090 167.196 C 150.509 172.727,151.896 168.438,148.793 161.931 C 144.531 152.994,146.949 149.394,152.563 156.319 C 157.038 161.839,157.759 159.901,154.458 151.219 C 152.610 146.359,152.795 145.738,155.752 146.872 C 158.247 147.830,158.843 147.311,157.908 144.998 C 153.494 134.085,153.490 134.137,158.371 138.423 C 163.625 143.036,164.185 141.024,159.788 133.333 C 153.826 122.904,155.721 122.496,169.390 131.267 M161.884 154.531 C 161.176 155.677,162.796 156.628,165.484 156.646 C 172.643 156.694,177.789 160.237,172.957 161.791 C 161.526 165.467,161.603 165.387,167.033 167.907 C 170.952 169.725,172.367 169.672,173.030 167.683 C 174.065 164.576,179.894 164.162,179.894 167.196 C 179.894 168.360,178.972 169.312,177.844 169.312 C 176.717 169.312,176.356 170.776,177.043 172.566 C 177.729 174.355,176.599 177.688,174.532 179.973 C 172.464 182.258,171.634 184.157,172.688 184.194 C 173.741 184.231,172.698 185.728,170.370 187.521 C 166.292 190.661,166.362 190.755,172.297 190.099 C 177.904 189.479,182.775 182.011,177.573 182.011 C 176.502 182.011,176.815 180.106,178.269 177.778 C 179.723 175.450,181.721 173.545,182.710 173.545 C 185.609 173.545,196.825 162.167,196.825 159.226 C 196.825 157.477,195.128 156.959,191.981 157.749 C 189.316 158.418,184.316 157.794,180.870 156.363 C 172.414 152.853,163.455 151.989,161.884 154.531 M129.583 201.105 C 130.319 208.764,132.102 213.103,136.195 217.195 C 139.277 220.278,141.799 223.777,141.799 224.971 C 141.799 226.166,148.064 232.992,155.722 240.140 L 169.646 253.137 164.332 255.558 C 159.404 257.803,158.918 257.525,157.644 251.722 C 156.055 244.490,152.381 245.406,152.381 253.035 C 152.381 259.583,151.692 259.518,142.204 252.064 C 137.907 248.688,128.201 242.808,120.635 238.997 C 103.750 230.492,104.525 231.137,107.549 228.113 C 108.926 226.735,110.053 223.949,110.053 221.920 C 110.053 219.299,111.354 218.483,114.550 219.098 C 118.813 219.920,118.861 219.759,115.470 216.012 C 113.123 213.419,112.669 211.581,114.148 210.667 C 115.388 209.901,116.417 206.235,116.435 202.521 C 116.458 197.604,116.994 196.601,118.406 198.832 C 119.661 200.816,119.912 198.675,119.119 192.758 L 117.893 183.620 123.234 187.119 C 127.436 189.873,128.791 192.856,129.583 201.105 M278.307 190.476 C 280.414 192.804,283.240 194.709,284.588 194.709 C 285.936 194.709,289.836 197.713,293.255 201.386 C 296.674 205.058,298.042 207.285,296.296 206.335 C 294.550 205.386,295.354 207.062,298.083 210.061 C 301.855 214.205,302.643 216.699,301.368 220.455 C 300.445 223.173,299.893 226.152,300.140 227.075 C 300.387 227.998,298.433 227.604,295.797 226.199 C 291.409 223.861,291.257 223.950,293.984 227.256 C 296.241 229.991,296.369 231.461,294.513 233.317 C 293.166 234.665,292.063 237.481,292.063 239.577 C 292.063 241.672,291.055 243.386,289.822 243.386 C 288.589 243.386,288.032 244.116,288.584 245.009 C 291.296 249.397,277.547 261.419,273.003 258.633 C 268.844 256.083,268.695 256.198,270.879 260.280 C 272.171 262.694,274.133 264.110,275.238 263.426 C 278.356 261.499,277.618 264.322,273.617 269.627 C 270.159 274.211,269.532 274.306,260.582 271.613 C 249.469 268.268,239.153 267.925,239.153 270.899 C 239.153 272.063,237.305 273.016,235.046 273.016 C 232.786 273.016,230.349 273.968,229.630 275.132 C 227.751 278.172,220.106 277.747,220.103 274.603 C 220.102 273.148,217.620 274.815,214.588 278.307 C 211.555 281.799,208.223 284.418,207.183 284.127 C 206.142 283.836,205.529 284.669,205.820 285.979 C 206.866 290.688,201.567 290.009,200.298 285.272 C 196.175 269.878,201.239 253.701,210.490 252.714 C 213.493 252.394,215.519 252.829,214.993 253.681 C 214.466 254.532,215.000 256.612,216.178 258.302 C 217.776 260.595,218.072 259.831,217.341 255.295 C 216.315 248.934,217.465 246.969,230.949 232.027 L 238.617 223.530 237.976 232.533 C 237.623 237.484,236.133 242.984,234.664 244.754 C 231.142 248.997,230.768 255.379,234.040 255.379 C 235.467 255.379,236.157 254.137,235.575 252.620 C 234.992 251.102,236.511 247.323,238.951 244.221 C 241.390 241.120,243.386 239.243,243.386 240.051 C 243.386 240.859,244.440 240.868,245.729 240.072 C 247.253 239.130,247.329 238.163,245.945 237.302 C 240.903 234.164,243.191 217.989,248.677 217.989 C 251.889 217.989,253.968 213.327,253.968 206.124 C 253.968 200.007,263.224 195.206,267.760 198.971 C 269.705 200.585,270.423 200.451,270.343 198.487 C 269.827 185.793,272.047 183.559,278.307 190.476 M270.899 207.315 C 270.899 208.448,272.804 210.394,275.132 211.640 C 277.460 212.886,279.365 213.149,279.365 212.224 C 279.365 211.299,277.460 209.352,275.132 207.899 C 272.788 206.434,270.899 206.174,270.899 207.315 M349.858 224.868 C 346.268 228.651,341.771 234.841,339.865 238.624 C 336.436 245.431,331.656 247.521,329.074 243.343 C 328.340 242.155,330.195 238.265,333.196 234.698 C 336.197 231.131,338.023 227.194,337.253 225.949 C 336.422 224.603,336.854 224.302,338.318 225.207 C 339.673 226.045,343.282 224.763,346.338 222.360 C 354.919 215.609,357.142 217.193,349.858 224.868 M183.598 222.392 C 178.158 225.560,179.081 228.038,185.714 228.074 C 191.675 228.106,196.825 225.273,196.825 221.963 C 196.825 219.446,188.175 219.726,183.598 222.392 M264.550 228.169 C 264.550 229.305,266.058 230.814,267.902 231.521 C 269.963 232.312,270.930 231.839,270.415 230.292 C 269.360 227.129,264.550 225.387,264.550 228.169 M191.555 237.003 C 190.185 239.221,182.011 241.255,182.011 239.379 C 182.011 238.556,183.079 236.815,184.385 235.509 C 186.934 232.960,193.242 234.275,191.555 237.003 M217.989 240.060 C 217.989 241.780,211.333 247.619,209.373 247.619 C 205.692 247.619,207.393 244.040,212.169 241.736 C 217.967 238.940,217.989 238.934,217.989 240.060 M255.767 243.058 C 255.593 244.403,255.354 246.614,255.238 247.973 C 255.122 249.331,257.169 250.601,259.788 250.794 C 265.668 251.227,265.818 249.423,260.317 244.444 C 257.740 242.112,255.961 241.570,255.767 243.058 M327.819 263.637 L 323.938 275.400 330.223 281.544 C 333.680 284.923,336.508 289.625,336.508 291.992 C 336.508 294.359,337.460 296.296,338.624 296.296 C 341.830 296.296,341.178 300.893,336.736 309.605 C 333.683 315.594,333.406 317.460,335.570 317.460 C 337.933 317.460,337.942 318.613,335.623 324.339 C 331.428 334.702,329.843 342.857,332.025 342.857 C 333.095 342.857,334.984 339.286,336.222 334.921 C 338.509 326.858,338.513 327.822,336.332 359.788 C 335.956 365.302,323.799 400.637,321.202 403.767 C 319.835 405.414,318.471 408.368,318.171 410.332 C 316.522 421.140,300.529 446.605,300.529 438.423 C 300.529 437.079,299.101 435.979,297.354 435.979 C 293.600 435.979,293.445 434.958,296.371 429.490 C 297.881 426.669,297.881 425.397,296.371 425.397 C 295.166 425.397,294.165 423.730,294.147 421.693 C 294.120 418.596,293.794 418.497,292.153 421.092 C 286.320 430.314,282.659 391.455,288.098 378.060 C 289.579 374.413,295.915 363.945,302.178 354.797 C 308.440 345.650,312.413 338.878,311.005 339.748 C 309.336 340.780,308.865 340.308,309.652 338.390 C 316.343 322.084,317.887 312.125,315.428 301.137 C 313.909 294.349,313.524 286.186,314.472 280.865 C 315.345 275.966,316.160 270.053,316.282 267.725 C 316.404 265.397,318.862 259.450,321.744 254.509 C 329.445 241.307,333.283 247.075,327.819 263.637 M223.304 262.396 C 222.733 263.320,225.063 264.487,228.481 264.988 C 231.900 265.490,234.286 265.236,233.784 264.423 C 232.330 262.071,224.447 260.546,223.304 262.396 M334.509 264.021 C 334.745 267.231,346.795 275.206,348.134 273.039 C 348.871 271.846,347.748 270.234,345.637 269.457 C 343.526 268.680,341.037 266.782,340.106 265.239 C 338.299 262.244,334.314 261.377,334.509 264.021 M193.497 276.720 C 194.229 282.249,195.040 289.392,195.298 292.593 C 195.596 296.294,196.987 298.413,199.118 298.413 C 207.579 298.413,201.890 309.529,188.866 318.447 C 185.070 321.047,177.099 329.236,171.152 336.646 C 163.692 345.941,158.614 350.346,154.773 350.851 C 151.711 351.254,148.302 352.478,147.196 353.570 C 143.578 357.142,140.044 355.656,140.596 350.794 C 141.469 343.113,144.048 336.508,146.174 336.508 C 147.260 336.508,148.070 333.889,147.976 330.688 L 147.803 324.868 145.003 331.235 C 142.194 337.624,133.333 347.194,133.333 343.839 C 133.333 342.854,131.923 343.897,130.199 346.156 C 127.486 349.712,126.779 349.838,124.940 347.090 C 123.189 344.473,122.810 344.708,122.784 348.430 C 122.750 353.154,116.034 356.456,112.877 353.302 C 103.990 344.424,115.103 326.210,129.729 325.680 C 133.458 325.545,134.830 324.997,132.778 324.462 C 130.727 323.927,129.593 322.609,130.258 321.533 C 130.923 320.457,129.926 319.577,128.042 319.577 C 126.036 319.577,125.230 318.586,126.096 317.186 C 126.997 315.727,126.427 315.197,124.633 315.826 C 123.016 316.394,121.824 318.412,121.983 320.311 C 122.143 322.210,121.510 323.292,120.577 322.715 C 119.644 322.139,118.453 322.863,117.931 324.325 C 117.409 325.788,116.295 326.349,115.457 325.573 C 111.475 321.887,129.455 291.553,135.134 292.375 C 137.054 292.653,142.851 290.792,148.017 288.239 C 153.182 285.686,158.784 283.598,160.465 283.598 C 162.146 283.598,166.779 281.584,170.761 279.124 C 174.743 276.663,178.553 275.202,179.228 275.877 C 179.904 276.553,182.304 274.756,184.562 271.886 C 190.402 264.462,191.988 265.320,193.497 276.720 M129.995 281.216 C 130.681 282.327,130.047 283.785,128.585 284.456 C 127.122 285.126,128.188 285.106,130.953 284.410 C 134.557 283.503,135.533 283.868,134.401 285.699 C 133.174 287.684,133.863 287.696,137.492 285.754 C 142.912 282.853,142.756 282.561,134.743 280.636 C 131.116 279.765,129.239 279.994,129.995 281.216 M115.496 287.890 C 106.397 294.774,107.436 296.095,117.460 290.387 C 120.952 288.399,124.048 285.582,124.339 284.127 C 125.035 280.647,125.112 280.613,115.496 287.890 M243.197 294.533 C 240.673 299.250,238.205 299.704,239.961 295.128 C 240.684 293.245,240.329 292.395,239.129 293.137 C 237.979 293.848,237.037 295.700,237.037 297.253 C 237.037 300.197,232.577 302.646,227.215 302.646 C 225.496 302.646,224.677 301.693,225.397 300.529 C 226.116 299.365,228.523 298.413,230.746 298.413 C 233.358 298.413,234.382 297.355,233.641 295.423 C 232.957 293.642,234.053 292.103,236.353 291.615 C 244.174 289.957,245.373 290.468,243.197 294.533 M211.640 293.827 C 211.640 296.583,209.124 298.416,207.078 297.151 C 204.889 295.798,206.776 292.063,209.649 292.063 C 210.744 292.063,211.640 292.857,211.640 293.827 M111.301 302.435 C 109.299 304.648,108.453 306.948,109.421 307.546 C 110.389 308.144,112.266 306.334,113.592 303.523 C 116.501 297.360,116.077 297.159,111.301 302.435 M137.626 303.807 C 133.585 306.660,131.389 308.995,132.746 308.995 C 134.103 308.995,137.886 306.644,141.152 303.771 C 148.719 297.113,147.084 297.130,137.626 303.807 M159.788 307.949 C 153.968 311.902,148.117 316.078,146.786 317.229 C 145.455 318.380,143.789 318.745,143.083 318.039 C 142.377 317.333,141.799 317.968,141.799 319.450 C 141.799 320.979,143.176 321.618,144.979 320.926 C 150.515 318.801,174.826 299.780,170.899 300.646 C 170.608 300.710,165.608 303.996,159.788 307.949 M60.675 327.513 C 62.707 349.609,63.210 352.364,65.140 351.948 C 66.244 351.710,66.808 354.428,66.394 357.989 C 65.813 362.977,66.349 364.190,68.731 363.276 C 70.431 362.623,72.476 363.148,73.275 364.441 C 74.155 365.864,73.764 366.196,72.285 365.281 C 70.941 364.451,69.841 364.780,69.841 366.013 C 69.841 367.245,70.992 368.254,72.398 368.254 C 73.803 368.254,78.779 371.825,83.455 376.190 C 88.130 380.556,90.311 382.145,88.301 379.722 C 83.154 373.518,86.000 371.973,92.123 377.647 C 98.651 383.697,105.566 384.402,100.198 378.470 C 98.260 376.329,96.191 375.061,95.599 375.653 C 95.007 376.245,92.779 375.151,90.648 373.222 C 88.516 371.293,86.772 370.259,86.772 370.924 C 86.772 371.589,83.339 368.799,79.142 364.724 C 69.752 355.605,58.528 326.926,66.138 331.498 C 67.656 332.411,67.431 331.424,65.608 329.182 C 63.862 327.033,62.672 324.946,62.963 324.542 C 64.291 322.702,63.298 317.460,61.622 317.460 C 60.593 317.460,60.167 321.984,60.675 327.513 M91.496 332.275 C 91.496 336.349,91.932 338.016,92.464 335.979 C 92.997 333.942,92.997 330.608,92.464 328.571 C 91.932 326.534,91.496 328.201,91.496 332.275 M323.694 338.095 C 322.525 341.296,321.161 345.075,320.665 346.493 C 320.168 347.911,320.672 349.634,321.786 350.322 C 322.899 351.010,323.832 350.802,323.860 349.860 C 323.888 348.919,324.740 344.577,325.754 340.212 C 327.910 330.927,326.749 329.735,323.694 338.095 M84.026 344.974 C 84.817 349.048,85.481 354.933,85.502 358.053 C 85.523 361.172,86.248 363.287,87.114 362.752 C 87.980 362.217,90.124 364.426,91.878 367.662 C 93.633 370.898,95.107 372.298,95.153 370.775 C 95.201 369.228,96.317 368.671,97.681 369.514 C 99.208 370.457,99.550 370.094,98.593 368.546 C 97.751 367.184,96.257 366.566,95.272 367.175 C 93.655 368.174,92.182 364.896,84.818 343.915 C 82.634 337.694,82.618 337.715,84.026 344.974 M128.952 359.259 C 128.247 366.785,125.895 368.314,120.662 364.648 L 115.465 361.009 120.696 359.551 C 128.065 357.498,129.120 357.461,128.952 359.259 M107.304 376.089 C 112.894 381.443,113.173 382.402,109.524 383.699 C 108.069 384.216,109.460 384.317,112.616 383.923 C 115.772 383.529,118.853 384.014,119.462 384.999 C 120.579 386.807,129.101 389.682,129.101 388.251 C 129.101 387.827,124.577 384.898,119.048 381.742 C 113.519 378.586,107.519 374.974,105.716 373.716 C 103.913 372.458,104.628 373.526,107.304 376.089 M178.254 372.762 C 178.574 374.251,177.725 375.512,176.367 375.565 C 175.009 375.618,173.255 376.304,172.469 377.090 C 171.684 377.876,172.566 378.294,174.431 378.021 C 179.499 377.277,182.919 373.298,180.026 371.510 C 178.706 370.694,177.928 371.244,178.254 372.762 M129.101 373.707 C 129.101 375.136,140.094 379.130,141.142 378.082 C 141.622 377.602,139.109 376.196,135.558 374.958 C 132.006 373.720,129.101 373.157,129.101 373.707 M150.265 376.720 C 146.190 378.950,143.619 380.815,144.550 380.864 C 146.792 380.981,158.730 374.774,158.730 373.491 C 158.730 372.105,158.606 372.153,150.265 376.720 M139.178 388.798 C 141.811 389.305,145.620 389.285,147.644 388.756 C 149.667 388.226,147.513 387.812,142.857 387.835 C 138.201 387.859,136.545 388.292,139.178 388.798 M266.475 403.707 C 265.557 409.003,266.287 411.441,269.642 414.289 C 272.366 416.602,273.088 416.796,271.565 414.806 C 270.225 413.056,268.800 408.294,268.398 404.224 L 267.667 396.825 266.475 403.707 M198.828 433.333 L 191.534 441.270 199.471 433.976 C 203.836 429.965,207.407 426.394,207.407 426.040 C 207.407 424.424,205.616 425.946,198.828 433.333 M234.953 467.071 C 234.935 470.785,235.873 474.413,237.037 475.132 C 239.750 476.809,239.750 467.689,237.037 463.492 C 235.476 461.076,234.978 461.932,234.953 467.071 " stroke="none" fill="#000000" fill-rule="evenodd"></path></g></svg>