<svg id="svg" xmlns="http://www.w3.org/2000/svg" xmlns:xlink="http://www.w3.org/1999/xlink" width="400" height="400" viewBox="0, 0, 400,400"><g id="svgg"><path id="path0" d="M172.615 20.953 C 171.600 21.281,168.074 21.962,164.780 22.466 C 160.206 23.166,158.059 23.833,155.693 25.289 C 153.488 26.646,151.543 27.291,148.950 27.526 L 145.305 27.857 145.114 24.851 L 144.923 21.846 143.573 24.769 C 141.819 28.568,141.107 28.458,140.589 24.308 C 140.082 20.249,139.077 19.816,139.077 23.656 C 139.077 26.857,138.255 27.638,136.530 26.077 C 135.316 24.978,135.300 24.987,135.694 26.556 C 136.062 28.023,135.961 28.129,134.464 27.843 C 133.123 27.587,132.868 27.738,133.031 28.689 C 133.148 29.363,132.910 29.782,132.462 29.692 C 131.503 29.501,131.465 30.296,132.389 31.220 C 133.377 32.208,132.578 33.846,131.109 33.846 C 128.595 33.846,121.436 41.849,120.327 45.899 C 119.779 47.901,119.024 50.086,118.650 50.755 C 112.702 61.382,111.823 74.628,115.172 103.146 C 115.900 109.338,115.069 131.458,113.945 135.831 C 113.237 138.589,113.770 140.691,115.364 141.417 C 120.626 143.815,111.601 160.262,102.317 165.193 C 98.013 167.479,97.813 168.597,101.538 169.553 C 107.019 170.958,110.368 173.595,117.846 182.394 L 120.923 186.014 120.909 183.930 C 120.901 182.784,120.690 181.521,120.440 181.125 C 120.190 180.728,119.710 178.945,119.372 177.163 C 118.895 174.651,118.255 173.463,116.524 171.877 C 114.374 169.908,114.304 169.711,114.641 166.608 C 114.949 163.776,118.813 151.136,119.617 150.332 C 120.757 149.191,121.359 151.293,120.999 155.163 C 120.687 158.517,120.780 159.385,121.449 159.385 C 122.918 159.385,123.803 152.897,124.347 138.154 C 125.066 118.639,124.734 119.346,132.000 121.846 C 133.968 122.523,136.056 123.077,136.641 123.077 C 138.936 123.077,139.827 125.823,139.096 130.650 C 138.413 135.166,139.222 139.032,142.179 145.385 C 143.912 149.107,144.902 146.544,143.598 141.715 C 141.641 134.469,141.442 133.160,141.804 129.958 C 142.411 124.595,140.793 121.749,136.578 120.767 C 128.171 118.809,123.087 109.387,123.873 97.222 C 125.032 79.279,135.465 79.325,140.014 97.294 C 140.905 100.813,141.999 104.108,142.445 104.615 C 144.027 106.416,145.231 111.429,145.231 116.222 C 145.231 120.546,145.382 121.159,146.777 122.469 L 148.323 123.921 150.008 122.668 C 151.497 121.560,151.728 120.910,152.000 117.077 C 152.342 112.256,153.345 110.587,156.769 109.138 C 159.245 108.090,159.272 107.486,156.923 105.749 C 154.638 104.059,154.604 102.825,156.685 97.065 C 157.569 94.618,158.772 90.914,159.358 88.834 C 160.604 84.413,162.199 82.172,165.741 79.869 C 167.153 78.951,168.951 77.746,169.736 77.192 C 170.522 76.638,172.391 73.650,173.889 70.554 C 177.251 63.607,178.945 61.538,181.273 61.538 C 181.998 61.538,181.140 70.074,180.315 71.068 C 179.804 71.684,179.770 72.000,180.217 72.000 C 180.588 72.000,181.349 71.100,181.909 70.000 C 182.468 68.900,182.960 67.953,183.003 67.896 C 183.045 67.839,183.839 67.602,184.768 67.369 L 186.456 66.945 186.049 69.934 C 185.685 72.614,185.743 72.840,186.618 72.120 C 187.436 71.445,187.700 71.495,188.258 72.427 C 188.889 73.481,188.956 73.483,189.569 72.462 C 190.698 70.579,192.159 71.108,191.692 73.231 C 191.441 74.373,191.535 75.077,191.937 75.077 C 192.920 75.077,194.319 72.589,194.792 70.000 C 195.163 67.972,196.923 66.572,196.923 68.306 C 196.923 68.643,197.892 69.992,199.077 71.304 C 200.262 72.615,201.231 74.000,201.231 74.382 C 201.231 74.764,201.646 75.077,202.154 75.077 C 203.346 75.077,203.330 73.866,202.114 72.129 C 201.026 70.576,201.143 67.609,202.308 67.227 C 202.731 67.088,203.077 67.430,203.077 67.987 C 203.077 68.544,203.739 70.436,204.547 72.192 C 205.356 73.948,206.165 76.595,206.345 78.075 C 206.852 82.241,207.677 82.442,209.501 78.844 C 211.527 74.846,212.611 74.699,212.091 78.493 C 211.664 81.612,212.338 81.686,213.886 78.692 C 215.435 75.696,216.837 76.580,217.375 80.893 C 217.993 85.841,219.074 86.812,219.086 82.431 C 219.095 79.188,219.840 76.865,220.620 77.646 C 221.190 78.216,221.302 95.357,220.752 97.941 C 220.190 100.584,218.578 101.498,217.330 99.880 C 216.722 99.091,216.391 98.992,216.186 99.538 C 216.027 99.962,215.035 100.308,213.982 100.308 C 211.800 100.308,207.385 103.087,207.385 104.461 C 207.385 105.166,207.835 105.273,209.385 104.936 C 214.175 103.895,219.678 103.862,220.066 104.873 C 220.873 106.976,221.433 105.589,222.198 99.585 C 222.882 94.218,223.243 93.041,224.729 91.350 C 225.743 90.194,226.462 88.664,226.462 87.660 C 226.462 86.715,226.838 85.506,227.297 84.972 C 229.352 82.584,231.411 66.075,230.163 61.998 C 229.723 60.561,229.285 58.692,229.190 57.846 C 228.940 55.619,224.250 47.101,222.288 45.309 C 214.838 38.504,208.867 34.008,204.051 31.577 C 201.032 30.053,197.123 27.720,195.363 26.391 C 193.317 24.846,191.799 24.116,191.151 24.364 C 190.594 24.578,189.709 24.397,189.184 23.961 C 186.398 21.649,176.197 19.797,172.615 20.953 M303.058 72.654 C 300.380 73.432,297.967 76.050,294.509 81.928 C 287.686 93.526,286.988 94.060,287.293 87.445 C 287.827 75.894,279.351 69.075,272.000 75.143 L 270.462 76.412 272.000 76.011 C 277.696 74.523,278.397 74.446,280.378 75.100 C 284.747 76.542,286.998 83.982,285.609 92.391 C 285.210 94.806,285.007 96.905,285.158 97.055 C 285.491 97.388,290.462 91.184,290.462 90.436 C 290.462 90.144,291.655 89.084,293.113 88.081 C 295.373 86.526,295.875 85.779,296.510 83.027 C 298.770 73.239,307.943 69.864,313.131 76.911 C 313.922 77.986,314.723 78.713,314.909 78.527 C 315.570 77.866,311.807 73.703,309.785 72.858 C 307.496 71.901,305.819 71.850,303.058 72.654 M266.491 83.308 C 266.185 84.112,265.644 85.843,265.289 87.154 C 264.933 88.466,263.394 91.726,261.867 94.400 C 260.341 97.074,258.501 100.950,257.778 103.015 C 257.056 105.080,255.626 107.600,254.600 108.615 C 252.796 110.402,249.864 115.817,249.852 117.385 C 249.843 118.606,249.132 118.293,247.429 116.315 C 245.900 114.538,240.599 112.612,237.255 112.618 C 233.703 112.624,230.154 116.818,230.154 121.010 C 230.154 122.276,228.931 126.651,227.436 130.733 C 225.941 134.814,223.687 141.062,222.427 144.615 C 220.257 150.735,217.633 155.914,212.229 164.744 C 210.922 166.880,207.397 173.125,204.397 178.621 C 201.396 184.118,198.314 189.723,197.548 191.077 C 196.782 192.431,194.776 196.169,193.090 199.385 C 185.199 214.434,183.899 216.109,178.769 217.837 C 171.016 220.449,170.327 221.401,172.308 226.769 L 173.443 229.846 173.491 227.285 C 173.543 224.470,175.597 222.166,179.519 220.522 C 182.405 219.312,182.769 219.461,182.769 221.846 C 182.769 224.813,183.815 224.550,184.607 221.385 C 185.630 217.301,186.828 215.037,190.673 209.924 C 197.046 201.450,199.446 197.555,202.191 191.231 C 204.983 184.799,205.419 184.229,208.000 183.635 C 208.846 183.441,209.885 183.175,210.308 183.045 C 210.795 182.895,211.078 181.619,211.080 179.558 C 211.088 172.651,215.554 164.918,216.967 169.368 C 218.171 173.161,226.462 156.874,226.462 150.716 C 226.462 149.943,227.973 146.662,229.820 143.424 C 234.232 135.693,235.062 132.048,234.617 122.378 L 234.272 114.885 238.910 115.236 C 246.249 115.791,247.185 116.532,247.718 122.212 C 248.389 129.381,247.201 138.016,244.851 143.037 C 242.126 148.862,241.200 156.885,243.470 155.011 C 246.267 152.702,248.369 143.747,248.936 131.725 C 249.357 122.807,249.942 120.635,252.709 117.718 C 253.927 116.435,255.820 113.446,256.915 111.077 C 258.011 108.708,259.671 106.077,260.604 105.231 C 262.956 103.099,264.994 99.754,265.489 97.214 C 265.718 96.039,266.765 92.787,267.815 89.987 C 269.410 85.735,269.610 84.647,269.029 83.372 C 268.153 81.449,267.206 81.425,266.491 83.308 M313.697 87.868 C 312.952 89.980,310.624 93.234,306.069 98.530 C 302.462 102.723,296.416 110.862,292.633 116.615 C 284.391 129.149,284.323 129.264,286.032 127.765 C 286.759 127.128,287.519 126.084,287.722 125.446 C 287.925 124.807,290.171 122.881,292.713 121.165 C 297.724 117.784,299.143 116.408,306.308 107.991 C 317.661 94.653,324.473 91.798,328.631 98.635 C 332.820 105.523,330.579 110.026,315.426 125.177 C 307.877 132.723,305.628 135.659,300.941 144.078 C 299.504 146.660,296.100 151.229,293.377 154.232 C 280.140 168.829,270.598 190.325,274.154 197.538 C 274.571 198.385,275.257 200.547,275.680 202.344 C 276.738 206.846,278.616 208.836,283.552 210.685 C 290.446 213.267,292.395 213.553,302.859 213.514 C 312.975 213.477,316.085 213.952,318.308 215.875 C 319.273 216.709,319.385 216.704,319.385 215.824 C 319.385 215.284,319.139 214.690,318.839 214.505 C 318.081 214.036,318.530 207.751,319.424 206.320 C 321.885 202.379,328.840 200.798,330.980 203.692 C 331.730 204.708,332.768 205.538,333.287 205.538 C 333.815 205.538,332.981 204.459,331.385 203.077 C 329.104 201.103,328.060 200.615,326.116 200.615 C 324.354 200.615,323.692 200.359,323.692 199.677 C 323.692 196.583,319.610 197.407,316.091 201.212 C 314.430 203.007,313.416 203.651,312.706 203.359 C 307.596 201.262,306.075 201.739,305.452 205.632 C 305.005 208.427,304.473 208.912,302.822 208.028 C 301.130 207.123,298.582 208.218,297.839 210.172 C 296.952 212.506,284.087 209.089,280.273 205.506 C 275.006 200.558,274.195 187.550,278.739 180.923 C 279.319 180.077,281.545 176.062,283.684 172.000 C 288.172 163.482,291.353 158.619,294.151 156.000 C 296.523 153.779,298.983 150.304,301.621 145.448 C 302.696 143.467,304.328 140.877,305.248 139.692 C 306.167 138.508,308.189 135.600,309.741 133.231 C 311.293 130.862,316.177 125.337,320.594 120.954 C 332.798 108.843,334.645 101.386,326.812 95.846 C 321.039 91.764,315.663 95.223,301.006 112.450 C 297.619 116.432,293.098 120.380,292.552 119.834 C 292.224 119.506,295.764 113.490,299.706 107.676 C 300.975 105.806,304.210 101.870,306.895 98.931 C 311.627 93.750,315.353 87.667,314.961 85.761 C 314.855 85.249,314.287 86.197,313.697 87.868 M127.749 87.692 C 127.194 88.538,127.024 89.231,127.370 89.231 C 127.717 89.231,128.000 88.973,128.000 88.657 C 128.000 86.279,133.720 87.838,135.151 90.605 C 135.668 91.605,136.231 92.282,136.403 92.110 C 136.824 91.689,135.521 89.241,133.970 87.538 C 132.192 85.587,129.078 85.664,127.749 87.692 M173.077 88.019 C 170.074 89.226,171.241 91.921,174.569 91.465 C 178.171 90.972,182.154 89.251,182.154 88.189 C 182.154 87.242,175.329 87.114,173.077 88.019 M185.231 91.568 C 185.231 93.002,187.293 94.825,190.283 96.033 C 191.396 96.483,192.529 97.213,192.800 97.656 C 193.070 98.099,193.970 98.462,194.800 98.462 C 195.730 98.462,196.308 98.815,196.308 99.385 C 196.308 99.892,196.585 100.308,196.923 100.308 C 198.464 100.308,196.319 94.177,194.087 92.200 C 192.128 90.466,185.231 89.973,185.231 91.568 M128.146 93.695 C 125.044 97.006,124.976 108.308,128.058 108.308 C 128.849 108.308,128.755 107.563,127.624 104.854 C 126.366 101.844,126.831 97.275,128.656 94.712 C 130.266 92.450,129.934 91.786,128.146 93.695 M129.554 97.816 C 128.360 100.124,128.354 102.812,129.539 104.344 C 130.399 105.455,130.455 105.350,130.337 102.842 C 130.230 100.540,130.467 99.942,131.957 98.753 C 133.668 97.389,133.677 97.348,132.430 96.681 C 130.676 95.742,130.614 95.767,129.554 97.816 M177.124 98.884 C 174.588 99.177,173.212 100.415,173.779 101.892 C 174.076 102.668,174.670 102.790,176.570 102.469 C 178.536 102.137,179.222 102.299,180.261 103.338 C 181.958 105.035,183.748 104.951,185.471 103.092 C 187.196 101.230,188.737 102.020,189.039 104.923 C 189.304 107.472,192.000 108.034,192.000 105.541 C 192.000 100.519,186.044 97.854,177.124 98.884 M136.551 101.385 C 136.283 105.830,136.355 108.153,136.788 109.094 C 137.760 111.204,138.385 109.473,138.133 105.371 C 137.992 103.094,137.870 101.023,137.862 100.769 C 137.829 99.793,136.612 100.364,136.551 101.385 M208.154 107.096 C 206.477 107.770,206.380 108.995,207.895 110.366 C 209.387 111.716,210.645 111.651,212.000 110.154 C 213.546 108.446,214.000 108.593,215.069 111.152 C 217.720 117.498,215.372 126.600,207.386 140.936 C 206.723 142.128,206.030 144.066,205.847 145.244 L 205.515 147.385 206.403 145.120 C 206.891 143.874,209.103 139.305,211.319 134.966 C 216.897 124.042,219.329 110.494,216.264 107.429 C 215.193 106.358,210.472 106.164,208.154 107.096 M195.692 109.910 C 195.692 113.168,191.308 120.083,185.783 125.538 C 181.214 130.050,179.077 133.190,179.077 135.391 C 179.077 135.633,180.885 136.015,183.095 136.242 C 185.305 136.468,188.005 136.798,189.095 136.975 L 191.077 137.296 189.072 136.368 C 184.026 134.032,186.094 125.311,191.440 126.380 C 192.695 126.631,193.462 126.266,194.895 124.736 C 199.111 120.234,199.659 117.699,197.734 111.593 C 196.624 108.072,195.692 107.304,195.692 109.910 M196.000 131.739 C 194.646 132.013,192.362 132.253,190.923 132.272 C 188.281 132.308,187.400 133.176,189.385 133.787 C 189.977 133.970,191.680 134.066,193.169 134.002 C 195.358 133.907,196.049 134.146,196.782 135.250 C 197.698 136.630,201.549 137.163,203.950 136.242 C 205.375 135.695,205.140 134.828,203.671 135.212 C 202.778 135.445,201.850 134.922,200.440 133.390 C 198.590 131.381,198.302 131.274,196.000 131.739 M278.107 139.231 C 276.213 141.622,272.974 147.077,273.450 147.077 C 273.721 147.077,277.353 141.723,279.607 138.000 C 280.459 136.593,279.712 137.205,278.107 139.231 M146.283 142.347 C 146.112 142.791,146.107 143.858,146.271 144.717 C 146.436 145.576,146.278 147.337,145.920 148.631 C 145.316 150.819,145.398 151.116,147.091 152.876 C 148.092 153.917,150.325 156.519,152.052 158.658 C 153.779 160.797,156.530 163.508,158.165 164.682 C 159.800 165.857,161.698 167.707,162.382 168.794 C 167.129 176.336,170.462 179.831,170.462 177.269 C 170.462 176.484,171.068 175.697,172.000 175.273 C 174.093 174.319,173.980 174.076,170.615 172.307 C 162.769 168.181,148.757 151.198,147.965 144.853 C 147.563 141.641,146.921 140.684,146.283 142.347 M180.642 147.034 C 180.390 147.441,180.373 147.963,180.603 148.193 C 181.136 148.726,193.230 148.751,193.230 148.220 C 193.232 146.958,181.379 145.842,180.642 147.034 M197.938 148.728 C 197.707 148.959,198.395 149.518,199.467 149.968 C 201.752 150.929,202.679 150.439,200.958 149.180 C 199.658 148.230,198.596 148.071,197.938 148.728 M191.968 155.962 C 192.956 157.151,197.772 157.322,197.388 156.154 C 197.244 155.718,195.842 155.301,194.153 155.193 C 191.509 155.022,191.261 155.110,191.968 155.962 M201.282 159.744 C 200.885 161.321,200.675 162.727,200.816 162.868 C 200.957 163.009,201.398 161.834,201.795 160.256 C 202.192 158.679,202.402 157.273,202.261 157.132 C 202.120 156.991,201.679 158.166,201.282 159.744 M198.036 169.077 C 195.010 176.770,193.291 177.625,182.788 176.667 C 173.861 175.852,173.657 175.940,171.476 181.523 C 169.877 185.618,166.092 192.539,161.315 200.102 C 159.915 202.319,158.774 204.795,158.779 205.605 C 158.788 206.922,158.934 206.838,160.164 204.803 C 160.920 203.552,163.537 199.344,165.979 195.451 C 168.421 191.559,171.268 186.502,172.305 184.215 C 175.276 177.662,174.799 177.899,184.218 178.294 C 195.573 178.770,197.315 177.373,200.327 165.375 C 201.145 162.113,200.131 163.753,198.036 169.077 M255.906 175.846 C 255.050 176.777,253.989 178.508,253.548 179.692 C 253.108 180.877,250.871 184.892,248.577 188.615 C 244.924 194.546,244.287 196.039,243.435 200.663 C 242.254 207.067,242.258 206.769,243.363 206.769 C 244.562 206.769,245.161 205.482,246.444 200.152 C 247.814 194.458,248.726 193.357,254.990 189.842 C 261.370 186.260,263.721 184.427,263.140 183.486 C 262.451 182.372,261.110 182.628,258.464 184.379 C 255.487 186.349,254.154 185.993,254.154 183.226 C 254.154 180.936,256.127 176.630,257.538 175.840 C 258.517 175.292,258.803 174.154,257.961 174.154 C 257.686 174.154,256.761 174.915,255.906 175.846 M80.069 179.384 C 63.384 189.670,57.950 197.174,52.663 217.231 C 51.259 222.555,51.416 267.418,52.845 269.137 C 54.074 270.618,56.506 270.383,58.905 268.553 C 62.593 265.740,62.474 266.775,57.549 280.308 C 50.691 299.152,50.398 312.156,56.703 317.852 C 58.011 319.034,59.576 320.000,60.182 320.000 C 60.788 320.000,64.865 321.819,69.242 324.041 L 77.200 328.083 82.138 327.808 C 95.226 327.081,101.014 325.545,107.172 321.162 C 108.070 320.523,109.053 320.000,109.356 320.000 C 110.038 320.000,118.170 314.640,125.022 309.675 C 127.845 307.630,131.954 304.085,134.154 301.797 C 142.245 293.385,156.153 281.851,170.462 271.688 C 172.323 270.366,175.785 267.725,178.154 265.820 C 184.823 260.459,185.511 260.088,187.027 261.035 C 188.106 261.709,188.773 261.660,191.232 260.727 C 207.538 254.539,210.290 254.059,214.534 256.667 C 217.592 258.546,219.513 258.236,220.576 255.692 C 221.630 253.170,225.797 252.472,227.010 254.615 C 227.553 255.575,227.910 255.408,230.294 253.077 C 232.867 250.562,233.118 250.462,236.833 250.462 C 242.681 250.462,243.778 249.617,240.805 247.404 C 239.516 246.444,236.852 244.001,234.886 241.976 C 229.332 236.256,227.405 236.361,221.946 242.685 C 213.677 252.264,194.946 251.962,179.840 242.006 C 176.628 239.888,174.769 239.710,174.769 241.519 C 174.769 242.037,175.291 242.462,175.929 242.462 C 176.759 242.462,177.483 243.436,178.482 245.897 C 180.928 251.922,180.000 255.971,175.540 258.736 C 173.931 259.733,171.007 262.017,169.042 263.813 C 167.076 265.608,165.207 267.077,164.888 267.077 C 164.569 267.077,164.308 267.634,164.308 268.314 C 164.308 269.608,160.072 271.883,151.205 275.353 C 149.404 276.058,148.599 276.884,147.672 278.979 C 146.889 280.751,145.871 281.941,144.742 282.409 C 143.790 282.803,141.810 284.776,140.341 286.794 C 138.328 289.558,137.296 290.462,136.154 290.462 C 135.271 290.462,134.134 291.103,133.429 292.000 C 132.250 293.498,132.012 293.538,124.417 293.527 C 88.800 293.477,84.383 291.875,84.576 279.077 C 84.705 270.562,85.382 269.716,98.154 262.119 C 101.200 260.307,105.640 256.986,108.020 254.739 L 112.348 250.654 117.559 249.861 C 120.425 249.425,123.046 248.861,123.385 248.607 C 123.723 248.354,130.992 244.641,139.538 240.357 C 154.936 232.638,158.935 230.022,150.923 232.907 C 146.345 234.556,126.931 240.292,115.385 243.408 C 111.323 244.504,107.169 245.732,106.154 246.137 C 99.265 248.888,71.165 251.666,68.336 249.877 C 67.579 249.398,67.567 249.076,68.258 247.785 C 68.950 246.492,68.922 245.812,68.076 243.328 C 66.645 239.128,66.735 238.818,70.470 235.107 C 74.299 231.302,74.283 231.365,72.615 226.621 C 71.769 224.214,71.385 221.542,71.385 218.072 C 71.385 214.392,71.718 212.247,72.615 210.154 C 73.429 208.255,73.846 205.915,73.846 203.246 C 73.846 199.218,73.854 199.199,77.692 194.399 L 81.538 189.588 85.356 189.563 C 91.809 189.521,93.722 187.811,91.077 184.447 C 90.400 183.587,89.846 182.026,89.846 180.980 L 89.846 179.077 93.331 179.077 C 97.574 179.077,101.380 181.064,103.401 184.335 C 104.966 186.867,105.021 186.749,101.963 187.457 C 99.067 188.128,98.894 188.732,101.122 190.395 C 104.786 193.131,111.228 191.577,109.180 188.451 C 108.405 187.269,108.351 186.815,108.941 186.450 C 109.492 186.110,109.339 185.783,108.391 185.275 C 107.249 184.664,107.077 184.736,107.077 185.825 C 107.077 186.528,106.672 187.077,106.154 187.077 C 105.559 187.077,105.227 186.474,105.221 185.385 C 105.208 183.048,104.884 182.675,100.072 179.452 L 95.837 176.615 90.198 176.615 C 84.590 176.615,84.534 176.631,80.069 179.384 M255.179 198.564 C 252.716 201.027,259.810 214.905,264.430 216.662 C 268.546 218.227,267.118 210.258,262.913 208.196 C 260.320 206.924,258.140 203.993,257.206 200.522 C 256.589 198.234,256.040 197.703,255.179 198.564 M321.827 200.154 C 321.790 201.603,320.223 203.006,317.650 203.892 C 314.494 204.980,314.454 204.690,317.356 201.718 C 319.591 199.429,321.865 198.633,321.827 200.154 M311.385 204.592 C 311.385 206.148,309.329 207.362,308.154 206.501 C 306.915 205.591,306.727 203.912,307.823 203.546 C 309.093 203.123,311.385 203.796,311.385 204.592 M128.656 206.769 C 128.602 208.876,129.447 210.402,131.032 211.058 C 132.615 211.714,136.203 215.491,138.611 219.036 C 139.201 219.905,139.686 220.393,139.688 220.121 C 139.695 219.263,136.957 215.557,133.807 212.161 C 132.136 210.360,130.299 208.202,129.725 207.366 C 129.045 206.378,128.672 206.169,128.656 206.769 M322.754 207.549 C 320.550 209.445,320.343 215.202,322.387 217.744 C 327.039 223.533,327.987 226.452,327.111 232.295 C 326.634 235.479,323.969 239.027,321.611 239.619 C 320.179 239.979,320.152 240.133,319.716 250.327 C 319.226 261.793,318.846 260.093,323.538 267.429 C 327.953 274.330,320.146 279.006,313.136 273.659 L 310.927 271.975 309.878 273.575 C 308.703 275.369,308.970 276.759,310.601 277.338 C 312.378 277.969,313.846 279.495,313.846 280.710 C 313.846 281.715,314.333 281.597,318.072 279.692 C 320.396 278.508,322.598 277.538,322.965 277.538 C 323.331 277.538,324.988 277.248,326.646 276.892 L 329.660 276.246 330.079 267.507 C 331.805 231.530,332.126 211.890,331.038 208.769 C 330.017 205.839,325.514 205.176,322.754 207.549 M337.281 207.479 C 337.815 208.477,337.821 215.419,337.303 235.632 C 336.925 250.388,336.546 265.231,336.462 268.615 L 336.308 274.769 339.692 275.083 C 345.765 275.647,348.317 279.168,348.776 287.614 C 349.048 292.631,349.302 293.593,351.156 296.628 C 353.703 300.798,353.750 302.893,351.373 306.400 C 349.859 308.636,349.538 309.732,349.538 312.681 C 349.538 315.476,349.204 316.746,348.000 318.520 C 346.974 320.032,346.462 321.633,346.462 323.326 C 346.462 324.722,345.896 326.968,345.205 328.317 L 343.949 330.769 345.513 329.043 C 346.637 327.801,347.077 326.627,347.077 324.864 C 347.077 322.489,348.874 318.022,350.145 317.236 C 350.488 317.024,350.769 315.131,350.769 313.030 C 350.769 309.968,351.075 308.759,352.308 306.945 C 354.538 303.662,354.426 299.649,352.000 296.000 C 350.433 293.642,350.158 292.636,350.150 289.231 C 350.129 280.487,346.677 274.756,340.984 274.013 L 338.276 273.659 338.612 240.946 C 338.818 220.873,338.724 207.831,338.367 207.193 C 337.491 205.628,336.439 205.905,337.281 207.479 M313.731 209.697 C 313.916 211.610,313.834 211.692,311.731 211.692 C 309.290 211.692,308.976 210.923,310.520 208.718 C 311.897 206.753,313.494 207.240,313.731 209.697 M303.424 210.201 C 304.487 211.482,303.401 212.187,300.923 211.824 C 299.359 211.594,299.193 211.395,299.729 210.394 C 300.486 208.979,302.329 208.882,303.424 210.201 M147.695 218.205 C 147.697 218.515,148.412 219.600,149.285 220.615 L 150.871 222.462 149.481 220.308 C 147.698 217.545,147.692 217.538,147.695 218.205 M161.524 221.771 C 158.360 225.039,155.088 227.394,154.015 227.176 C 153.104 226.991,153.089 227.094,153.879 228.099 C 155.897 230.665,156.352 230.672,157.835 228.161 C 158.482 227.066,160.203 225.085,161.660 223.759 C 163.116 222.434,164.308 220.976,164.308 220.521 C 164.308 219.304,163.609 219.617,161.524 221.771 M151.692 224.615 C 152.217 225.631,152.785 226.462,152.955 226.462 C 153.124 226.462,152.833 225.631,152.308 224.615 C 151.783 223.600,151.215 222.769,151.045 222.769 C 150.876 222.769,151.167 223.600,151.692 224.615 M144.000 227.286 C 144.000 228.313,146.535 232.615,147.140 232.615 C 147.499 232.615,147.172 231.577,146.413 230.308 C 144.841 227.678,144.000 226.625,144.000 227.286 M283.385 236.355 C 279.662 237.742,275.231 239.248,273.538 239.700 C 271.846 240.152,269.494 240.820,268.312 241.184 C 267.129 241.548,261.821 241.846,256.516 241.846 C 244.931 241.846,242.859 242.444,245.846 244.923 C 248.140 246.827,243.526 254.395,240.793 253.212 C 237.056 251.594,235.904 251.987,230.752 256.631 C 228.032 259.083,225.946 261.228,226.115 261.397 C 226.285 261.567,228.066 260.185,230.074 258.327 C 233.896 254.788,235.504 254.154,240.650 254.154 C 243.238 254.154,243.774 253.922,244.930 252.298 C 246.650 249.882,248.480 249.000,254.462 247.702 C 257.169 247.115,266.525 244.864,275.252 242.702 C 293.542 238.169,295.783 238.003,308.615 240.232 L 316.615 241.621 316.827 243.734 C 317.477 250.225,316.216 260.923,314.800 260.923 C 313.377 260.923,310.255 263.003,306.462 266.477 C 303.613 269.086,305.248 268.158,309.859 264.548 C 311.908 262.944,314.384 261.554,315.398 261.439 L 317.231 261.231 317.652 252.308 C 318.239 239.865,318.416 240.368,313.047 239.245 C 310.610 238.735,306.193 237.440,303.233 236.367 C 294.809 233.313,291.550 233.311,283.385 236.355 M222.836 257.301 C 221.250 259.003,221.447 260.000,223.369 260.000 C 225.388 260.000,226.430 258.166,225.143 256.879 C 224.232 255.968,224.046 256.003,222.836 257.301 M198.525 261.299 C 188.953 264.939,188.822 265.019,189.323 266.934 C 189.795 268.741,190.085 268.707,197.896 265.940 C 204.315 263.665,204.636 263.466,205.984 260.916 C 207.761 257.556,208.462 257.520,198.525 261.299 M208.332 260.280 C 205.078 263.877,209.056 273.404,213.421 272.469 C 214.187 272.305,213.927 271.962,212.434 271.170 C 208.562 269.115,206.972 264.447,208.890 260.769 C 209.936 258.765,209.806 258.652,208.332 260.280 M217.914 261.765 C 217.386 262.401,217.422 262.778,218.065 263.311 C 219.055 264.133,220.697 262.665,220.017 261.565 C 219.476 260.690,218.748 260.759,217.914 261.765 M211.846 264.700 C 210.698 265.860,210.916 268.147,212.308 269.538 C 214.392 271.623,215.738 271.121,216.812 267.859 C 217.930 264.464,217.807 264.142,215.903 265.476 C 214.006 266.804,213.048 266.716,212.812 265.192 C 212.654 264.172,212.464 264.075,211.846 264.700 M217.231 270.341 C 217.231 271.243,213.725 274.747,212.308 275.260 C 211.509 275.550,211.514 275.602,212.341 275.644 C 213.621 275.709,217.846 271.786,217.846 270.532 C 217.846 269.986,217.708 269.538,217.538 269.538 C 217.369 269.538,217.231 269.900,217.231 270.341 M301.846 272.615 C 301.613 273.679,301.560 274.688,301.729 274.857 C 301.898 275.026,302.228 274.295,302.462 273.231 C 302.695 272.167,302.748 271.158,302.579 270.989 C 302.409 270.820,302.080 271.552,301.846 272.615 M200.308 275.707 C 192.812 278.366,192.204 278.378,191.829 275.882 C 191.686 274.932,191.528 275.746,191.477 277.692 C 191.426 279.638,191.535 281.231,191.718 281.231 C 191.901 281.231,194.836 280.262,198.239 279.077 C 205.386 276.589,205.167 276.630,204.688 277.880 C 204.484 278.411,205.412 280.896,206.776 283.471 C 208.126 286.019,209.231 288.859,209.231 289.781 C 209.231 290.703,209.632 291.995,210.123 292.652 C 211.748 294.828,209.403 286.342,207.278 282.354 C 206.220 280.370,205.466 278.668,205.601 278.571 C 205.736 278.475,207.023 277.884,208.462 277.258 C 211.449 275.959,211.762 274.971,209.510 273.945 C 207.519 273.038,208.202 272.907,200.308 275.707 M298.923 280.330 C 297.386 282.385,297.586 282.959,299.147 280.974 C 299.863 280.064,300.347 279.223,300.224 279.105 C 300.101 278.987,299.515 279.538,298.923 280.330 M296.096 285.322 C 295.766 286.626,295.357 290.323,295.187 293.538 C 294.831 300.288,295.053 299.587,296.258 290.154 C 297.165 283.058,297.107 281.332,296.096 285.322 M311.933 285.319 C 310.230 287.285,309.492 290.272,310.501 291.110 C 311.376 291.836,312.658 291.727,317.231 290.538 C 321.659 289.387,339.603 288.377,341.366 289.181 C 343.383 290.099,343.934 289.578,342.053 288.530 C 340.214 287.505,333.147 287.520,322.590 288.571 C 313.549 289.471,313.803 289.530,313.289 286.402 C 312.941 284.283,312.875 284.231,311.933 285.319 M308.758 295.649 C 306.676 297.958,305.650 301.253,306.511 302.863 C 306.999 303.774,306.720 304.516,305.155 306.464 C 302.784 309.414,303.221 311.219,306.822 313.343 L 309.039 314.651 308.614 320.019 C 308.073 326.858,309.017 332.028,310.898 332.520 C 312.189 332.857,312.194 332.946,311.821 348.909 C 311.614 357.736,311.665 364.823,311.933 364.657 C 312.201 364.491,312.604 357.214,312.829 348.486 C 313.054 339.757,313.417 327.977,313.636 322.308 L 314.034 312.000 315.561 312.000 L 317.088 312.000 316.704 322.000 C 316.493 327.500,316.141 339.408,315.921 348.462 L 315.522 364.923 321.761 364.923 L 328.000 364.923 328.000 346.154 C 328.000 325.074,327.811 325.807,332.428 329.007 L 334.769 330.629 334.769 347.812 C 334.769 359.998,334.963 364.876,335.436 364.583 C 335.896 364.299,336.046 359.077,335.919 347.778 L 335.734 331.385 338.482 331.077 L 341.231 330.769 337.418 329.364 C 335.321 328.591,332.456 326.998,331.052 325.825 C 329.648 324.652,328.271 323.692,327.991 323.692 C 326.478 323.692,320.586 317.255,319.956 314.913 C 319.178 312.025,320.921 309.784,323.385 310.505 C 324.062 310.703,325.585 311.084,326.769 311.352 C 327.954 311.619,330.238 312.591,331.846 313.510 C 335.786 315.764,335.557 314.997,331.481 312.291 C 327.885 309.903,325.227 309.556,316.923 310.391 L 312.923 310.792 310.943 308.502 C 306.289 303.122,310.372 300.396,323.315 300.240 C 328.257 300.181,328.601 300.110,326.209 299.640 C 324.637 299.332,321.154 299.350,317.934 299.683 C 311.462 300.352,310.913 300.102,310.647 296.369 L 310.462 293.759 308.758 295.649 M183.854 302.308 C 181.911 304.859,181.384 306.557,181.900 308.610 C 182.294 310.181,182.395 310.101,184.368 306.662 C 187.447 301.294,187.069 298.086,183.854 302.308 M332.196 301.057 C 332.608 301.470,334.948 301.916,337.396 302.049 C 339.844 302.182,342.192 302.571,342.615 302.913 C 343.038 303.255,343.385 303.338,343.385 303.097 C 343.385 302.856,342.762 302.139,342.000 301.504 C 340.327 300.108,330.813 299.675,332.196 301.057 M293.095 303.125 C 292.344 303.829,286.113 306.321,279.249 308.664 L 266.769 312.923 256.308 312.777 C 244.873 312.618,236.581 311.877,230.992 310.516 C 229.008 310.033,226.087 309.462,224.501 309.248 C 222.289 308.950,221.084 308.329,219.331 306.584 C 217.199 304.461,217.132 304.436,218.340 306.209 C 220.405 309.239,220.922 309.462,229.679 311.079 C 239.444 312.883,249.751 313.823,259.914 313.836 L 267.213 313.846 280.222 309.200 C 287.377 306.644,293.609 304.179,294.071 303.722 C 295.484 302.325,294.556 301.758,293.095 303.125 M280.000 311.310 C 279.492 311.587,275.338 312.877,270.769 314.177 C 260.966 316.966,256.159 320.024,253.635 325.079 C 251.268 329.820,252.389 329.842,256.970 325.144 C 261.783 320.209,262.433 319.798,266.892 318.856 C 270.744 318.042,278.371 314.500,280.923 312.339 C 282.698 310.836,282.098 310.166,280.000 311.310 M183.753 312.923 C 184.003 313.938,184.685 315.877,185.268 317.231 C 185.898 318.694,186.503 322.312,186.760 326.154 C 187.049 330.478,187.696 334.076,188.715 337.031 C 190.007 340.780,190.138 341.803,189.583 343.801 C 189.224 345.095,188.928 347.331,188.927 348.769 L 188.923 351.385 191.919 351.385 C 195.142 351.385,195.167 351.398,208.701 360.802 L 214.632 364.923 233.521 364.923 C 260.214 364.923,266.937 363.076,282.027 351.598 C 287.098 347.741,294.117 343.155,299.287 340.321 C 304.079 337.694,308.087 335.105,308.194 334.567 C 308.558 332.736,306.019 328.000,304.674 328.000 C 302.929 328.000,301.028 325.743,300.021 322.476 C 298.826 318.601,298.870 320.504,300.091 325.564 C 301.614 331.874,297.872 336.847,287.744 341.974 C 286.023 342.846,281.779 345.478,278.312 347.824 C 271.222 352.622,259.843 357.012,248.394 359.367 C 236.795 361.753,232.774 360.848,225.932 354.311 C 219.270 347.947,210.462 344.712,210.462 348.630 C 210.462 349.620,220.929 359.371,222.000 359.379 C 223.364 359.389,222.818 361.011,221.202 361.747 C 210.898 366.442,189.383 343.762,187.987 326.733 C 187.752 323.876,186.867 319.462,186.019 316.923 C 184.437 312.186,182.904 309.479,183.753 312.923 M224.659 315.238 C 223.381 315.569,221.958 316.844,220.187 319.246 C 218.758 321.184,217.040 323.216,216.370 323.762 C 215.235 324.686,215.205 324.994,215.927 328.223 C 216.851 332.351,217.726 332.593,220.123 329.386 C 226.260 321.175,230.765 318.769,240.005 318.769 C 251.407 318.769,255.222 316.649,246.123 315.368 C 241.913 314.776,226.798 314.684,224.659 315.238 M189.284 321.144 C 188.840 321.864,190.504 332.677,191.502 335.550 C 193.201 340.441,199.505 347.162,200.995 345.671 C 201.183 345.484,199.986 343.301,198.337 340.819 C 195.705 336.859,193.846 333.451,193.846 332.586 C 193.846 332.433,196.851 332.308,200.524 332.308 C 210.503 332.308,212.829 331.058,211.998 326.143 C 211.401 322.606,210.198 321.897,208.132 323.862 C 204.841 326.992,199.103 326.515,194.100 322.696 C 191.380 320.620,189.903 320.144,189.284 321.144 M74.462 334.660 C 74.462 339.140,114.465 339.733,120.000 335.336 L 121.538 334.113 119.385 334.436 C 107.615 336.197,86.636 336.503,82.769 334.970 C 78.596 333.315,74.462 333.161,74.462 334.660 M74.462 345.706 L 74.462 351.105 77.692 351.829 C 79.469 352.228,81.962 352.737,83.231 352.961 C 86.628 353.560,86.041 354.700,81.933 355.481 C 79.950 355.857,77.586 356.652,76.680 357.245 L 75.032 358.325 76.867 359.441 C 78.138 360.214,78.828 361.228,79.112 362.740 L 79.522 364.923 96.530 364.830 C 107.550 364.770,111.913 364.586,108.923 364.308 C 104.433 363.890,95.912 361.389,94.637 360.114 C 93.895 359.372,92.211 359.865,91.508 361.031 C 90.842 362.135,89.557 362.058,88.557 360.853 C 87.925 360.092,87.055 359.941,84.821 360.205 C 82.274 360.507,81.859 360.394,81.513 359.306 C 80.986 357.643,80.951 357.661,86.178 356.920 C 90.848 356.257,92.418 355.531,91.354 354.524 C 90.210 353.442,82.640 350.769,80.721 350.769 C 79.049 350.769,78.769 350.548,78.769 349.231 C 78.769 348.000,78.462 347.692,77.231 347.692 C 76.339 347.692,75.692 347.338,75.692 346.850 C 75.692 345.845,78.717 345.264,84.308 345.194 C 89.321 345.132,91.707 344.362,88.923 343.706 C 87.908 343.466,84.491 342.604,81.330 341.789 C 78.169 340.974,75.330 340.308,75.022 340.308 C 74.714 340.308,74.462 342.737,74.462 345.706 " stroke="none" fill="#000000" fill-rule="evenodd"></path></g></svg>