<svg id="svg" xmlns="http://www.w3.org/2000/svg" xmlns:xlink="http://www.w3.org/1999/xlink" width="400" height="400" viewBox="0, 0, 400,400"><g id="svgg"><path id="path0" d="M244.401 1.199 C 243.768 1.877,243.071 3.269,242.800 4.399 C 242.258 6.660,241.744 6.877,240.595 5.330 C 236.447 -0.253,232.153 1.243,230.636 8.800 C 230.101 11.463,229.546 11.462,226.952 8.794 C 222.094 3.799,216.800 6.313,216.800 13.615 C 216.800 15.603,216.309 15.614,214.423 13.672 C 209.346 8.440,204.800 10.844,204.800 18.762 C 204.800 20.815,204.650 20.805,202.116 18.589 C 196.703 13.854,192.800 16.040,192.800 23.808 C 192.800 25.497,192.359 26.105,191.796 25.193 C 191.272 24.345,186.600 21.600,185.681 21.600 C 182.473 21.600,180.803 23.944,180.794 28.460 C 180.785 32.529,180.638 32.672,177.769 31.403 C 172.785 29.199,169.687 29.182,168.364 31.351 C 166.978 33.624,167.232 34.849,170.637 42.312 C 171.166 43.473,171.600 44.648,171.600 44.923 C 171.600 45.197,171.831 45.777,172.113 46.211 C 172.396 46.645,172.867 47.720,173.162 48.600 C 173.456 49.480,174.125 51.150,174.649 52.312 C 175.172 53.473,175.600 54.518,175.600 54.634 C 175.600 54.749,175.943 55.599,176.362 56.522 C 176.782 57.445,177.777 59.820,178.575 61.800 C 179.372 63.780,180.199 65.713,180.412 66.095 C 180.625 66.477,180.800 66.967,180.800 67.184 C 180.800 67.401,181.226 68.528,181.748 69.689 C 183.079 72.654,184.803 76.945,184.801 77.289 C 184.801 77.448,185.229 78.528,185.754 79.689 C 186.278 80.850,186.935 82.430,187.214 83.200 C 187.492 83.970,187.981 85.230,188.301 86.000 C 188.620 86.770,189.029 87.760,189.209 88.200 C 189.389 88.640,190.010 90.350,190.589 92.000 C 191.169 93.650,191.893 95.540,192.199 96.200 C 192.505 96.860,193.018 98.210,193.340 99.200 C 193.661 100.190,194.144 101.540,194.412 102.200 C 194.933 103.483,195.196 104.191,195.972 106.400 C 196.242 107.170,197.093 109.510,197.863 111.600 C 198.632 113.690,199.447 116.030,199.672 116.800 C 199.898 117.570,200.221 118.380,200.389 118.600 C 200.558 118.820,200.920 119.720,201.195 120.600 C 201.470 121.480,201.920 122.740,202.195 123.400 C 202.471 124.060,202.932 125.410,203.219 126.400 C 203.507 127.390,203.995 128.715,204.305 129.345 C 204.847 130.449,204.810 130.546,203.261 132.080 C 197.073 138.206,199.449 149.890,207.703 153.928 L 209.600 154.856 209.599 159.328 C 209.597 164.360,209.440 164.776,206.287 168.113 C 205.292 169.166,204.194 170.626,203.847 171.358 C 203.037 173.065,202.518 173.462,200.800 173.693 C 194.056 174.598,187.584 178.250,183.797 183.289 C 181.668 186.121,178.806 191.808,178.787 193.245 C 178.780 193.770,178.510 194.549,178.187 194.976 C 177.864 195.404,177.600 196.247,177.600 196.850 C 177.600 197.454,177.405 198.455,177.167 199.074 C 176.924 199.707,176.683 203.787,176.618 208.400 L 176.501 216.600 174.750 217.790 C 166.728 223.243,159.444 234.245,155.260 247.228 C 154.040 251.014,154.697 253.524,157.705 256.576 C 160.259 259.168,160.587 260.135,161.456 267.652 C 161.630 269.150,161.487 269.800,160.712 271.052 C 160.185 271.903,159.426 273.320,159.025 274.200 C 158.625 275.080,157.713 277.060,157.000 278.600 C 155.481 281.880,153.862 285.940,153.173 288.200 C 152.905 289.080,152.441 290.479,152.143 291.308 C 151.398 293.377,151.454 296.403,152.259 297.611 C 153.437 299.379,156.157 302.013,158.083 303.251 C 160.248 304.643,160.622 305.441,160.026 307.398 C 159.792 308.169,159.420 309.398,159.200 310.128 C 158.980 310.859,158.800 311.838,158.800 312.305 C 158.800 312.771,158.642 313.251,158.448 313.370 C 158.255 313.490,157.776 314.985,157.384 316.694 C 156.992 318.402,156.536 319.980,156.371 320.200 C 156.206 320.420,155.709 322.040,155.268 323.800 C 154.826 325.560,154.285 327.540,154.066 328.200 C 153.198 330.813,152.800 332.285,152.800 332.883 C 152.800 333.227,152.531 334.024,152.202 334.654 C 151.874 335.284,151.604 336.374,151.602 337.076 C 151.601 337.778,151.420 338.464,151.200 338.600 C 150.980 338.736,150.800 339.187,150.800 339.602 C 150.800 340.074,149.970 340.908,148.586 341.827 C 146.449 343.245,144.398 345.680,143.841 347.457 C 143.377 348.941,139.807 349.630,131.600 349.819 C 129.730 349.862,127.132 350.100,125.827 350.348 C 124.521 350.597,122.540 350.800,121.424 350.800 C 120.308 350.800,118.766 350.982,117.997 351.204 C 117.229 351.426,115.070 351.805,113.200 352.046 C 107.515 352.777,105.216 353.200,100.000 354.469 C 78.154 359.786,67.394 367.639,66.880 378.642 C 66.426 388.342,71.474 394.723,82.810 398.782 L 86.200 399.996 127.600 399.997 L 169.000 399.997 172.124 398.830 C 179.262 396.163,186.400 391.335,186.400 389.173 C 186.400 388.719,186.618 387.954,186.884 387.474 C 187.157 386.980,187.374 385.035,187.384 383.000 L 187.400 379.400 193.400 379.146 C 196.700 379.006,201.920 378.672,205.000 378.405 C 208.136 378.132,212.624 378.025,215.200 378.162 C 217.730 378.296,221.870 378.221,224.400 377.995 C 226.930 377.769,232.330 377.419,236.400 377.216 C 240.470 377.014,244.745 376.662,245.901 376.434 C 247.056 376.207,248.517 376.123,249.148 376.250 C 249.778 376.376,251.533 376.203,253.047 375.865 C 257.668 374.836,262.495 374.289,264.600 374.557 C 270.854 375.353,273.622 375.536,279.400 375.534 C 282.920 375.533,286.880 375.362,288.200 375.154 C 289.520 374.946,292.220 374.614,294.200 374.417 C 300.325 373.807,303.365 373.159,306.714 371.752 C 307.436 371.448,308.283 371.200,308.597 371.200 C 310.407 371.200,312.400 368.198,312.400 365.470 C 312.400 357.187,300.978 341.657,291.149 336.574 C 290.245 336.106,290.000 335.704,289.998 334.690 C 289.994 332.490,289.204 330.407,287.773 328.823 C 286.384 327.286,285.857 324.783,286.800 324.200 C 287.020 324.064,287.200 323.247,287.200 322.384 C 287.200 321.522,287.480 320.117,287.822 319.262 C 288.555 317.429,288.457 307.737,287.676 304.936 C 287.239 303.370,285.480 299.750,283.797 296.953 L 283.047 295.706 284.517 293.988 C 286.272 291.938,286.714 290.159,285.868 288.549 C 284.794 286.504,280.005 280.266,277.570 277.742 C 274.643 274.705,274.266 272.304,276.341 269.914 C 276.969 269.191,277.689 268.207,277.941 267.726 C 278.533 266.599,278.569 251.298,277.984 249.757 C 277.755 249.155,277.472 247.838,277.356 246.831 C 277.240 245.824,276.977 244.829,276.772 244.620 C 276.568 244.411,276.399 243.871,276.399 243.420 C 276.398 242.969,275.588 240.266,274.599 237.413 C 272.264 230.680,272.106 231.365,277.100 226.562 C 282.091 221.761,282.749 221.538,285.253 223.800 C 287.861 226.156,292.064 225.349,293.029 222.308 C 293.179 221.836,293.908 220.878,294.651 220.178 C 297.275 217.703,296.094 214.299,291.949 212.396 C 289.557 211.297,289.215 210.970,289.206 209.776 C 289.203 209.324,288.570 207.907,287.800 206.628 C 286.307 204.149,286.171 203.590,286.796 202.495 C 287.014 202.113,287.925 200.090,288.822 198.000 C 289.718 195.910,290.889 193.310,291.425 192.221 C 291.961 191.133,292.400 190.021,292.400 189.750 C 292.400 188.790,295.060 186.400,296.128 186.400 C 296.697 186.400,297.578 186.211,298.085 185.980 C 298.850 185.631,299.474 185.802,301.733 186.980 C 303.232 187.761,304.787 188.400,305.189 188.400 C 305.591 188.400,306.856 189.030,308.000 189.800 C 311.000 191.819,313.869 191.696,319.200 189.321 C 323.934 187.211,326.466 184.398,327.796 179.770 C 328.170 178.467,328.729 176.524,329.038 175.454 C 329.347 174.384,329.600 173.174,329.600 172.766 C 329.600 172.358,329.961 171.381,330.402 170.596 C 334.107 163.999,334.172 147.158,330.522 139.667 C 328.293 135.094,320.718 129.600,316.641 129.600 C 315.544 129.600,315.219 129.398,314.875 128.500 C 314.228 126.815,312.195 120.551,311.208 117.200 C 310.722 115.550,310.066 113.570,309.752 112.800 C 309.231 111.526,309.257 111.184,310.039 109.000 C 312.256 102.804,313.079 94.653,311.783 91.713 C 310.009 87.685,309.218 86.425,306.943 84.007 L 304.487 81.395 304.343 77.797 C 304.172 73.499,303.205 71.708,299.562 68.938 C 297.433 67.320,297.282 67.083,296.242 63.722 C 295.643 61.785,295.001 59.840,294.816 59.400 C 294.631 58.960,294.163 57.520,293.776 56.200 C 293.388 54.880,292.942 53.530,292.784 53.200 C 292.500 52.606,292.122 51.186,290.174 43.400 C 289.624 41.200,289.000 39.087,288.787 38.705 C 288.574 38.323,288.400 37.629,288.400 37.163 C 288.400 36.697,287.948 34.760,287.397 32.858 C 286.845 30.956,286.112 28.410,285.769 27.200 C 285.425 25.990,284.977 24.447,284.772 23.772 C 284.567 23.096,284.400 22.220,284.400 21.825 C 284.400 21.430,284.139 20.273,283.820 19.254 C 283.501 18.234,283.069 16.680,282.860 15.800 C 282.652 14.920,282.256 13.300,281.981 12.200 C 281.706 11.100,281.407 9.570,281.316 8.800 C 281.225 8.030,280.992 7.040,280.798 6.600 C 280.604 6.160,280.355 5.080,280.245 4.200 C 280.135 3.320,279.925 2.015,279.777 1.300 L 279.509 0.000 275.455 0.007 L 271.400 0.014 270.097 2.007 C 268.476 4.486,268.133 4.486,266.278 2.000 L 264.784 -0.000 261.076 -0.000 L 257.367 0.000 256.302 2.100 C 254.319 6.012,254.391 5.985,252.398 3.543 C 249.100 -0.497,246.655 -1.214,244.401 1.199 M264.638 6.792 C 268.496 11.958,268.532 11.958,272.020 6.771 C 275.477 1.628,275.458 1.612,277.571 11.337 C 279.853 21.841,288.054 52.225,291.055 61.296 C 294.041 70.324,294.883 71.963,296.554 72.013 C 298.818 72.081,301.145 77.823,299.794 80.009 C 299.503 80.481,297.738 80.380,295.700 79.774 C 295.039 79.578,294.800 79.671,294.800 80.126 C 294.800 80.467,295.205 80.867,295.700 81.016 C 296.725 81.323,299.959 83.282,301.926 84.786 C 303.810 86.227,306.800 90.304,306.800 91.432 C 306.800 92.550,306.385 92.674,301.790 92.932 C 298.005 93.144,293.192 94.650,287.629 97.362 C 283.374 99.436,282.956 99.522,282.600 98.400 C 282.238 97.260,279.819 98.307,275.091 101.652 C 273.724 102.620,273.340 102.405,272.790 100.363 C 272.169 98.057,272.410 97.664,276.505 94.327 C 285.142 87.288,289.984 82.684,289.236 82.222 C 288.892 82.009,286.196 84.089,275.873 92.531 C 273.104 94.796,271.790 95.625,271.123 95.531 C 269.678 95.326,269.711 93.860,271.184 92.811 C 274.782 90.249,274.211 84.909,269.709 79.030 C 267.157 75.698,266.117 76.218,268.592 79.589 C 273.759 86.628,272.990 91.996,266.899 91.399 C 263.853 91.100,257.915 89.915,248.800 87.789 C 239.001 85.503,231.452 85.442,226.500 87.611 C 223.568 88.894,224.340 90.344,227.453 89.399 C 231.456 88.185,232.647 88.848,230.373 91.025 C 220.130 100.833,223.554 118.678,236.893 125.013 C 249.141 130.830,264.776 126.157,270.724 114.902 C 272.243 112.029,271.949 112.144,278.600 111.805 C 281.240 111.670,284.210 111.395,285.200 111.195 C 296.222 108.965,301.200 111.317,301.200 118.756 C 301.200 124.408,294.281 128.785,285.329 128.798 C 283.367 128.800,282.090 129.745,282.835 130.642 C 283.844 131.858,292.128 130.814,295.824 129.006 C 302.421 125.778,304.881 117.610,300.808 112.458 C 298.097 109.028,297.918 108.995,285.269 109.584 C 273.005 110.156,272.844 110.130,273.391 107.641 C 273.748 106.016,274.794 105.490,277.007 105.822 C 278.453 106.039,279.065 105.919,280.292 105.180 C 281.121 104.681,283.228 103.708,284.973 103.018 C 288.414 101.657,289.274 100.800,287.200 100.800 C 284.619 100.800,286.803 98.906,291.768 96.839 C 297.877 94.296,304.967 93.231,306.986 94.554 C 309.169 95.985,307.872 104.863,304.721 110.044 C 303.347 112.305,303.310 113.112,304.566 113.427 C 305.706 113.713,305.561 113.366,309.232 124.600 C 310.813 129.440,313.094 135.531,314.301 138.136 C 317.579 145.212,317.139 147.246,311.460 151.254 C 299.216 159.896,277.636 163.852,258.000 161.054 C 249.965 159.909,249.748 159.693,251.209 154.275 C 254.543 141.921,240.103 137.507,232.930 148.689 C 231.709 150.592,231.486 150.757,230.420 150.544 C 229.416 150.343,229.021 150.556,227.624 152.055 C 225.514 154.319,225.624 155.042,228.054 154.873 C 229.832 154.749,229.943 154.811,231.843 156.973 C 233.263 158.589,234.351 159.400,235.807 159.931 C 236.910 160.334,238.657 161.307,239.689 162.095 C 243.277 164.833,247.531 165.167,251.615 163.029 L 253.800 161.885 258.000 162.376 C 260.310 162.646,264.990 163.077,268.400 163.333 C 274.308 163.778,274.606 163.841,274.725 164.676 C 275.017 166.727,272.385 168.783,268.367 169.645 C 264.953 170.377,261.405 174.725,260.193 179.662 C 259.795 181.285,258.594 182.119,253.747 184.142 L 249.293 186.000 243.899 186.000 C 225.674 186.000,211.738 177.680,213.415 167.800 C 213.713 166.040,213.967 162.121,213.979 159.091 C 214.002 152.970,213.753 153.511,217.000 152.540 C 219.848 151.688,218.548 150.618,214.400 150.400 C 207.663 150.045,204.879 147.244,204.484 140.423 C 204.154 134.721,209.323 131.410,214.464 134.032 C 215.689 134.658,216.208 134.751,216.548 134.406 C 217.227 133.716,214.783 131.697,212.918 131.406 C 210.620 131.048,209.553 130.344,208.970 128.800 C 208.679 128.030,206.196 121.190,203.451 113.600 C 194.922 90.011,190.616 78.972,178.095 48.600 C 172.461 34.931,172.577 35.261,173.293 34.986 C 173.595 34.870,175.707 35.603,177.988 36.614 C 184.054 39.303,184.480 39.001,185.002 31.643 C 185.424 25.703,185.343 25.733,190.481 29.599 C 195.971 33.730,196.459 33.530,197.194 26.853 C 197.907 20.373,197.799 20.413,202.776 24.800 C 208.094 29.488,208.461 29.309,209.227 21.652 C 209.853 15.404,209.944 15.366,214.143 19.544 C 218.788 24.164,219.291 23.922,220.750 16.363 C 222.085 9.447,221.925 9.495,226.610 14.600 C 231.608 20.044,231.944 19.960,233.811 12.800 C 235.607 5.910,235.734 5.858,239.246 10.599 C 243.066 15.757,243.626 15.652,245.684 9.400 C 247.373 4.265,247.628 4.220,250.823 8.477 C 254.923 13.941,255.026 13.928,258.208 7.583 C 260.977 2.062,261.095 2.048,264.638 6.792 M246.256 89.403 C 249.461 89.955,254.019 90.852,256.385 91.397 C 258.751 91.941,261.918 92.562,263.423 92.775 C 266.856 93.261,267.872 94.011,269.501 97.263 C 276.319 110.880,265.660 125.621,249.016 125.594 C 229.927 125.563,219.497 105.914,231.681 92.935 C 236.251 88.067,237.182 87.841,246.256 89.403 M244.537 104.227 C 242.696 106.068,244.160 109.200,246.862 109.200 C 248.335 109.200,250.000 107.608,250.000 106.200 C 250.000 103.562,246.475 102.289,244.537 104.227 M320.900 135.493 C 329.381 140.109,332.240 155.555,326.836 167.572 C 325.988 169.457,325.072 172.080,324.801 173.400 C 323.081 181.759,320.757 184.671,314.743 186.007 C 310.739 186.896,309.402 185.902,311.403 183.524 C 313.188 181.402,312.268 181.118,308.501 182.625 C 303.122 184.777,299.992 181.083,303.193 176.360 C 305.145 173.479,304.577 171.732,302.032 172.787 C 299.761 173.728,299.001 174.994,298.993 177.851 C 298.981 182.669,294.485 182.358,293.157 177.446 C 290.640 168.145,300.842 160.510,311.975 163.362 C 313.374 163.721,314.617 163.917,314.736 163.797 C 315.685 162.849,309.757 161.200,305.398 161.200 C 299.985 161.200,300.504 159.393,307.000 155.617 C 317.754 149.366,319.494 146.424,316.443 139.648 C 313.643 133.429,314.920 132.238,320.900 135.493 M209.287 139.024 C 207.342 140.386,206.695 143.200,208.326 143.200 C 208.739 143.200,209.493 143.560,210.000 144.000 C 211.379 145.196,211.732 144.998,211.486 143.166 C 211.243 141.352,212.135 140.000,213.576 140.000 C 214.575 140.000,215.066 139.214,214.351 138.761 C 213.444 138.187,210.245 138.353,209.287 139.024 M247.432 145.554 C 249.842 147.024,250.498 149.789,249.350 153.627 C 248.992 154.822,248.482 157.060,248.217 158.600 L 247.735 161.400 245.967 161.376 C 242.053 161.324,239.861 158.611,240.262 154.316 C 240.526 151.485,240.237 150.953,238.646 151.353 C 237.651 151.602,236.996 152.748,236.580 154.964 C 236.293 156.498,236.042 156.682,235.280 155.920 C 232.609 153.249,237.149 146.510,242.400 145.352 C 245.465 144.676,246.029 144.699,247.432 145.554 M299.128 160.900 C 299.011 161.723,298.788 161.800,296.531 161.797 C 293.138 161.794,292.481 161.057,295.280 160.395 C 298.026 159.744,299.269 159.908,299.128 160.900 M288.202 162.403 C 288.950 163.614,282.673 168.000,280.191 168.000 C 279.551 168.000,277.200 165.356,277.200 164.635 C 277.200 163.130,287.375 161.065,288.202 162.403 M277.050 168.987 C 277.267 169.550,276.211 172.935,275.540 173.831 C 275.004 174.546,265.223 178.494,264.589 178.251 C 263.718 177.917,263.872 176.489,264.985 174.590 C 266.005 172.850,266.630 172.487,270.426 171.437 C 271.651 171.098,273.361 170.288,274.226 169.638 C 276.005 168.301,276.724 168.135,277.050 168.987 M291.521 169.284 C 291.607 169.733,291.121 170.228,290.063 170.768 C 288.585 171.522,287.668 172.430,286.541 174.257 C 285.814 175.436,285.039 174.385,285.363 172.658 C 285.921 169.684,291.056 166.869,291.521 169.284 M278.334 179.439 C 280.609 181.032,279.074 182.077,272.100 183.683 C 266.352 185.006,266.601 184.035,272.846 180.781 C 277.094 178.568,277.091 178.568,278.334 179.439 M206.489 180.030 C 211.678 181.778,218.511 187.452,221.543 192.531 C 223.377 195.604,223.346 196.022,221.200 197.123 C 218.147 198.689,216.198 197.974,214.191 194.549 C 211.868 190.585,204.717 191.444,198.388 196.447 C 194.279 199.695,192.261 196.518,193.796 189.220 C 195.521 181.017,199.934 177.822,206.489 180.030 M221.625 183.413 C 225.702 185.466,230.813 187.061,235.553 187.761 C 241.541 188.644,241.649 188.437,233.338 192.023 C 226.498 194.974,226.349 194.967,224.311 191.609 C 223.446 190.185,221.790 187.935,220.631 186.609 C 216.382 181.751,216.645 180.905,221.625 183.413 M263.130 191.005 C 263.219 194.869,262.987 199.075,262.381 204.600 L 261.502 212.600 249.851 224.094 C 243.443 230.415,237.952 235.545,237.648 235.494 C 236.600 235.316,225.200 214.193,225.200 212.429 C 225.200 212.000,225.914 210.824,226.787 209.815 C 228.927 207.342,229.488 205.384,228.882 202.495 C 228.554 200.932,228.540 200.114,228.834 199.759 C 229.292 199.207,253.873 188.647,256.800 187.744 C 257.790 187.439,259.320 186.740,260.200 186.191 C 262.891 184.512,262.983 184.663,263.130 191.005 M280.000 194.213 C 280.000 196.052,277.868 198.377,276.247 198.306 C 274.844 198.245,274.203 198.464,273.004 199.415 C 270.656 201.277,270.283 201.489,268.900 201.742 C 265.243 202.412,268.081 198.271,272.140 197.016 C 273.933 196.461,276.300 195.570,277.400 195.035 C 279.491 194.019,280.000 193.858,280.000 194.213 M224.008 203.804 C 225.600 204.627,226.071 205.604,225.464 206.825 C 224.596 208.574,223.460 208.284,222.683 206.117 C 221.579 203.035,221.794 202.659,224.008 203.804 M197.920 204.880 C 198.184 205.144,198.400 205.772,198.400 206.275 C 198.400 206.895,198.883 207.498,199.900 208.147 C 202.702 209.935,206.353 215.601,219.202 238.105 L 226.913 251.609 226.636 256.345 L 226.359 261.081 227.824 262.367 C 230.100 264.366,230.899 264.541,238.832 264.778 C 246.187 264.998,246.279 265.011,247.719 266.111 C 254.283 271.119,245.272 278.652,233.700 277.830 C 230.334 277.591,229.343 278.018,231.426 278.810 C 234.397 279.939,241.945 278.893,246.117 276.773 C 249.705 274.949,250.820 275.803,250.205 279.905 C 249.478 284.759,244.005 287.761,235.831 287.792 C 230.575 287.812,229.661 288.089,231.048 289.240 C 232.182 290.180,240.005 289.937,243.087 288.865 C 247.055 287.485,247.809 287.748,247.132 290.275 C 245.644 295.824,231.335 297.865,223.047 293.712 C 213.576 288.965,210.654 279.242,213.757 262.800 C 214.654 258.047,214.623 256.400,213.635 256.400 C 212.883 256.400,212.369 257.663,211.598 261.409 C 210.243 267.996,210.402 268.239,203.118 248.400 C 188.375 208.239,188.567 208.785,188.906 207.901 C 189.360 206.717,192.078 205.029,193.952 204.766 C 196.885 204.355,197.410 204.370,197.920 204.880 M267.962 233.754 C 269.802 235.971,273.088 249.046,273.654 256.400 C 274.400 266.104,272.702 268.491,264.347 269.481 C 262.224 269.732,262.243 269.759,261.800 265.867 C 261.049 259.269,257.688 254.264,252.128 251.460 C 250.989 250.885,249.952 250.245,249.823 250.038 C 249.611 249.694,266.665 233.226,267.251 233.208 C 267.389 233.203,267.709 233.449,267.962 233.754 M195.533 239.045 C 196.618 240.362,201.606 251.555,202.820 255.400 C 203.098 256.280,204.647 260.229,206.263 264.175 C 207.878 268.122,209.200 271.794,209.200 272.334 L 209.200 273.318 205.900 273.053 C 196.819 272.324,185.413 268.485,183.633 265.558 C 182.611 263.878,182.117 256.378,182.774 252.529 C 184.570 242.008,191.734 234.436,195.533 239.045 M251.100 253.465 C 260.695 258.004,263.251 275.424,255.285 281.991 C 253.166 283.737,251.401 283.692,251.761 281.900 C 252.491 278.257,252.478 277.692,251.621 275.755 C 250.909 274.144,250.803 273.374,251.019 271.359 C 251.386 267.938,250.520 266.494,246.342 263.557 C 245.427 262.914,245.427 262.912,245.929 258.402 C 246.661 251.817,246.978 251.514,251.100 253.465 M276.851 295.147 C 284.810 303.300,286.401 315.958,281.006 328.215 C 278.905 332.989,271.646 334.088,262.509 331.017 C 255.161 328.548,255.067 328.426,256.628 323.421 C 258.852 316.288,257.559 310.516,252.549 305.205 C 251.147 303.719,250.000 302.222,250.000 301.879 C 250.000 299.532,269.110 291.107,272.800 291.827 C 273.356 291.935,275.153 293.408,276.851 295.147 M220.803 304.300 C 220.805 305.565,220.502 307.788,220.130 309.240 C 218.620 315.134,223.277 318.400,233.191 318.400 C 239.920 318.400,241.385 317.750,242.620 314.217 C 243.488 311.736,245.143 310.438,247.476 310.410 C 247.958 310.405,248.464 310.220,248.600 310.000 C 250.202 307.409,252.800 311.988,252.800 317.401 L 252.800 321.294 251.268 322.747 C 250.425 323.546,249.100 324.645,248.323 325.189 C 245.613 327.087,244.036 331.025,245.151 333.109 C 245.529 333.815,245.345 334.244,243.878 336.067 C 242.051 338.337,239.676 342.030,237.779 345.548 L 236.621 347.695 229.011 347.348 C 224.825 347.156,213.919 347.000,204.776 347.000 L 188.152 347.000 186.858 345.435 C 186.061 344.471,185.659 343.626,185.811 343.235 C 185.946 342.886,186.217 341.880,186.413 341.000 C 187.085 337.979,189.304 330.096,190.972 324.800 C 191.284 323.810,191.767 322.010,192.045 320.800 C 192.323 319.590,192.676 318.420,192.829 318.200 C 192.982 317.980,193.233 317.214,193.386 316.497 C 193.741 314.839,194.767 314.251,196.274 314.841 C 196.893 315.084,199.290 315.351,201.600 315.433 C 203.910 315.516,206.331 315.733,206.979 315.915 C 208.226 316.265,213.010 315.544,214.411 314.794 C 215.294 314.322,216.400 312.397,216.400 311.333 C 216.400 310.945,216.657 309.901,216.970 309.013 C 217.284 308.126,217.769 306.283,218.049 304.918 C 218.555 302.446,218.594 302.401,220.500 302.054 C 220.665 302.025,220.802 303.035,220.803 304.300 M168.692 306.192 C 171.366 307.241,179.677 309.492,184.200 310.393 C 190.693 311.686,190.588 310.301,185.551 328.200 C 183.817 334.360,181.895 341.368,181.278 343.773 C 179.898 349.160,179.586 349.453,174.559 350.087 C 168.339 350.872,159.324 348.936,155.939 346.088 C 154.157 344.588,154.317 343.777,160.832 321.200 C 165.927 303.548,165.249 304.841,168.692 306.192 M254.084 329.428 C 259.311 334.150,274.480 335.515,280.053 331.764 C 284.225 328.957,287.877 332.758,284.274 336.157 C 276.431 343.553,243.462 336.650,250.675 329.122 C 252.041 327.696,252.181 327.709,254.084 329.428 M261.156 345.424 C 264.227 348.008,262.473 353.600,258.591 353.600 C 255.370 353.600,253.200 351.579,253.200 348.580 C 253.200 344.976,258.245 342.975,261.156 345.424 M153.600 347.002 C 158.042 351.781,177.763 353.351,181.200 349.201 C 183.590 346.314,186.496 350.412,184.428 353.753 C 179.023 362.488,148.400 358.923,148.400 349.559 C 148.400 345.933,151.287 344.514,153.600 347.002 M246.942 358.940 C 262.710 364.354,283.551 365.305,300.941 361.405 C 306.146 360.237,306.897 360.303,307.596 361.990 C 309.017 365.422,308.224 366.806,304.070 368.140 C 290.265 372.571,269.473 372.133,249.749 366.995 C 238.476 364.058,236.504 362.386,238.407 357.381 C 238.894 356.100,238.421 356.014,246.942 358.940 M178.284 362.720 C 179.179 363.288,180.000 365.954,179.999 368.287 C 179.998 373.133,177.200 375.449,175.601 371.927 C 173.693 367.722,175.641 361.040,178.284 362.720 M183.198 382.700 C 183.193 387.582,182.234 389.162,177.810 391.577 C 171.424 395.062,163.068 397.681,156.100 398.380 C 142.999 399.694,129.914 394.342,131.789 388.435 C 132.141 387.325,132.625 387.377,135.533 388.830 C 145.704 393.912,168.464 390.407,179.589 382.045 C 182.676 379.725,183.201 379.821,183.198 382.700 " stroke="none" fill="#31586e" fill-rule="evenodd"></path><path id="path1" d="M235.578 89.539 C 218.182 100.680,227.454 125.559,249.016 125.594 C 265.660 125.621,276.319 110.880,269.501 97.263 C 267.872 94.011,266.856 93.261,263.423 92.775 C 261.918 92.562,258.751 91.941,256.385 91.397 C 243.389 88.404,238.090 87.931,235.578 89.539 M249.018 104.182 C 251.670 106.834,247.739 110.902,244.846 108.500 C 243.458 107.348,243.320 105.443,244.537 104.227 C 245.881 102.882,247.701 102.864,249.018 104.182 M274.226 169.638 C 273.361 170.288,271.651 171.098,270.426 171.437 C 266.630 172.487,266.005 172.850,264.985 174.590 C 262.615 178.633,263.825 179.046,270.198 176.369 C 275.750 174.038,275.578 174.170,276.569 171.487 C 277.755 168.277,276.917 167.615,274.226 169.638 M288.600 168.998 C 286.679 169.685,285.716 170.774,285.363 172.658 C 285.039 174.385,285.814 175.436,286.541 174.257 C 287.668 172.430,288.585 171.522,290.063 170.768 C 292.864 169.339,291.674 167.898,288.600 168.998 M272.846 180.781 C 266.601 184.035,266.352 185.006,272.100 183.683 C 279.074 182.077,280.609 181.032,278.334 179.439 C 277.091 178.568,277.094 178.568,272.846 180.781 M200.047 179.750 C 196.044 181.198,192.766 188.515,193.442 194.493 C 193.874 198.308,195.314 198.877,198.388 196.447 C 204.717 191.444,211.868 190.585,214.191 194.549 C 216.198 197.974,218.147 198.689,221.200 197.123 C 223.346 196.022,223.377 195.604,221.543 192.531 C 216.578 184.214,205.657 177.721,200.047 179.750 M217.600 182.226 C 217.600 182.809,218.705 184.407,220.631 186.609 C 221.790 187.935,223.446 190.185,224.311 191.609 C 226.349 194.967,226.498 194.974,233.338 192.023 C 241.649 188.437,241.541 188.644,235.553 187.761 C 230.813 187.061,225.702 185.466,221.625 183.413 C 219.019 182.100,217.600 181.682,217.600 182.226 M260.200 186.191 C 259.320 186.740,257.790 187.439,256.800 187.744 C 253.873 188.647,229.292 199.207,228.834 199.759 C 228.540 200.114,228.554 200.932,228.882 202.495 C 229.488 205.384,228.927 207.342,226.787 209.815 C 225.914 210.824,225.200 212.000,225.200 212.429 C 225.200 214.193,236.600 235.316,237.648 235.494 C 237.952 235.545,243.443 230.415,249.851 224.094 L 261.502 212.600 262.381 204.600 C 262.987 199.075,263.219 194.869,263.130 191.005 C 262.983 184.663,262.891 184.512,260.200 186.191 M221.998 203.700 C 221.992 205.285,223.408 208.028,224.175 207.917 C 225.242 207.762,226.075 206.088,225.562 205.129 C 224.865 203.826,222.002 202.678,221.998 203.700 M258.295 241.438 C 253.507 245.960,249.695 249.830,249.823 250.038 C 249.952 250.245,250.989 250.885,252.128 251.460 C 257.688 254.264,261.049 259.269,261.800 265.867 C 262.243 269.759,262.224 269.732,264.347 269.481 C 269.228 268.903,273.220 266.570,273.739 263.991 C 275.033 257.574,269.880 233.127,267.251 233.208 C 267.113 233.212,263.083 236.915,258.295 241.438 M189.657 239.044 C 182.088 245.523,179.546 263.852,185.696 267.602 C 188.977 269.603,200.014 272.580,205.900 273.053 L 209.200 273.318 209.200 272.334 C 209.200 271.794,207.878 268.122,206.263 264.175 C 204.647 260.229,203.098 256.280,202.820 255.400 C 201.606 251.555,196.618 240.362,195.533 239.045 C 193.870 237.027,192.013 237.027,189.657 239.044 M250.675 329.122 C 243.462 336.650,276.431 343.553,284.274 336.157 C 287.877 332.758,284.225 328.957,280.053 331.764 C 274.480 335.515,259.311 334.150,254.084 329.428 C 252.181 327.709,252.041 327.696,250.675 329.122 M254.560 345.760 C 251.440 348.880,253.868 353.600,258.591 353.600 C 260.276 353.600,262.179 352.018,262.624 350.249 C 263.818 345.489,258.045 342.275,254.560 345.760 M149.783 346.537 C 146.930 349.390,148.528 353.043,153.743 355.594 C 167.370 362.258,189.531 357.709,184.404 349.300 C 183.415 347.677,182.485 347.648,181.200 349.201 C 177.763 353.351,158.042 351.781,153.600 347.002 C 151.794 345.059,151.319 345.001,149.783 346.537 M238.407 357.381 C 236.504 362.386,238.476 364.058,249.749 366.995 C 269.473 372.133,290.265 372.571,304.070 368.140 C 308.224 366.806,309.017 365.422,307.596 361.990 C 306.897 360.303,306.146 360.237,300.941 361.405 C 283.551 365.305,262.710 364.354,246.942 358.940 C 238.421 356.014,238.894 356.100,238.407 357.381 M176.250 363.145 C 173.793 365.859,174.749 373.843,177.493 373.527 C 179.730 373.270,180.838 367.981,179.384 364.501 C 178.458 362.284,177.431 361.840,176.250 363.145 M179.589 382.045 C 168.464 390.407,145.704 393.912,135.533 388.830 C 132.625 387.377,132.141 387.325,131.789 388.435 C 129.914 394.342,142.999 399.694,156.100 398.380 C 163.068 397.681,171.424 395.062,177.810 391.577 C 182.234 389.162,183.193 387.582,183.198 382.700 C 183.201 379.821,182.676 379.725,179.589 382.045 " stroke="none" fill="#abdbe2" fill-rule="evenodd"></path><path id="path2" d="M258.208 7.583 C 255.026 13.928,254.923 13.941,250.823 8.477 C 247.628 4.220,247.373 4.265,245.684 9.400 C 243.626 15.652,243.066 15.757,239.246 10.599 C 235.734 5.858,235.607 5.910,233.811 12.800 C 231.944 19.960,231.608 20.044,226.610 14.600 C 221.925 9.495,222.085 9.447,220.750 16.363 C 219.291 23.922,218.788 24.164,214.143 19.544 C 209.944 15.366,209.853 15.404,209.227 21.652 C 208.461 29.309,208.094 29.488,202.776 24.800 C 197.799 20.413,197.907 20.373,197.194 26.853 C 196.459 33.530,195.971 33.730,190.481 29.599 C 185.343 25.733,185.424 25.703,185.002 31.643 C 184.480 39.001,184.054 39.303,177.988 36.614 C 175.707 35.603,173.595 34.870,173.293 34.986 C 172.577 35.261,172.461 34.931,178.095 48.600 C 190.616 78.972,194.922 90.011,203.451 113.600 C 206.196 121.190,208.679 128.030,208.970 128.800 C 209.553 130.344,210.620 131.048,212.918 131.406 C 214.783 131.697,217.227 133.716,216.548 134.406 C 216.208 134.751,215.689 134.658,214.464 134.032 C 209.323 131.410,204.154 134.721,204.484 140.423 C 204.879 147.244,207.663 150.045,214.400 150.400 C 218.548 150.618,219.848 151.688,217.000 152.540 C 213.753 153.511,214.002 152.970,213.979 159.091 C 213.967 162.121,213.713 166.040,213.415 167.800 C 211.738 177.680,225.674 186.000,243.899 186.000 L 249.293 186.000 253.747 184.142 C 258.594 182.119,259.795 181.285,260.193 179.662 C 261.405 174.725,264.953 170.377,268.367 169.645 C 272.385 168.783,275.017 166.727,274.725 164.676 C 274.606 163.841,274.308 163.778,268.400 163.333 C 264.990 163.077,260.310 162.646,258.000 162.376 L 253.800 161.885 251.615 163.029 C 247.531 165.167,243.277 164.833,239.689 162.095 C 238.657 161.307,236.910 160.334,235.807 159.931 C 234.351 159.400,233.263 158.589,231.843 156.973 C 229.943 154.811,229.832 154.749,228.054 154.873 C 225.624 155.042,225.514 154.319,227.624 152.055 C 229.021 150.556,229.416 150.343,230.420 150.544 C 231.486 150.757,231.709 150.592,232.930 148.689 C 235.775 144.253,238.624 142.606,243.400 142.636 C 250.227 142.678,253.159 147.049,251.209 154.275 C 249.748 159.693,249.965 159.909,258.000 161.054 C 277.636 163.852,299.216 159.896,311.460 151.254 C 317.139 147.246,317.579 145.212,314.301 138.136 C 313.094 135.531,310.813 129.440,309.232 124.600 C 305.561 113.366,305.706 113.713,304.566 113.427 C 303.310 113.112,303.347 112.305,304.721 110.044 C 307.872 104.863,309.169 95.985,306.986 94.554 C 304.967 93.231,297.877 94.296,291.768 96.839 C 286.803 98.906,284.619 100.800,287.200 100.800 C 289.274 100.800,288.414 101.657,284.973 103.018 C 283.228 103.708,281.121 104.681,280.292 105.180 C 279.065 105.919,278.453 106.039,277.007 105.822 C 274.794 105.490,273.748 106.016,273.391 107.641 C 272.844 110.130,273.005 110.156,285.269 109.584 C 297.918 108.995,298.097 109.028,300.808 112.458 C 304.881 117.610,302.421 125.778,295.824 129.006 C 292.128 130.814,283.844 131.858,282.835 130.642 C 282.090 129.745,283.367 128.800,285.329 128.798 C 294.281 128.785,301.200 124.408,301.200 118.756 C 301.200 111.317,296.222 108.965,285.200 111.195 C 284.210 111.395,281.240 111.670,278.600 111.805 C 271.949 112.144,272.243 112.029,270.724 114.902 C 264.776 126.157,249.141 130.830,236.893 125.013 C 223.554 118.678,220.130 100.833,230.373 91.025 C 232.647 88.848,231.456 88.185,227.453 89.399 C 224.340 90.344,223.568 88.894,226.500 87.611 C 231.452 85.442,239.001 85.503,248.800 87.789 C 257.915 89.915,263.853 91.100,266.899 91.399 C 272.990 91.996,273.759 86.628,268.592 79.589 C 266.117 76.218,267.157 75.698,269.709 79.030 C 274.211 84.909,274.782 90.249,271.184 92.811 C 269.711 93.860,269.678 95.326,271.123 95.531 C 271.790 95.625,273.104 94.796,275.873 92.531 C 286.196 84.089,288.892 82.009,289.236 82.222 C 289.984 82.684,285.142 87.288,276.505 94.327 C 272.410 97.664,272.169 98.057,272.790 100.363 C 273.340 102.405,273.724 102.620,275.091 101.652 C 279.819 98.307,282.238 97.260,282.600 98.400 C 282.956 99.522,283.374 99.436,287.629 97.362 C 293.192 94.650,298.005 93.144,301.790 92.932 C 306.385 92.674,306.800 92.550,306.800 91.432 C 306.800 90.304,303.810 86.227,301.926 84.786 C 299.959 83.282,296.725 81.323,295.700 81.016 C 295.205 80.867,294.800 80.467,294.800 80.126 C 294.800 79.671,295.039 79.578,295.700 79.774 C 297.738 80.380,299.503 80.481,299.794 80.009 C 301.145 77.823,298.818 72.081,296.554 72.013 C 294.883 71.963,294.041 70.324,291.055 61.296 C 288.054 52.225,279.853 21.841,277.571 11.337 C 275.458 1.612,275.477 1.628,272.020 6.771 C 268.532 11.958,268.496 11.958,264.638 6.792 C 261.095 2.048,260.977 2.062,258.208 7.583 M315.300 133.899 C 314.418 134.195,314.759 135.908,316.443 139.648 C 319.494 146.424,317.754 149.366,307.000 155.617 C 300.504 159.393,299.985 161.200,305.398 161.200 C 309.757 161.200,315.685 162.849,314.736 163.797 C 314.617 163.917,313.374 163.721,311.975 163.362 C 300.842 160.510,290.640 168.145,293.157 177.446 C 294.485 182.358,298.981 182.669,298.993 177.851 C 299.001 174.994,299.761 173.728,302.032 172.787 C 304.577 171.732,305.145 173.479,303.193 176.360 C 299.992 181.083,303.122 184.777,308.501 182.625 C 312.268 181.118,313.188 181.402,311.403 183.524 C 309.402 185.902,310.739 186.896,314.743 186.007 C 320.757 184.671,323.081 181.759,324.801 173.400 C 325.072 172.080,325.988 169.457,326.836 167.572 C 331.248 157.760,330.141 144.474,324.390 138.236 C 322.043 135.690,317.056 133.311,315.300 133.899 M214.351 138.761 C 215.066 139.214,214.575 140.000,213.576 140.000 C 212.135 140.000,211.243 141.352,211.486 143.166 C 211.732 144.998,211.379 145.196,210.000 144.000 C 209.493 143.560,208.739 143.200,208.326 143.200 C 206.695 143.200,207.342 140.386,209.287 139.024 C 210.245 138.353,213.444 138.187,214.351 138.761 M242.400 145.352 C 237.149 146.510,232.609 153.249,235.280 155.920 C 236.042 156.682,236.293 156.498,236.580 154.964 C 236.996 152.748,237.651 151.602,238.646 151.353 C 240.237 150.953,240.526 151.485,240.262 154.316 C 239.861 158.611,242.053 161.324,245.967 161.376 L 247.735 161.400 248.217 158.600 C 248.482 157.060,248.992 154.822,249.350 153.627 C 250.498 149.789,249.842 147.024,247.432 145.554 C 246.029 144.699,245.465 144.676,242.400 145.352 M295.280 160.395 C 292.481 161.057,293.138 161.794,296.531 161.797 C 298.788 161.800,299.011 161.723,299.128 160.900 C 299.269 159.908,298.026 159.744,295.280 160.395 M281.887 162.613 C 278.369 163.125,277.200 163.629,277.200 164.635 C 277.200 165.356,279.551 168.000,280.191 168.000 C 281.510 168.000,286.758 165.182,287.574 164.036 C 289.118 161.868,288.340 161.673,281.887 162.613 M193.952 204.766 C 192.078 205.029,189.360 206.717,188.906 207.901 C 188.619 208.649,189.437 211.109,195.119 226.600 C 211.765 271.979,210.133 268.531,211.598 261.409 C 212.369 257.663,212.883 256.400,213.635 256.400 C 214.623 256.400,214.654 258.047,213.757 262.800 C 210.654 279.242,213.576 288.965,223.047 293.712 C 231.335 297.865,245.644 295.824,247.132 290.275 C 247.809 287.748,247.055 287.485,243.087 288.865 C 240.005 289.937,232.182 290.180,231.048 289.240 C 229.661 288.089,230.575 287.812,235.831 287.792 C 244.005 287.761,249.478 284.759,250.205 279.905 C 250.820 275.803,249.705 274.949,246.117 276.773 C 241.945 278.893,234.397 279.939,231.426 278.810 C 229.343 278.018,230.334 277.591,233.700 277.830 C 245.272 278.652,254.283 271.119,247.719 266.111 C 246.279 265.011,246.187 264.998,238.832 264.778 C 230.899 264.541,230.100 264.366,227.824 262.367 L 226.359 261.081 226.636 256.345 L 226.913 251.609 219.202 238.105 C 206.353 215.601,202.702 209.935,199.900 208.147 C 198.883 207.498,198.400 206.895,198.400 206.275 C 198.400 204.476,197.705 204.240,193.952 204.766 M246.829 253.145 C 245.738 255.185,245.378 262.879,246.342 263.557 C 250.520 266.494,251.386 267.938,251.019 271.359 C 250.803 273.374,250.909 274.144,251.621 275.755 C 252.478 277.692,252.491 278.257,251.761 281.900 C 251.126 285.066,255.668 282.676,257.986 278.624 C 260.566 274.115,260.470 265.268,257.783 259.967 C 255.359 255.183,248.144 250.689,246.829 253.145 M268.900 292.419 C 261.385 294.460,250.000 300.158,250.000 301.879 C 250.000 302.222,251.147 303.719,252.549 305.205 C 257.559 310.516,258.852 316.288,256.628 323.421 C 255.067 328.426,255.161 328.548,262.509 331.017 C 271.646 334.088,278.905 332.989,281.006 328.215 C 286.401 315.958,284.810 303.300,276.851 295.147 C 273.321 291.532,272.812 291.357,268.900 292.419 M165.199 306.500 C 163.926 309.485,155.470 339.919,154.993 343.234 C 154.384 347.467,165.228 351.265,174.559 350.087 C 179.586 349.453,179.898 349.160,181.278 343.773 C 181.895 341.368,183.817 334.360,185.551 328.200 C 190.588 310.301,190.693 311.686,184.200 310.393 C 179.677 309.492,171.366 307.241,168.692 306.192 C 166.587 305.366,165.647 305.449,165.199 306.500 " stroke="none" fill="#f9d21b" fill-rule="evenodd"></path></g></svg>